<?xml version="1.0" encoding="UTF-8"?>
<svg id="Layer_1" data-name="Layer 1" xmlns="http://www.w3.org/2000/svg" viewBox="0 0 259.2 259.2">
  <defs>
    <style>
      .cls-1 {
        fill: #fff;
      }
    </style>
  </defs>
  <polygon class="cls-1" points="0 259.2 259.2 259.2 259.2 0 0 0 0 259.2 0 259.2"/>
  <path d="M160.77,198.11c-.06-.03-.11-.08-.15-.14-.42-.61.02-3.06.58-5.38.55-2.29,1.22-4.47,1.25-4.52.01-.02.03-.04.05-.06.35-.24.63-.3.85-.19.29.14.43.53.45,1.1.02.52-.04,1.19-.16,1.94-.47,2.97-1.87,7.15-2.15,7.26-.13.05-.25.07-.36.07-.11,0-.21-.03-.33-.07h-.03ZM124.31,66.97c-.38,1.47-1.15,1.83-1.9,1.64-.47-.12-.93-.48-1.26-.93-.34-.45-.56-.99-.56-1.48,0-.77.51-1.41,1.89-1.41.05,0,.09,0,.14,0,.54.04.97.27,1.26.62.29.35.44.82.44,1.34,0,.05,0,.11,0,.18v.03h0ZM98.55,134.78c.12-.1.26-.05.45.17l-.03.02s.03.04.04.07c.02,0,.03,0,.03.02h-.01c.16.33.38,1.05.67,1.96.88,2.81,2.38,7.61,2.7,7.73l.07.05c1.77,2.1,4.05,15.72,4.51,23.74.1,1.75.11,3.25.01,4.29-.11,1.14-.37,1.8-.83,1.76-.22-.02-.47-.2-.74-.58-.04-.06-.14-1.58-.27-3.61-.24-3.66-.59-9.03-.75-10.16-.37-2.49-.85-4.92-1.41-7.33-.56-2.41-1.18-4.81-1.82-7.24-.27-1.01-2.62-10.89-2.6-10.9h0ZM98.91,135.1h-.01s0,0,0,0h0ZM113.29,155.2c-.02-.11-.11-.47-.23-.98-.57-2.34-1.92-7.86-1.51-8.14.12-.08.25-.04.39.17l.02.05c.61,2.04,2.47,10.14,3.45,16.6.6,3.98.86,7.36.28,8.37l-.04.08h-.09c-.41.03-.77-3.9-1.09-7.44-.19-2.15-.37-4.15-.51-4.98-.09-.54-.19-1.13-.29-1.71-.12-.67-.25-1.37-.37-2.02h0ZM100.14,105.7c.73,4.04,1.18,5.67,1.27,6.7.07.76-.05.98-.31.72-.07-.07-.17-.39-.3-.92-.33-1.44-.99-3.88-1.51-8.2-.04-.37-.24-8.3.48-5.9.03.1.23,6.67.36,7.6h0ZM101.34,112.89c.06.06.03.02-.03-.06.01.03.02.05.03.06h0ZM110.3,152.22c-.81-3.59-2.94-10.36-5.24-17.67-3.76-11.94-7.97-25.33-7.69-28.88l.02-.24.22.1s.04.06.08.16h.02s0,.04,0,.04c.35.97,1.41,5.32,2.4,9.39.85,3.49,1.65,6.76,1.86,7.44,1.09,3.51,2.2,6.85,3.29,10.1,3.39,10.15,6.52,19.53,7.86,31.17l-.33.04c-.04-.24-.27-1.2-.56-2.33-.39-1.56-.86-3.47-1.02-4.37-.06-.36-.13-.77-.2-1.18-.21-1.26-.44-2.61-.7-3.76h0ZM109.95,160.39c-.12-.01-.22-.46-.38-1.2-.65-2.89-2.42-10.72-2.77-11.95-.54-1.94-1.78-5.85-3.25-10.47-3.42-10.75-8.04-25.29-7.78-27.54l.02-.15h.15s.06.06.11.18h.06s0,.08,0,.13c.38.99,1.31,4.24,2.38,7.96,1.59,5.53,3.48,12.12,4.01,13.7,1.65,4.88,3.24,9.6,4.6,14.37,1.36,4.78,2.5,9.63,3.24,14.78h-.05c-.03.09-.11.19-.3.2h-.03ZM105.92,155.54c-1.64-9.09-2.73-12.8-5.73-21.7-1.68-4.99-3.37-9.98-4.78-15.23-.38-1.4-.57-2.18-.63-2.52-.22-1.22-.04-1.13.4-.14.09.2.24.6.41,1.1.67,1.91,1.77,5.37,1.81,5.48,1.01,3.33,2.11,6.66,3.2,9.99,2.37,7.21,4.73,14.42,6.37,21.84.29.34.56.96.81,1.79.76,2.54,1.34,7.09,1.58,11.13.25,4.07.14,7.65-.46,8.21-.05.05-.1.08-.16.09-.61.18-.97-.17-1.17-.83-.31-1.02-.2-2.82-.12-4.28.04-.7.08-1.33.06-1.73-.1-2.3-.3-4.47-.57-6.63-.27-2.15-.62-4.31-1.02-6.58h0ZM124.11,162.93s.06-.05.1-.06c.2-.05.34.22.42.74.07.41.13.98.18,1.66.25,3.11.36,8.43.35,9.01v.03c-.02.73-.2,9.29-.97,9.57-.19.07-.36-.07-.5-.47-.03-.07.08-1.5.23-3.36.25-3.16.59-7.59.57-8.5-.03-1.6-.13-3.19-.23-4.78-.08-1.22-.15-2.44-.2-3.69v-.07s.05-.05.05-.05h0ZM111.37,64.75c.55-2.29.96-3.8,1.17-4.45.11-.33.22-.49.32-.49.15,0,.2.19.14.58-.1.66-.42,2.15-.98,4.53-.08.34-.18.72-.27,1.08-.37,1.44-.7,2.71-.55,4.13,0,.02-.47,3.87-1.06,6.12-.14.53-.28.98-.43,1.27-.19.39-.41.55-.66.39-.12-.08-.23-.25-.33-.53-.34-1,1.34-7.5,2.21-10.89.2-.78.36-1.39.44-1.74h0ZM121.4,159.88s.06-.04.09-.04c.22-.05.38.27.49.84.09.47.18,1.14.26,1.93.36,3.47.6,9.19.6,9.65,0,.43-.02,4.91-.26,7.48-.06.59-.12,1.08-.21,1.4-.12.47-.3.66-.55.47-.08-.06-.15-.18-.23-.37-.02-.05.03-.75.09-1.8.17-2.74.49-7.87.46-8.89-.06-2.34-.28-4.6-.49-6.87-.12-1.21-.23-2.43-.32-3.64v-.09s.07-.06.07-.06h0ZM106.84,77.93c-.59-.22,1.04-8.07,2.17-12.85.32-1.35.6-2.46.77-3.08.7-2.52.94-2.88.45-.02-.13.74-.48,2.5-1.17,5.66-.07.33-.26,1.36-.48,2.65-.28,1.59-.63,3.57-.93,5.11-.29,1.49-.57,2.57-.77,2.53h-.03ZM120.43,178.67c-.08.24-.17.39-.27.45-.11.08-.22.07-.32,0-.07-.04-.13-.12-.18-.22-.12-.25-.2-.71-.17-1.13.25-3.79.3-7.1.13-10.44-.17-3.34-.56-6.7-1.19-10.56l-.05-.32.29.15s.06.02.09.02c.26,0,.33,0,.6,1.62.51,3.05.97,7.09,1.18,11.09.17,3.32.18,6.61-.11,9.31v.03h0ZM103.71,82.67c.21-2.37,1.6-11.13,2.57-15.86.2-1,.39-1.83.54-2.37.14-.51.32-1.22.56-1.82.7-2.27.13,1.62.11,1.69-.39,1.96-3,15.16-3.37,21.87-.19,4.37.25,11.86.51,15.71.05.74.1,1.36.13,1.79.02.26.03.49.04.67h.01c0,.55-.11,2.12-.3.36h0s-.09-.09-.14-.18c-.05-.08-.1-.21-.15-.37-.23-.66-.53-1.95-.59-2.77-.19-2.53-.26-5.48-.25-8.49.01-3.56.15-7.19.33-10.23h0ZM115.44,152.39s-.06-.02-.08-.03l.02.05.06-.02h0ZM115.36,152.36s-.02-.01-.03-.02l-.05-.02c.03-.09.08-.2.2-.23.17-.04.4.27.74,1.9h0c.02.12,1.65,10.5,2.09,16.9.1,1.45.14,2.7.08,3.59-.06.99-.26,1.55-.66,1.5-.09-.01-.17-.05-.27-.12-.14-.11-.36-5.22-.49-8.25-.05-1.16-.09-2.01-.1-2.14-.19-2.28-.37-4.42-.63-6.54-.26-2.13-.59-4.24-1.05-6.46l.17-.05-.02-.05h0ZM115.33,152.34s-.02-.03,0-.03c.05-.02-.04.02-.05.02l.05.02h0ZM101.16,85.42c.14-2.17,1.25-10.53,2.05-15.06.29-1.66.58-3.11,1.15-4.65.17-.6.4-.71.37-.43.01-.01-2.92,18.3-3.07,23.79-.09,5.54,1.03,16.36,1.16,17.57v.11s.01.03.01.03c-.01.13-.04.22-.07.28-.14.21-.28.15-.41-.12-.05-.11-.11-.28-.17-.49-.26-.89-.59-2.56-.64-3.09-.23-2.53-.37-5.38-.43-8.27-.07-3.33-.04-6.7.05-9.66h0ZM133.55,176.84c.11-2.19.2-3.41.26-3.91.2-1.77.34-1.6.42-.04.02.31.02.92.01,1.7-.03,2.97-.21,8.49-.44,10.22-.39,2.85-.86,5.46-1.33,8.1-.28,1.54-.56,3.08-.82,4.72-.28,1.69-.83,2.91-1.31,3.44-.2.22-.39.33-.57.33-.21,0-.36-.14-.45-.42-.14-.47-.08-1.44.34-3.01.2-.76.42-1.43.63-2.1.34-1.06.69-2.14,1.02-3.69.52-2.43,1.05-5.33,1.47-8.22.36-2.49.65-4.96.77-7.11h0ZM121.32,63.37c-.35-.19.25-2.43.77-3.94.17-.5.33-.92.44-1.15.37-.79.57-.89.46.06-.03.28-.18.92-.48,2.06-.02.09-.06.26-.11.48-.11.49-.26,1.19-.43,1.71-.16.51-.37.87-.62.79h-.03ZM131.47,175.27c-.04-2.36.01-3.81.09-4.43.05-.39.16-.55.32-.5.1.03.18.22.22.56.08.71.12,2.29.04,4.62-.06,1.81-.14,3.49-.26,5.16-.12,1.68-.3,3.36-.57,5.16-.36,2.43-.78,4.77-1.2,7.11-.29,1.6-.57,3.2-.83,4.77-.28,1.67-.82,2.89-1.3,3.41-.2.22-.39.33-.57.33-.2,0-.36-.14-.44-.43-.14-.48-.07-1.49.36-3.12.17-.64.35-1.17.54-1.73.28-.82.58-1.68.86-2.94.61-2.75,1.43-6.76,2.01-10.59.41-2.73.71-5.37.71-7.36h0ZM114.86,85.19c.26-4.17.52-7.14.97-10.11.45-2.97,1.1-5.95,2.13-10.11.01-.05.05-.14.12-.27.19-.39.58-1.2.82-2.16.59-2.32.96-3.64,1.15-4.2.18-.55.34-.63.46-.3.02.06,0,.26-.04.57-.14.8-.52,2.51-1.05,4.66-.13.52-.24,1.3-.35,2.16-.12.88-.25,1.82-.42,2.62-5.85,28.85-1.32,42.85,6.66,67.54.5,1.55,1.02,3.15,1.55,4.8v.02c.13.34,1.89,5.11,1.31,5.81-.17.2-.44.19-.83-.14-.34-.28-2.6-7.23-5-14.97-2.9-9.32-6.01-19.81-6.22-21.1-.56-3.46-.95-7.65-1.16-11.88-.23-4.53-.26-9.12-.09-12.91h0ZM129.17,173.39c-.11-2.52-.08-4.07-.02-4.75.04-.4.15-.58.31-.54.11.03.19.22.24.58.1.75.18,2.42.15,4.91,0,.48-.31,7.31-.79,11.19-.11.86-.22,1.58-.35,2.06-.16.63-.38.9-.66.66-.08-.07-.16-.22-.23-.45-.02-.06.1-1.13.28-2.66.41-3.53,1.1-9.57,1.08-10.78v-.24h0ZM116.76,61.85c.47-1.82.77-2.85.93-3.28.17-.48.32-.53.44-.23.02.06.01.23-.03.49-.11.68-.42,2.11-.87,3.86-.39,1.54-.94,5.18-1.46,8.6-.53,3.53-1.03,6.83-1.29,7.35-.01.02-.05.5-.1,1.2-.16,2.23-.48,6.58-1.19,6.88-.23.1-.45-.06-.66-.55-.02-.04-.04-.1-.05-.15-.29-1.21.31-6.3,1.12-11.13.78-4.67,1.76-9.11,2.32-9.67.13-.53.26-1.08.4-1.66.14-.56.28-1.13.43-1.71h0ZM127.4,166.64s.18,9.52-.18,15.08c-.08,1.23-.19,2.27-.33,2.98-.17.84-.42,1.25-.78,1.06-.11-.06-.21-.18-.32-.38-.03-.06.05-.84.17-1.99.28-2.66.78-7.32.78-8.39v-.05c-.02-.75-.19-9.21.26-9.27.16-.02.29.26.39.94h0ZM114.16,62.88c.51-2,.85-3.19,1.02-3.69.14-.4.28-.5.42-.33.05.06.05.24,0,.52-.1.65-.41,2.07-.9,4.05-.09.36-.18.68-.26.98-.29,1.02-.49,1.75-.33,2.87,0,.03-.79,4.71-1.45,7.89-.35,1.69-.7,2.99-.93,3.03-.38.07-.59-.18-.68-.67-.38-2.11,1.7-9.6,2.67-13.09.2-.71.35-1.25.42-1.56h0ZM115.35,59.07s-.03-.03,0,0c0,0,0,0,0,0h0ZM142.72,181.44c.11-1.03.27-1.45.44-1.43.24.03.4,2.26.28,4.59-.12,2.29-.46,4.7-1.14,5.17-.32.22-.67.12-1.05-.44-.37-.53.37-3.4.93-5.58.27-1.06.5-1.95.54-2.31h0ZM130.26,63.88c.33-1.35.52-2.07.62-2.37.31-.95.43-.87.41-.04,0,.11-.03.34-.08.65-.17,1.05-.56,3.02-.75,3.86v.02c0,.25,0,1.53-.16,2.25-.34,1.59-.85,6.05-1.34,10.31-.54,4.73-1.06,9.23-1.35,9.43-.22.15-.42.2-.6.17-.42-.08-.66-.61-.76-1.46-.09-.78-.08-1.85,0-3.08.35-5.11,1.96-12.95,2.29-13.45.11-.16.19-.73.29-1.39.17-1.16.38-2.56.95-2.85l.23-.99c.07-.3.15-.64.26-1.07h0ZM140.04,186.17c-.32-.13.13-3.79.56-6.12.13-.71.25-1.3.34-1.62.28-.98.46-1.12.49,0,0,.4-.05,1.33-.23,3.02-.03.28-.15,1.46-.32,2.55-.18,1.18-.45,2.26-.81,2.18h-.03ZM128.21,62.74c.36-1.4.57-2.17.68-2.48.27-.78.4-.73.42-.08,0,.09-.02.29-.07.56-.15.89-.5,2.61-.77,3.71-.05.21-.11.71-.18,1.32-.1.84-.22,1.88-.38,2.65-.4,1.86-1.01,7.56-1.55,12.59-.49,4.58-.93,8.61-1.15,8.76-.22.15-.42.21-.6.18-.43-.07-.68-.63-.79-1.53-.1-.83-.1-1.96-.02-3.26.32-5.48,1.94-13.95,2.31-14.52.13-.2.25-.97.39-1.87.24-1.53.53-3.4,1.15-3.72l.27-1.11c.1-.41.2-.81.3-1.19h0ZM137.88,184.92c-.3-.12.12-4.08.52-6.56.12-.73.23-1.34.31-1.68.26-1.04.44-1.2.48-.04.01.38-.03,1.27-.16,2.87-.03.31-.15,1.69-.32,2.97-.08.62-.18,1.21-.28,1.64-.12.52-.29.84-.5.82h-.05ZM126.08,61.94c.39-1.5.63-2.32.74-2.65.3-.86.43-.8.42-.08,0,.1-.03.31-.08.6-.17.96-.58,2.83-.86,3.96v.04c-.03.32-.19,2.01-.63,2.2-.21.09-.44-.04-.67-.55-.05-.11.31-1.19.63-2.15.21-.63.4-1.21.44-1.37h0ZM135.77,178.52c.14-2.05.25-3.19.32-3.67.23-1.65.37-1.47.43.02.01.35,0,1,0,1.82-.07,3.21-.35,9.13-.6,10.64v.04c-.14.86-2.13,13.73-3.56,13.8-.56.03-.8-.35-.83-.95-.05-1.13.68-3.13,1.17-4.46.19-.52.34-.93.39-1.14.48-2.04,1.14-5.4,1.7-8.72.46-2.74.84-5.45.99-7.37h0ZM123.6,63.6c-.35-.19.22-2.36.73-3.83.17-.49.33-.91.44-1.13.37-.77.56-.88.46.05-.03.27-.17.89-.47,2.01-.02.09-.06.26-.11.47-.1.47-.25,1.14-.41,1.65-.16.52-.37.88-.62.8h-.03ZM132.29,65.18c.25-1.05.4-1.62.48-1.86.25-.7.37-.65.4-.03,0,.09-.01.27-.04.5-.1.79-.37,2.28-.54,3.06.37,1.3-1.2,10.96-1.7,14.04-.09.54-.14.88-.15.92v.08c-.03.48-.14,2.69-.77,3.23-.28.24-.63.21-1.05-.29-.23-.27.22-5.74.92-10.49.47-3.21,1.06-6.11,1.6-6.87,0,0,.01-.05.02-.11.03-.24.08-.57.49-.71l.05-.2c.1-.44.2-.88.29-1.27h0ZM110.84,201.39c-.61-.36-.22-1.5.07-2.37.07-.2.13-.38.17-.54h0s.16.03.16.03l.02-.09s0-.03,0-.04l-.03-.05c.1-.05.3-.15.5-.19.29-.06.57-.02.66.35,0,0-.1,1.13-.39,1.96-.08.24-.19.45-.31.62-.13.19-.29.32-.48.36-.11.02-.22.02-.34-.02h-.03ZM111.25,198.51h0s.03-.01.05-.02c-.01-.02-.02-.04-.03-.06l-.03.08h0ZM111.26,198.39s0-.04.03-.03c.06.02-.05-.02-.06-.02l.03.05h0ZM120.24,201.2c-.58-.34-.32-1.65.13-2.79.26-.64.57-1.24.84-1.57.41-.52.73-.59.77.14.03.5-.17,1.61-.75,3.64-.06.22-.16.41-.31.53-.16.13-.37.16-.66.06h-.03ZM109.94,106.82c.18.44,1.83,6.68,3.04,11.62.76,3.13,1.35,5.75,1.27,6.09l-.02.11-.11.02c-.07.01-.14,0-.21-.02-.64-.22-1.52-2.37-2.33-5.12-.8-2.71-1.56-6.01-1.99-8.62-.34-2.04-.47-3.66-.26-4.26l.07-.2.48.3.07.08h0ZM117.89,201.25c-.55-.32-.34-1.5.08-2.55.24-.61.55-1.19.81-1.51.4-.5.72-.57.77.13.03.46-.14,1.5-.68,3.38-.06.23-.17.4-.32.51-.16.11-.37.14-.63.05h-.03ZM115.54,201.3c-.55-.32-.24-1.32-.08-1.78l.05-.15.08-.27h0s.02-.06.02-.06c.1-.32.6-1.84,1.09-1.95.24-.05.44.12.56.67h0s-.18,1.41-.53,2.41c-.1.28-.22.54-.35.74-.15.22-.32.37-.51.42-.1.02-.2.02-.3-.02h-.03ZM113.19,201.34c-.54-.32-.35-1.43.04-2.43.24-.59.54-1.16.8-1.47.4-.48.72-.56.78.12.04.45-.12,1.44-.64,3.25l-.03.09c-.07.19-.17.34-.31.42-.15.09-.33.12-.54.05l-.07-.02h-.03ZM117.01,93.79c-.07-3.28.11-6.39.3-9.47.12-1.94.23-3.88.28-5.82,0-.03.69-4.91,1.45-7.74.18-.66.36-1.22.54-1.58.23-.47.48-.65.75-.43.12.1.22.29.31.61.02.07-.44,3.36-.92,6.9-.54,3.93-1.12,8.15-1.14,8.44-.56,9.9.28,18.4,2.03,26.71,1.75,8.32,4.42,16.46,7.52,25.66.13.38.31.8.52,1.29.31.72.68,1.57,1.02,2.63h0c.09.28.23.74.41,1.3,1.43,4.55,5,15.88,3.32,17.65l-.06.07-.09-.02c-1.15-.2-2.47-6.76-3.11-9.98-.14-.69-.25-1.23-.31-1.5-.15-.64-.31-1.3-.48-1.99-.16-.65-.33-1.31-.5-1.97-1.42-4.74-2.82-9.23-4.27-13.72-1.45-4.5-2.96-9.01-4.6-13.8-.77-2.25-1.38-5.64-1.83-9.25-.64-5.03-.99-10.51-1.12-13.99h0ZM125.73,196.07c.25-1.01.51-1.61.72-1.86.15-.17.29-.21.43-.14.11.06.19.19.24.4.09.47.03,1.43-.31,2.78-.01.05-.03.15-.06.31-.17.93-.62,3.4-1.34,3.81-.31.17-.63.06-.95-.52-.33-.59.31-2.22.8-3.49.21-.54.39-1.01.46-1.29h0ZM123.97,141.22c-1.09.07-6.21-16.35-9.15-28.51-.83-3.42-1.49-6.5-1.84-8.78-.36-2.35-.39-3.88.08-4.13.16-.08.34-.05.54.09.08.05.56,2.5,1.16,5.55.91,4.62,2.09,10.65,2.36,11.68.12.45.88,2.85,1.88,5.96,2.24,7.03,5.63,17.66,5.35,17.94-.06.06-.12.1-.18.13-.06.03-.11.04-.18.06h-.03ZM122.91,197.92c.29-1.12.58-1.77.81-2.04.15-.18.3-.22.44-.15.11.06.19.2.23.42.08.49-.01,1.49-.38,2.85-.01.05-.03.16-.05.31-.08.61-.23,1.75-.67,2.1-.29.22-.65.17-1.1-.41-.36-.46,0-1.28.34-2.08.15-.36.3-.71.38-1h0ZM119.35,134.33c-1.11.09-4.77-12.04-6.91-21.33-.63-2.74-1.13-5.23-1.4-7.08-.28-1.91-.3-3.18.07-3.41.13-.08.27-.07.44.04.08.05.69,2.74,1.43,6.03,1.05,4.68,2.38,10.6,2.68,11.61.14.48.49,1.49.92,2.76,1.42,4.12,3.76,10.91,2.85,11.36l-.06.02h0ZM126.16,95.39c-.04-1.47.13-2.52.37-3.01.12-.23.26-.36.43-.38.17-.01.33.09.47.33.27.46.51,1.52.61,3.31.94,13.53,4.62,25.27,8.26,36.86.66,2.82,10.88,43.01,7.19,45.57-.23.1-.47-.04-.7-.55-.02-.04-.03-.29-.04-.63-.03-.99-.22-1.2-.14-2.51v-.26c-.09-1.7-.52-11.23-1.32-15.9-1.6-9.37-4.32-17.64-7.01-25.84-3.77-11.48-7.51-22.84-8.12-36.99h0ZM124.24,91.37c.06-.52-.05-.05.03-.23.2-.43.74-.31.91.34.15.56.14.93.3,3.37,1.01,14.97,4.54,25.55,8.19,36.48,2.33,6.99,4.71,14.12,6.51,22.63h0c.08.38,1.66,9.02,1.95,14.42.07,1.3.07,2.42-.05,3.19-.13.87-.42,1.35-.92,1.24-.18-.04-.38-.16-.6-.38-.06-.06-.23-1.71-.47-3.91-.43-3.98-1.05-9.79-1.25-10.88-.97-5.36-2.36-10.49-3.92-15.52,1.03,3.48,2.02,7.16,2.91,11.15.12.53,1.49,7.93,1.76,12.6.07,1.13.07,2.11-.02,2.8-.11.78-.35,1.22-.78,1.16-.13-.02-.28-.09-.44-.22-.08-.07-.44-2.5-.89-5.49-.63-4.24-1.43-9.61-1.69-10.75-1.72-7.7-3.94-14.4-6.12-20.94-3.73-11.21-7.29-21.94-7.86-36.41v-.25c-.06-2.45-.12-4.88-.1-7.34h0c.06-1.86.27-7.47.78-11.92.3-2.63.71-4.86,1.26-5.71.01-.02,0,0,0-.04.11-.41.53-2.02,1.01-2.15.23-.07.44.09.59.61.05.17-.36,3.13-.84,6.59-.6,4.32-1.31,9.43-1.38,10.73-.42,17.48,3.06,29.04,7.1,41.14-3.54-10.95-7.37-24.46-5.99-36.29h0ZM119.39,88.22c.04-1.21.27-7.04.79-11.58.29-2.53.67-4.68,1.16-5.42,0,0,.02-.06.05-.17.15-.44.46-1.4.84-1.51.23-.07.44.08.59.6.14.47-.51,4.63-1.07,8.23-.36,2.31-.69,4.39-.74,5.12-.49,6.97-.38,12.42.27,17.79.65,5.38,1.85,10.69,3.54,17.38.7,2.78,1.25,4.76,1.87,6.74.62,1.98,1.32,3.94,2.33,6.7,1.89,5.26,3.73,10.73,5.19,16.29,1.46,5.56,2.55,11.21,2.94,16.81v.14s-.12.04-.12.04c-.19.05-.36.18-.51.29-.15.11-.28.21-.43.23-.4.05-.66-.48-.98-2.88-1.29-9.66-3.76-17.64-6.4-26.15-.97-3.13-1.96-6.34-2.92-9.7h0c-.56-2-1.12-3.52-1.67-5.01-.73-1.99-1.45-3.92-2.12-6.89-1.07-4.75-1.72-9.09-2.11-13.44-.38-4.35-.5-8.73-.5-13.57h0ZM148.87,147.93c-3.7-13.54-8.96-24.77-11.96-39.36-.45-2.18-.75-4.05-.83-5.39-.09-1.43.09-2.29.63-2.34.15-.01.31.03.49.14.18.11,1.22,5.03,2.21,9.68.77,3.64,1.5,7.11,1.73,7.91,1.42,5.01,2.93,9.77,4.41,14.41,6.01,19.26,11.14,36.37,6.14,58.73-.2.09-.37.13-.57.22-.19.09-.39.19-.58.16-.39-.07-.6-.68-.18-3.03,1.32-7.23,1.92-13.48,1.77-19.7-.18-7.42-1.38-14.56-3.25-21.42h0ZM139.48,127.19c-.36-1.1-4.06-13.88-5.54-22.06-.07-.37-.13-.73-.19-1.08.07.65.13,1.27.19,1.83.09.87.15,1.56.21,1.96,1.66,10.29,4.47,18.81,7.19,27.05,4.5,13.64,8.76,26.52,7.14,45.45-.07.79-.12,1.47-.17,2.11-.23,2.88-.38,4.84-1.18,8.8v.02c-.1.53-1.71,9.31-3.08,9.8-.33.12-.62-.09-.86-.75-.02-.07.19-.98.53-2.43,1.11-4.73,3.57-15.22,3.77-17.76.75-9.46-.04-17.83-1.79-26.03-1.75-8.2-4.48-16.24-7.61-25.02-.37-1.04-.67-1.84-.94-2.57-.7-1.86-1.21-3.23-2.04-6.28l-.04-.16c-.65-3.62-4.97-21.21-3.53-24.27l.09-.11.13.07c.74.39,1.25,2.62,1.61,5.09-.01-.21-.02-.42-.03-.61-.03-1.31.2-2.1.77-2.12.12,0,.26.03.41.1.42.21,1.45,6.31,2.23,10.87.38,2.25.7,4.12.84,4.7.25,1.08.94,3.39,1.68,5.88,1.61,5.4,2.89,10.67,4.56,16.07,1.78,5.75,4.1,13.23,4.4,14.47,1.11,4.58,1.91,8.6,2.4,12.66.49,4.05.66,8.14.5,12.87l-.02.58c-.08,2.88-.34,12.73-1.83,14.62-.33.42-.71.51-1.15.16-.48-.38.26-4.79.94-8.85.45-2.73.88-5.3.91-6.33.5-16.91-3.4-28.45-8.54-43.68-.59-1.75-1.43-3.45-1.95-5.07h0ZM141.43,146.8c-.33-1.17-.96-2.92-1.55-4.57-.39-1.08-.76-2.11-1.02-2.93-.16-.47-.37-1.06-.62-1.7-.7-1.87-1.58-4.22-1.53-5.49,0,0-.56-1.78-1.34-4.23-1.62-5.11-3.9-13.17-4.23-14.63-.41-1.79-2.08-8.74-2.54-13.8-.27-2.98-.2-5.33.62-5.66.26-.11.48.11.67.57,1.1,2.73,1.23,8.44,1.64,11.67,1.33,10.48,4.12,18.9,7.08,27.87,1.03,3.11,2.07,6.28,3.1,9.66.11.37.26.85.42,1.38.7,2.28,1.62,5.27,2.06,7.23,1.17,5.26,1.76,10.65,2.34,15.94.08.71.16,1.42.24,2.17.23,2.08-.13,5.07-.48,7.95-.33,2.69-.64,5.27-.44,6.88.05.38-1.19,8.16-2.52,12.71-.31,1.05-.62,1.93-.92,2.51-.35.67-.71.98-1.08.79-.18-.1-.35-.33-.49-.72-.02-.06.07-.47.24-1.17,2.65-11.21,3.64-16.18,4.25-27.23.06-1.11-.22-3.59-.25-4.18-.22-3.8-.63-7.22-1.24-10.61-.61-3.39-1.41-6.74-2.41-10.4h0ZM138.2,69.35c0-.3.03-4.3.95-5.09.32-.27.71-.23,1.18.32.62.72.1,1.97-.42,3.22-.42,1.01-.84,2.01-.61,2.61.05.14-.24,3.45-.81,5.48-.14.5-.3.93-.48,1.23-.21.35-.45.53-.73.46-.21-.05-.42-.25-.62-.64v-.03c-.07-.16.04-1.79.3-3.42.25-1.62.64-3.26,1.14-3.59l.11-.56h0ZM135.82,69.61s0-.1,0-.23c-.03-.46-.08-1.43.26-2.96.29-1.28.68-2.09,1.02-2.42.17-.16.34-.22.5-.19.16.04.29.17.37.39.17.46.17,1.4-.15,2.84-.04.16-.07.35-.1.56-.12.77-.27,1.69-.86,1.97-.05.29-.04.55-.03.86.02.53.04,1.23-.18,2.52l-.02.18c-.11,1.03-.61,5.83-1.59,6.37-.31.17-.64.03-.96-.57v-.03c-.08-.18.08-2.28.39-4.38.3-2.07.76-4.18,1.29-4.54l.08-.38h0ZM133.31,70.2c-.29-.55.06-3.07.65-4.77.17-.5.37-.94.57-1.24.23-.35.49-.53.77-.48.22.05.43.26.61.7.09.22-.18,2.05-.6,3.64-.28,1.07-.63,2.04-.99,2.4-.05.05.11.37.16.69.04.25.07.46.06.5-.05.29-.14.97-.26,1.84-.4,3.02-1.1,8.34-1.86,8.5-.29.06-.51-.03-.68-.26-.22-.29-.32-.82-.35-1.51-.02-.66.03-1.46.13-2.32.36-3.11,1.4-7.04,1.78-7.69h0ZM147.44,69.85c-.01-.27-.12-3.04.59-3.66.3-.26.68-.21,1.19.36.52.59.16,1.36-.25,2.21-.36.76-.76,1.6-.47,2.33.29.74.18,1.25-.1,1.57-.25.28-.64.4-1,.35-.36-.04-.7-.24-.86-.59-.17-.37-.12-.9.36-1.55.21-.28.32-.31.4-.33,0,0,0,0,.13-.71h0ZM145.19,69.46s0-.13,0-.3c.01-.87.05-3.08.68-3.62.3-.26.68-.21,1.16.36.54.63.19,1.37-.21,2.22-.38.8-.81,1.71-.55,2.69.29,1.08-.09,2.09-.6,2.64-.24.26-.51.43-.75.46-.28.04-.53-.08-.68-.4-.2-.43-.19-1.3.26-2.74.12-.37.23-.42.36-.46.08-.03.16-.06.32-.86h0ZM142.9,69.27h0c0-.3-.05-3.57.75-4.26.31-.27.69-.22,1.18.34.58.67.19,1.51-.25,2.46-.4.86-.85,1.82-.59,2.79.1.36-.17,2.18-.63,3.31-.13.31-.27.57-.42.75-.19.21-.39.31-.63.24-.2-.06-.39-.25-.58-.62-.43-.86.34-2.84.83-4.09.16-.42.29-.75.33-.91h0ZM140.57,69.23c0-.27-.01-3.91.84-4.64.31-.27.7-.23,1.18.33.59.69.11,1.82-.38,2.97-.4.95-.81,1.91-.57,2.53.11.28-.17,2.79-.69,4.34-.13.39-.28.73-.44.96-.19.27-.42.41-.67.36-.21-.05-.42-.25-.62-.64v-.03c-.07-.16,0-1.42.21-2.68.2-1.25.54-2.53,1.01-2.82l.14-.68h0ZM98.87,145.9c-.1-.38,0-.87.23-1.16.1-.12.22-.21.35-.25.14-.04.3-.03.46.05.33.17.69.69.99,1.78h0c1.18,4.31,2.14,8.47,2.81,12.68.67,4.21,1.04,8.46,1.03,12.96l-.21.07.02.03s.05.03.04.05c-.03.03-.08.08-.14.14-.18.2-.42.47-.71.48-.41.01-.81-.57-.89-2.93-.16-4.48-.58-8.31-1.25-12.09-.67-3.78-1.59-7.52-2.75-11.83h0ZM104.54,172.05h-.03s.04.02.05.03l-.02-.03h0ZM102.36,168.93c-.02.27-.1.49-.24.65-.15.16-.35.25-.63.29h-.02c-.25.01-.49-.08-.66-.24-.17-.16-.28-.39-.29-.64-.15-3.4-.45-6.31-.89-9.21-.44-2.89-1.04-5.76-1.79-9.05-.04-.18.06-.75.29-1.08.1-.15.22-.26.37-.29.16-.04.33,0,.51.18.35.34.77,1.26,1.22,3.28.61,2.73,1.08,5.36,1.43,8.01.35,2.65.58,5.31.7,8.1v.02h0ZM138.96,200.94c-.12-.07-.2-.2-.25-.38-.2-.75.15-2.63.64-4.47.48-1.82,1.09-3.61,1.41-4.17.08-.14.17-.23.25-.25.36-.1.62.02.79.29.17.27.23.69.22,1.22-.01.51-.09,1.11-.22,1.76-.51,2.64-1.83,5.99-2.25,6.08-.11.02-.21.02-.3.01-.09-.01-.17-.04-.26-.07h-.03ZM136.61,200.98c-.61-.36-.35-2.34.21-4.01.23-.7.52-1.35.8-1.8.32-.51.67-.78,1-.63.2.09.37.36.49.83,0,.02-.26,2.34-.84,3.97-.15.42-.32.8-.5,1.08-.2.31-.44.52-.7.59-.14.03-.28.03-.42-.02h-.03ZM134.26,201.03c-.62-.36-.45-1.88,0-3.22.21-.62.48-1.21.76-1.62.32-.46.66-.71.98-.57.21.09.38.35.49.82,0,.01-.18,1.8-.64,3.13-.13.37-.28.7-.46.96-.19.28-.41.48-.67.54-.14.03-.29.03-.44-.03h-.03ZM158.42,198.13c-.9-.5.33-5.53,1.07-8.59.23-.94.41-1.69.48-2.06.08-.5.16-1.36.25-2.37.27-3.03.66-7.34,1.82-7.26.14.01.27.08.37.19.38.42.45,1.64.34,3.27-.11,1.6-.41,3.62-.77,5.69-.93,5.25-2.39,10.89-2.7,11.07-.14.08-.28.12-.42.12-.13,0-.26-.02-.4-.07h-.03ZM158.81,148.62c-1.1.01-2.51-5.16-3.43-8.48-.27-.99-.5-1.82-.65-2.28-.09-.28-.31-.87-.6-1.68-1.53-4.24-5.13-14.22-4.16-14.89.51-.35.95-.13,1.34.43.66.95,1.15,2.95,1.51,4.39.14.55.25,1.03.35,1.32.16.47.46,1.35.86,2.5,1.94,5.59,6.07,17.54,5.43,18.35-.09.11-.18.19-.28.24-.1.05-.2.08-.33.1h-.03ZM147.95,124.1h0c.05-.57-3.21-10.25-2.47-11.11.22-.25.56-.22,1.04.2.18.16,2.24,6.99,3.85,12.32.91,3.02,1.68,5.55,1.85,6.08,4.14,12.33,7.1,22.31,8.19,32.46,1.09,10.15.31,20.45-3.04,33.43h-.21s0,.03,0,.03c.02.02.04.05.01.05-.02,0-.1.06-.19.13-.23.16-.52.36-.78.3-.41-.09-.62-.83-.03-3.46,6.02-26.61,1.76-39.49-5.51-61.53-.92-2.77-1.7-5.72-2.72-8.9h0ZM157.17,197.46h-.04s.04.02.05.04v-.04h0ZM144.04,119.42c-.03-.11-.1-.32-.19-.6l-.16-.49c1.08,4.18,2.1,8,2.53,9.32l.58,1.76c7.87,23.81,12.62,38.16,6.82,64.18-.12.02-.28.15-.38.23-.22.17-.5.38-.76.33-.41-.08-.65-.81-.14-3.49,4.62-24.5.11-38.29-5.78-56.31-1.95-5.97-4.05-12.4-6.03-19.85h0c-.05-.2-2.32-8.92-1.39-10.22.2-.28.48-.31.88-.03.08.05.65,2.32,1.45,5.46l.53,2.06c-.1-.6-.16-1.17-.18-1.67-.04-1.23.23-2.06,1.02-2.08h.1s.05.08.05.08c.22.38,1.51,4.91,2.99,10.1,1.62,5.7,3.48,12.19,4.36,14.81,3.97,11.83,6.75,21.57,7.75,31.46,1,9.9.23,19.93-2.91,32.34h-.21s0,.04,0,.04c.03.02.04.05.01.05-.03,0-.11.07-.2.13-.23.16-.51.37-.78.31-.41-.09-.62-.84-.03-3.53,5.73-26.11,1.44-39.15-5.05-58.87-1.55-4.7-3.22-9.78-4.91-15.52h0ZM154.99,196.81h-.04s.03.02.05.04v-.04h0ZM163.24,197.58c-.77-.42-.81-1-.53-1.5.17-.3.46-.57.76-.74.32-.18.67-.24.93-.13.4.17.57.73.07,1.9-.1.24-.27.4-.48.48-.21.09-.47.08-.71,0h-.03ZM149.59,72.66c-.67-.31-.61-1.81-.25-3.2.18-.69.43-1.36.7-1.83.31-.53.66-.83,1-.69.21.09.39.34.52.81,0,.02-.08,1.66-.42,3.01-.11.45-.26.88-.43,1.21-.19.36-.42.61-.71.69-.12.03-.25.04-.38,0h-.03Z"/>
</svg>