<svg xmlns="http://www.w3.org/2000/svg" xmlns:xlink="http://www.w3.org/1999/xlink" width="2000" zoomAndPan="magnify" viewBox="0 0 1500 1499.999933" height="2000" preserveAspectRatio="xMidYMid meet" version="1.2"><g id="d9f8990d8d"><rect x="0" width="1500" y="0" height="1499.999933" style="fill:#ffffff;fill-opacity:1;stroke:none;"/><path style=" stroke:none;fill-rule:nonzero;fill:#000000;fill-opacity:1;" d="M 962.761719 1217.742188 C 962.351562 1217.539062 962.007812 1217.199219 961.734375 1216.789062 C 958.867188 1212.621094 961.871094 1195.890625 965.695312 1180.050781 C 969.453125 1164.410156 974.027344 1149.523438 974.230469 1149.183594 C 974.300781 1149.046875 974.4375 1148.910156 974.574219 1148.773438 C 976.964844 1147.136719 978.875 1146.726562 980.378906 1147.476562 C 982.359375 1148.433594 983.316406 1151.09375 983.449219 1154.988281 C 983.585938 1158.539062 983.179688 1163.113281 982.359375 1168.234375 C 979.148438 1188.515625 969.589844 1217.0625 967.675781 1217.8125 C 966.789062 1218.152344 965.96875 1218.289062 965.21875 1218.289062 C 964.46875 1218.289062 963.785156 1218.085938 962.964844 1217.8125 L 962.761719 1217.8125 Z M 713.785156 322.226562 C 711.191406 332.265625 705.933594 334.722656 700.8125 333.425781 C 697.601562 332.605469 694.460938 330.148438 692.207031 327.074219 C 689.886719 324.003906 688.382812 320.316406 688.382812 316.96875 C 688.382812 311.710938 691.867188 307.339844 701.289062 307.339844 C 701.628906 307.339844 701.902344 307.339844 702.246094 307.339844 C 705.933594 307.613281 708.867188 309.183594 710.847656 311.574219 C 712.828125 313.964844 713.855469 317.175781 713.855469 320.726562 C 713.855469 321.066406 713.855469 321.476562 713.855469 321.953125 L 713.855469 322.160156 Z M 537.878906 785.28125 C 538.699219 784.597656 539.652344 784.941406 540.949219 786.441406 L 540.746094 786.578125 C 540.746094 786.578125 540.949219 786.851562 541.019531 787.058594 C 541.15625 787.058594 541.222656 787.058594 541.222656 787.195312 L 541.15625 787.195312 C 542.25 789.449219 543.75 794.363281 545.730469 800.578125 C 551.742188 819.765625 561.984375 852.542969 564.167969 853.363281 L 564.648438 853.707031 C 576.734375 868.046875 592.304688 961.054688 595.445312 1015.820312 C 596.125 1027.769531 596.195312 1038.011719 595.511719 1045.113281 C 594.761719 1052.898438 592.984375 1057.40625 589.84375 1057.132812 C 588.34375 1056.996094 586.636719 1055.765625 584.792969 1053.171875 C 584.519531 1052.761719 583.835938 1042.382812 582.949219 1028.519531 C 581.308594 1003.527344 578.917969 966.855469 577.824219 959.140625 C 575.300781 942.136719 572.023438 925.542969 568.199219 909.085938 C 564.375 892.628906 560.140625 876.242188 555.769531 859.648438 C 553.925781 852.75 537.878906 785.28125 538.015625 785.214844 Z M 540.335938 787.46875 L 540.269531 787.46875 Z M 638.53125 924.722656 C 638.398438 923.972656 637.78125 921.515625 636.960938 918.03125 C 633.070312 902.054688 623.851562 864.359375 626.652344 862.445312 C 627.46875 861.898438 628.359375 862.171875 629.3125 863.605469 L 629.449219 863.949219 C 633.617188 877.878906 646.316406 933.191406 653.011719 977.304688 C 657.105469 1004.484375 658.882812 1027.5625 654.921875 1034.460938 L 654.648438 1035.007812 L 654.035156 1035.007812 C 651.234375 1035.210938 648.777344 1008.375 646.589844 984.203125 C 645.292969 969.519531 644.0625 955.863281 643.109375 950.195312 C 642.492188 946.507812 641.8125 942.480469 641.128906 938.519531 C 640.308594 933.941406 639.421875 929.164062 638.601562 924.722656 Z M 548.734375 586.703125 C 553.71875 614.292969 556.792969 625.421875 557.40625 632.457031 C 557.886719 637.644531 557.066406 639.148438 555.292969 637.371094 C 554.8125 636.894531 554.128906 634.710938 553.242188 631.089844 C 550.988281 621.257812 546.480469 604.59375 542.929688 575.09375 C 542.65625 572.566406 541.292969 518.417969 546.210938 534.804688 C 546.414062 535.488281 547.78125 580.351562 548.667969 586.703125 Z M 556.929688 635.800781 C 557.339844 636.210938 557.136719 635.9375 556.726562 635.390625 C 556.792969 635.597656 556.863281 635.734375 556.929688 635.800781 Z M 618.117188 904.375 C 612.585938 879.859375 598.039062 833.628906 582.332031 783.710938 C 556.65625 702.175781 527.90625 610.742188 529.820312 586.5 L 529.957031 584.859375 L 531.460938 585.542969 C 531.460938 585.542969 531.730469 585.953125 532.003906 586.636719 L 532.140625 586.636719 C 532.140625 586.636719 532.140625 586.90625 532.140625 586.90625 C 534.53125 593.53125 541.769531 623.238281 548.53125 651.03125 C 554.335938 674.863281 559.796875 697.191406 561.230469 701.835938 C 568.675781 725.804688 576.253906 748.613281 583.699219 770.804688 C 606.847656 840.117188 628.222656 904.167969 637.371094 983.65625 L 635.117188 983.929688 C 634.84375 982.289062 633.273438 975.734375 631.292969 968.019531 C 628.632812 957.367188 625.421875 944.324219 624.328125 938.175781 C 623.917969 935.71875 623.441406 932.917969 622.964844 930.117188 C 621.53125 921.515625 619.960938 912.296875 618.183594 904.441406 Z M 615.726562 960.164062 C 614.90625 960.097656 614.222656 957.023438 613.128906 951.96875 C 608.691406 932.234375 596.605469 878.765625 594.214844 870.367188 C 590.527344 857.121094 582.058594 830.417969 572.023438 798.871094 C 548.667969 725.460938 517.117188 626.171875 518.894531 610.808594 L 519.03125 609.785156 L 520.054688 609.785156 C 520.054688 609.785156 520.464844 610.195312 520.804688 611.011719 L 521.214844 611.011719 C 521.214844 611.011719 521.214844 611.558594 521.214844 611.902344 C 523.8125 618.660156 530.160156 640.855469 537.46875 666.257812 C 548.324219 704.019531 561.230469 749.023438 564.851562 759.8125 C 576.117188 793.136719 586.976562 825.367188 596.261719 857.9375 C 605.550781 890.582031 613.335938 923.699219 618.386719 958.867188 L 618.046875 958.867188 C 617.84375 959.480469 617.296875 960.164062 616 960.234375 L 615.792969 960.234375 Z M 588.207031 927.046875 C 577.007812 864.972656 569.5625 839.636719 549.078125 778.863281 C 537.605469 744.789062 526.0625 710.710938 516.4375 674.863281 C 513.839844 665.300781 512.542969 659.976562 512.132812 657.652344 C 510.632812 649.324219 511.859375 649.9375 514.867188 656.699219 C 515.480469 658.0625 516.503906 660.792969 517.664062 664.210938 C 522.242188 677.25 529.75 700.878906 530.023438 701.628906 C 536.921875 724.371094 544.433594 747.109375 551.875 769.847656 C 568.0625 819.085938 584.175781 868.320312 595.375 918.988281 C 597.355469 921.308594 599.199219 925.542969 600.90625 931.210938 C 606.097656 948.554688 610.058594 979.625 611.695312 1007.214844 C 613.402344 1035.007812 612.652344 1059.453125 608.554688 1063.277344 C 608.214844 1063.621094 607.871094 1063.824219 607.460938 1063.894531 C 603.296875 1065.121094 600.839844 1062.730469 599.472656 1058.226562 C 597.355469 1051.261719 598.105469 1038.96875 598.652344 1029 C 598.925781 1024.21875 599.199219 1019.917969 599.0625 1017.183594 C 598.378906 1001.480469 597.015625 986.660156 595.171875 971.910156 C 593.328125 957.230469 590.9375 942.480469 588.207031 926.976562 Z M 712.417969 977.511719 C 712.417969 977.511719 712.828125 977.167969 713.101562 977.101562 C 714.46875 976.757812 715.425781 978.601562 715.96875 982.152344 C 716.449219 984.953125 716.859375 988.84375 717.199219 993.488281 C 718.90625 1014.726562 719.65625 1051.054688 719.589844 1055.015625 L 719.589844 1055.21875 C 719.453125 1060.207031 718.222656 1118.660156 712.964844 1120.570312 C 711.667969 1121.050781 710.507812 1120.09375 709.550781 1117.363281 C 709.347656 1116.882812 710.097656 1107.117188 711.121094 1094.417969 C 712.828125 1072.839844 715.152344 1042.585938 715.015625 1036.375 C 714.808594 1025.449219 714.125 1014.589844 713.445312 1003.730469 C 712.898438 995.402344 712.417969 987.070312 712.078125 978.535156 L 712.078125 978.054688 C 712.078125 978.054688 712.417969 977.714844 712.417969 977.714844 Z M 625.421875 307.066406 C 629.179688 291.429688 631.976562 281.117188 633.410156 276.679688 C 634.164062 274.425781 634.914062 273.335938 635.597656 273.335938 C 636.621094 273.335938 636.960938 274.632812 636.554688 277.292969 C 635.871094 281.800781 633.683594 291.976562 629.859375 308.230469 C 629.3125 310.550781 628.632812 313.144531 628.015625 315.605469 C 625.492188 325.4375 623.238281 334.109375 624.261719 343.804688 C 624.261719 343.941406 621.050781 370.234375 617.023438 385.597656 C 616.066406 389.21875 615.109375 392.289062 614.085938 394.269531 C 612.789062 396.933594 611.285156 398.027344 609.578125 396.933594 C 608.761719 396.386719 608.007812 395.226562 607.324219 393.3125 C 605.003906 386.484375 616.476562 342.097656 622.417969 318.949219 C 623.78125 313.625 624.875 309.457031 625.421875 307.066406 Z M 693.914062 956.683594 C 693.914062 956.683594 694.324219 956.410156 694.527344 956.410156 C 696.03125 956.066406 697.125 958.253906 697.875 962.144531 C 698.488281 965.355469 699.105469 969.929688 699.648438 975.324219 C 702.109375 999.019531 703.746094 1038.082031 703.746094 1041.222656 C 703.746094 1044.15625 703.609375 1074.75 701.972656 1092.300781 C 701.5625 1096.328125 701.152344 1099.675781 700.539062 1101.859375 C 699.71875 1105.070312 698.488281 1106.367188 696.78125 1105.070312 C 696.234375 1104.660156 695.757812 1103.839844 695.210938 1102.542969 C 695.074219 1102.203125 695.417969 1097.421875 695.824219 1090.25 C 696.988281 1071.542969 699.171875 1036.511719 698.96875 1029.542969 C 698.558594 1013.566406 697.054688 998.132812 695.621094 982.632812 C 694.800781 974.367188 694.050781 966.039062 693.4375 957.773438 L 693.4375 957.160156 C 693.4375 957.160156 693.914062 956.75 693.914062 956.75 Z M 594.488281 397.070312 C 590.460938 395.566406 601.589844 341.960938 609.304688 309.320312 C 611.492188 300.101562 613.402344 292.523438 614.5625 288.289062 C 619.34375 271.082031 620.984375 268.621094 617.636719 288.152344 C 616.75 293.207031 614.359375 305.222656 609.648438 326.804688 C 609.167969 329.054688 607.871094 336.089844 606.371094 344.898438 C 604.457031 355.757812 602.066406 369.277344 600.019531 379.792969 C 598.039062 389.96875 596.125 397.34375 594.761719 397.070312 Z M 687.289062 1084.992188 C 686.742188 1086.632812 686.128906 1087.65625 685.445312 1088.066406 C 684.695312 1088.613281 683.945312 1088.542969 683.261719 1088.066406 C 682.78125 1087.792969 682.375 1087.246094 682.03125 1086.5625 C 681.210938 1084.855469 680.667969 1081.714844 680.871094 1078.847656 C 682.578125 1052.96875 682.917969 1030.363281 681.757812 1007.554688 C 680.597656 984.75 677.933594 961.804688 673.632812 935.445312 L 673.292969 933.261719 L 675.273438 934.285156 C 675.273438 934.285156 675.679688 934.421875 675.886719 934.421875 C 677.660156 934.421875 678.140625 934.421875 679.984375 945.484375 C 683.464844 966.3125 686.605469 993.898438 688.042969 1021.214844 C 689.203125 1043.886719 689.269531 1066.351562 687.289062 1084.789062 Z M 573.113281 429.4375 C 574.546875 413.253906 584.039062 353.433594 590.664062 321.136719 C 592.03125 314.304688 593.328125 308.636719 594.351562 304.949219 C 595.308594 301.46875 596.535156 296.621094 598.175781 292.523438 C 602.957031 277.023438 599.0625 303.585938 598.925781 304.0625 C 596.261719 317.449219 578.441406 407.585938 575.914062 453.40625 C 574.617188 483.25 577.621094 534.394531 579.398438 560.6875 C 579.738281 565.738281 580.078125 569.972656 580.285156 572.910156 C 580.421875 574.683594 580.488281 576.253906 580.558594 577.484375 L 580.625 577.484375 C 580.625 581.242188 579.875 591.960938 578.578125 579.941406 C 578.578125 579.941406 577.960938 579.328125 577.621094 578.714844 C 577.28125 578.167969 576.9375 577.28125 576.597656 576.1875 C 575.027344 571.679688 572.976562 562.871094 572.566406 557.273438 C 571.269531 539.996094 570.792969 519.851562 570.859375 499.296875 C 570.929688 474.984375 571.886719 450.199219 573.113281 429.4375 Z M 653.214844 905.535156 C 653.214844 905.535156 652.804688 905.398438 652.667969 905.332031 L 652.804688 905.671875 Z M 652.667969 905.332031 C 652.667969 905.332031 652.53125 905.261719 652.464844 905.195312 L 652.121094 905.058594 C 652.328125 904.441406 652.667969 903.691406 653.488281 903.488281 C 654.648438 903.214844 656.21875 905.332031 658.542969 916.460938 C 658.679688 917.28125 669.808594 988.164062 672.8125 1031.867188 C 673.496094 1041.769531 673.769531 1050.304688 673.359375 1056.382812 C 672.949219 1063.140625 671.585938 1066.964844 668.851562 1066.625 C 668.238281 1066.554688 667.691406 1066.28125 667.007812 1065.804688 C 666.054688 1065.054688 664.550781 1030.160156 663.664062 1009.46875 C 663.320312 1001.546875 663.046875 995.742188 662.980469 994.855469 C 661.683594 979.285156 660.453125 964.671875 658.679688 950.195312 C 656.902344 935.648438 654.648438 921.242188 651.507812 906.082031 L 652.667969 905.738281 L 652.53125 905.398438 Z M 652.464844 905.195312 C 652.464844 905.195312 652.328125 904.988281 652.464844 904.988281 C 652.804688 904.851562 652.191406 905.125 652.121094 905.125 L 652.464844 905.261719 Z M 555.699219 448.21875 C 556.65625 433.398438 564.238281 376.3125 569.699219 345.375 C 571.679688 334.042969 573.660156 324.140625 577.554688 313.625 C 578.714844 309.527344 580.285156 308.773438 580.078125 310.6875 C 580.148438 310.617188 560.140625 435.652344 559.117188 473.140625 C 558.5 510.972656 566.148438 584.859375 567.035156 593.121094 L 567.035156 593.875 C 567.035156 593.875 567.105469 594.078125 567.105469 594.078125 C 567.035156 594.964844 566.832031 595.582031 566.628906 595.992188 C 565.671875 597.425781 564.714844 597.015625 563.828125 595.171875 C 563.484375 594.417969 563.074219 593.257812 562.667969 591.824219 C 560.890625 585.746094 558.636719 574.34375 558.296875 570.722656 C 556.726562 553.449219 555.769531 533.984375 555.359375 514.25 C 554.882812 491.511719 555.085938 468.5 555.699219 448.285156 Z M 776.882812 1072.496094 C 777.632812 1057.542969 778.25 1049.210938 778.65625 1045.796875 C 780.023438 1033.710938 780.980469 1034.871094 781.527344 1045.523438 C 781.664062 1047.640625 781.664062 1051.804688 781.59375 1057.132812 C 781.390625 1077.414062 780.160156 1115.109375 778.589844 1126.921875 C 775.925781 1146.382812 772.71875 1164.207031 769.507812 1182.234375 C 767.59375 1192.75 765.683594 1203.265625 763.90625 1214.464844 C 761.996094 1226.007812 758.238281 1234.335938 754.960938 1237.957031 C 753.597656 1239.460938 752.300781 1240.210938 751.070312 1240.210938 C 749.636719 1240.210938 748.613281 1239.253906 747.996094 1237.34375 C 747.042969 1234.132812 747.449219 1227.507812 750.320312 1216.789062 C 751.683594 1211.597656 753.1875 1207.023438 754.621094 1202.449219 C 756.941406 1195.210938 759.332031 1187.835938 761.585938 1177.25 C 765.136719 1160.65625 768.757812 1140.851562 771.625 1121.117188 C 774.082031 1104.113281 776.0625 1087.246094 776.882812 1072.566406 Z M 693.367188 297.644531 C 690.976562 296.347656 695.074219 281.050781 698.625 270.738281 C 699.785156 267.324219 700.878906 264.457031 701.628906 262.886719 C 704.15625 257.492188 705.523438 256.808594 704.773438 263.296875 C 704.566406 265.207031 703.542969 269.578125 701.492188 277.363281 C 701.355469 277.976562 701.085938 279.136719 700.742188 280.640625 C 699.992188 283.988281 698.96875 288.765625 697.804688 292.316406 C 696.714844 295.800781 695.28125 298.257812 693.574219 297.710938 L 693.367188 297.710938 Z M 762.679688 1061.777344 C 762.40625 1045.660156 762.746094 1035.757812 763.292969 1031.523438 C 763.636719 1028.863281 764.386719 1027.769531 765.480469 1028.109375 C 766.160156 1028.316406 766.707031 1029.613281 766.980469 1031.933594 C 767.527344 1036.785156 767.800781 1047.574219 767.253906 1063.484375 C 766.84375 1075.84375 766.296875 1087.316406 765.480469 1098.71875 C 764.660156 1110.191406 763.429688 1121.664062 761.585938 1133.957031 C 759.128906 1150.550781 756.261719 1166.527344 753.390625 1182.507812 C 751.410156 1193.433594 749.5 1204.359375 747.722656 1215.082031 C 745.8125 1226.484375 742.125 1234.816406 738.847656 1238.367188 C 737.480469 1239.867188 736.183594 1240.621094 734.953125 1240.621094 C 733.589844 1240.621094 732.496094 1239.664062 731.949219 1237.683594 C 730.992188 1234.40625 731.472656 1227.507812 734.40625 1216.378906 C 735.570312 1212.007812 736.796875 1208.390625 738.09375 1204.566406 C 740.007812 1198.964844 742.054688 1193.09375 743.96875 1184.488281 C 748.132812 1165.710938 753.734375 1138.328125 757.695312 1112.171875 C 760.492188 1093.53125 762.542969 1075.503906 762.542969 1061.914062 Z M 649.253906 446.648438 C 651.03125 418.171875 652.804688 397.890625 655.878906 377.609375 C 658.949219 357.328125 663.390625 336.976562 670.421875 308.570312 C 670.492188 308.230469 670.765625 307.613281 671.242188 306.726562 C 672.539062 304.0625 675.203125 298.53125 676.84375 291.976562 C 680.871094 276.132812 683.398438 267.121094 684.695312 263.296875 C 685.925781 259.539062 687.015625 258.992188 687.835938 261.246094 C 687.972656 261.65625 687.835938 263.023438 687.5625 265.140625 C 686.605469 270.601562 684.011719 282.28125 680.394531 296.960938 C 679.503906 300.511719 678.753906 305.839844 678.003906 311.710938 C 677.183594 317.71875 676.296875 324.140625 675.136719 329.601562 C 635.1875 526.609375 666.121094 622.210938 720.613281 790.8125 C 724.027344 801.398438 727.578125 812.324219 731.199219 823.589844 L 731.199219 823.726562 C 732.085938 826.050781 744.105469 858.621094 740.144531 863.402344 C 738.984375 864.769531 737.140625 864.699219 734.476562 862.445312 C 732.15625 860.535156 716.722656 813.074219 700.332031 760.222656 C 680.53125 696.578125 659.292969 624.945312 657.859375 616.136719 C 654.035156 592.507812 651.371094 563.894531 649.9375 535.011719 C 648.367188 504.074219 648.160156 472.730469 649.324219 446.851562 Z M 746.972656 1048.9375 C 746.222656 1031.730469 746.425781 1021.144531 746.835938 1016.5 C 747.109375 1013.769531 747.859375 1012.542969 748.953125 1012.8125 C 749.703125 1013.019531 750.25 1014.316406 750.59375 1016.773438 C 751.273438 1021.898438 751.820312 1033.300781 751.617188 1050.304688 C 751.617188 1053.582031 749.5 1100.222656 746.222656 1126.71875 C 745.46875 1132.589844 744.71875 1137.507812 743.832031 1140.785156 C 742.738281 1145.085938 741.238281 1146.929688 739.324219 1145.292969 C 738.777344 1144.8125 738.230469 1143.789062 737.753906 1142.21875 C 737.617188 1141.808594 738.4375 1134.5 739.667969 1124.054688 C 742.464844 1099.949219 747.179688 1058.703125 747.042969 1050.441406 L 747.042969 1048.800781 Z M 662.230469 287.265625 C 665.4375 274.835938 667.488281 267.804688 668.578125 264.867188 C 669.742188 261.589844 670.765625 261.246094 671.585938 263.296875 C 671.71875 263.707031 671.652344 264.867188 671.378906 266.640625 C 670.628906 271.285156 668.511719 281.050781 665.4375 293 C 662.773438 303.515625 659.019531 328.375 655.46875 351.726562 C 651.847656 375.832031 648.433594 398.367188 646.660156 401.917969 C 646.589844 402.054688 646.316406 405.332031 645.976562 410.113281 C 644.882812 425.339844 642.699219 455.046875 637.851562 457.09375 C 636.28125 457.777344 634.777344 456.683594 633.34375 453.339844 C 633.207031 453.066406 633.070312 452.65625 633 452.3125 C 631.023438 444.050781 635.117188 409.292969 640.648438 376.3125 C 645.976562 344.421875 652.667969 314.101562 656.492188 310.277344 C 657.378906 306.65625 658.269531 302.902344 659.222656 298.941406 C 660.179688 295.117188 661.136719 291.226562 662.160156 287.265625 Z M 734.886719 1002.84375 C 734.886719 1002.84375 736.117188 1067.855469 733.65625 1105.820312 C 733.109375 1114.21875 732.359375 1121.324219 731.402344 1126.171875 C 730.242188 1131.90625 728.535156 1134.707031 726.078125 1133.410156 C 725.324219 1133 724.644531 1132.179688 723.890625 1130.8125 C 723.6875 1130.40625 724.234375 1125.078125 725.054688 1117.226562 C 726.964844 1099.0625 730.378906 1067.238281 730.378906 1059.933594 L 730.378906 1059.589844 C 730.242188 1054.46875 729.082031 996.699219 732.15625 996.289062 C 733.246094 996.152344 734.136719 998.0625 734.816406 1002.707031 Z M 644.472656 294.296875 C 647.957031 280.640625 650.277344 272.515625 651.4375 269.101562 C 652.394531 266.367188 653.351562 265.6875 654.308594 266.847656 C 654.648438 267.257812 654.648438 268.484375 654.308594 270.398438 C 653.625 274.835938 651.507812 284.53125 648.160156 298.054688 C 647.546875 300.511719 646.933594 302.699219 646.386719 304.746094 C 644.40625 311.710938 643.039062 316.695312 644.132812 324.34375 C 644.132812 324.550781 638.738281 356.507812 634.230469 378.222656 C 631.839844 389.761719 629.449219 398.640625 627.878906 398.914062 C 625.285156 399.390625 623.851562 397.683594 623.238281 394.339844 C 620.640625 379.929688 634.84375 328.78125 641.46875 304.949219 C 642.835938 300.101562 643.859375 296.414062 644.335938 294.296875 Z M 652.601562 268.28125 C 652.601562 268.28125 652.394531 268.074219 652.601562 268.28125 Z M 839.5 1103.910156 C 840.253906 1096.875 841.34375 1094.007812 842.507812 1094.144531 C 844.144531 1094.347656 845.238281 1109.578125 844.417969 1125.488281 C 843.597656 1141.125 841.277344 1157.582031 836.632812 1160.792969 C 834.449219 1162.292969 832.058594 1161.613281 829.464844 1157.789062 C 826.9375 1154.167969 831.992188 1134.570312 835.8125 1119.683594 C 837.65625 1112.445312 839.230469 1106.367188 839.5 1103.910156 Z M 754.417969 301.125 C 756.667969 291.90625 757.96875 286.992188 758.648438 284.941406 C 760.765625 278.457031 761.585938 279 761.449219 284.667969 C 761.449219 285.421875 761.246094 286.992188 760.902344 289.109375 C 759.742188 296.277344 757.078125 309.730469 755.78125 315.46875 L 755.78125 315.605469 C 755.78125 317.3125 755.78125 326.050781 754.6875 330.96875 C 752.367188 341.824219 748.886719 372.28125 745.539062 401.371094 C 741.851562 433.671875 738.300781 464.402344 736.320312 465.765625 C 734.816406 466.792969 733.453125 467.132812 732.222656 466.929688 C 729.355469 466.382812 727.714844 462.761719 727.03125 456.957031 C 726.417969 451.632812 726.488281 444.324219 727.03125 435.925781 C 729.421875 401.03125 740.417969 347.492188 742.671875 344.078125 C 743.421875 342.988281 743.96875 339.09375 744.652344 334.585938 C 745.8125 326.667969 747.246094 317.105469 751.136719 315.125 L 752.707031 308.367188 C 753.1875 306.316406 753.734375 303.996094 754.484375 301.058594 Z M 821.199219 1136.210938 C 819.015625 1135.320312 822.089844 1110.328125 825.023438 1094.417969 C 825.914062 1089.570312 826.730469 1085.539062 827.347656 1083.355469 C 829.257812 1076.664062 830.488281 1075.707031 830.691406 1083.355469 C 830.691406 1086.085938 830.351562 1092.4375 829.121094 1103.976562 C 828.917969 1105.890625 828.097656 1113.949219 826.9375 1121.390625 C 825.707031 1129.449219 823.863281 1136.824219 821.40625 1136.277344 L 821.199219 1136.277344 Z M 740.417969 293.34375 C 742.875 283.78125 744.308594 278.523438 745.0625 276.40625 C 746.90625 271.082031 747.792969 271.421875 747.929688 275.859375 C 747.929688 276.476562 747.792969 277.839844 747.449219 279.683594 C 746.425781 285.761719 744.035156 297.507812 742.191406 305.019531 C 741.851562 306.453125 741.441406 309.867188 740.964844 314.03125 C 740.28125 319.769531 739.460938 326.871094 738.367188 332.128906 C 735.636719 344.832031 731.472656 383.753906 727.785156 418.101562 C 724.4375 449.378906 721.433594 476.898438 719.929688 477.921875 C 718.429688 478.945312 717.0625 479.355469 715.835938 479.152344 C 712.898438 478.671875 711.191406 474.847656 710.4375 468.703125 C 709.757812 463.035156 709.757812 455.320312 710.304688 446.441406 C 712.488281 409.019531 723.550781 351.179688 726.078125 347.289062 C 726.964844 345.921875 727.785156 340.664062 728.742188 334.519531 C 730.378906 324.070312 732.359375 311.300781 736.59375 309.117188 L 738.4375 301.535156 C 739.121094 298.738281 739.804688 296.003906 740.484375 293.410156 Z M 806.449219 1127.671875 C 804.402344 1126.855469 807.269531 1099.8125 810.003906 1082.875 C 810.820312 1077.890625 811.574219 1073.726562 812.117188 1071.40625 C 813.894531 1064.304688 815.125 1063.210938 815.398438 1071.132812 C 815.464844 1073.726562 815.191406 1079.804688 814.304688 1090.730469 C 814.097656 1092.847656 813.28125 1102.269531 812.117188 1111.011719 C 811.574219 1115.246094 810.890625 1119.273438 810.207031 1122.210938 C 809.386719 1125.761719 808.226562 1127.945312 806.792969 1127.808594 L 806.449219 1127.808594 Z M 725.871094 287.878906 C 728.535156 277.636719 730.175781 272.035156 730.925781 269.78125 C 732.972656 263.910156 733.863281 264.320312 733.792969 269.238281 C 733.792969 269.917969 733.589844 271.355469 733.246094 273.335938 C 732.085938 279.890625 729.285156 292.660156 727.375 300.375 L 727.375 300.648438 C 727.167969 302.835938 726.078125 314.375 723.074219 315.671875 C 721.636719 316.285156 720.066406 315.398438 718.496094 311.917969 C 718.15625 311.164062 720.613281 303.789062 722.800781 297.234375 C 724.234375 292.933594 725.53125 288.972656 725.804688 287.878906 Z M 792.042969 1083.96875 C 793 1069.96875 793.75 1062.1875 794.226562 1058.90625 C 795.796875 1047.640625 796.753906 1048.871094 797.164062 1059.042969 C 797.230469 1061.433594 797.164062 1065.875 797.164062 1071.472656 C 796.6875 1093.394531 794.773438 1133.820312 793.066406 1144.128906 L 793.066406 1144.402344 C 792.109375 1150.277344 778.523438 1238.160156 768.757812 1238.640625 C 764.933594 1238.84375 763.292969 1236.25 763.089844 1232.152344 C 762.746094 1224.4375 767.730469 1210.777344 771.078125 1201.695312 C 772.375 1198.144531 773.398438 1195.347656 773.742188 1193.910156 C 777.019531 1179.980469 781.527344 1157.035156 785.351562 1134.367188 C 788.492188 1115.65625 791.085938 1097.148438 792.109375 1084.039062 Z M 708.9375 299.214844 C 706.546875 297.917969 710.4375 283.097656 713.921875 273.0625 C 715.082031 269.714844 716.175781 266.847656 716.925781 265.34375 C 719.453125 260.085938 720.75 259.335938 720.066406 265.6875 C 719.863281 267.53125 718.90625 271.761719 716.859375 279.410156 C 716.722656 280.027344 716.449219 281.1875 716.105469 282.621094 C 715.425781 285.832031 714.398438 290.40625 713.308594 293.886719 C 712.214844 297.4375 710.78125 299.898438 709.074219 299.351562 L 708.867188 299.351562 Z M 768.277344 310.003906 C 769.984375 302.835938 771.011719 298.941406 771.554688 297.304688 C 773.261719 292.523438 774.082031 292.863281 774.289062 297.097656 C 774.289062 297.710938 774.21875 298.941406 774.015625 300.511719 C 773.332031 305.90625 771.488281 316.082031 770.328125 321.40625 C 772.855469 330.285156 762.132812 396.25 758.71875 417.28125 C 758.105469 420.96875 757.761719 423.292969 757.695312 423.566406 L 757.695312 424.113281 C 757.488281 427.390625 756.738281 442.480469 752.4375 446.167969 C 750.523438 447.808594 748.132812 447.601562 745.265625 444.1875 C 743.695312 442.34375 746.769531 404.992188 751.546875 372.554688 C 754.757812 350.636719 758.785156 330.832031 762.472656 325.640625 C 762.472656 325.640625 762.542969 325.300781 762.609375 324.890625 C 762.816406 323.25 763.15625 321 765.957031 320.042969 L 766.296875 318.675781 C 766.980469 315.671875 767.664062 312.667969 768.277344 310.003906 Z M 621.804688 1240.140625 C 617.636719 1237.683594 620.300781 1229.898438 622.28125 1223.957031 C 622.757812 1222.59375 623.167969 1221.363281 623.441406 1220.269531 C 623.441406 1220.269531 624.535156 1220.476562 624.535156 1220.476562 L 624.671875 1219.859375 C 624.671875 1219.859375 624.671875 1219.65625 624.671875 1219.585938 L 624.464844 1219.246094 C 625.148438 1218.90625 626.515625 1218.222656 627.878906 1217.949219 C 629.859375 1217.539062 631.773438 1217.8125 632.386719 1220.339844 C 632.386719 1220.339844 631.703125 1228.054688 629.722656 1233.722656 C 629.179688 1235.363281 628.425781 1236.796875 627.605469 1237.957031 C 626.71875 1239.253906 625.625 1240.140625 624.328125 1240.414062 C 623.578125 1240.550781 622.828125 1240.550781 622.007812 1240.277344 L 621.804688 1240.277344 Z M 624.601562 1220.476562 C 624.601562 1220.476562 624.808594 1220.40625 624.945312 1220.339844 C 624.875 1220.203125 624.808594 1220.066406 624.738281 1219.929688 L 624.535156 1220.476562 Z M 624.671875 1219.65625 C 624.671875 1219.65625 624.671875 1219.382812 624.875 1219.449219 C 625.285156 1219.585938 624.535156 1219.3125 624.464844 1219.3125 Z M 685.992188 1238.84375 C 682.03125 1236.523438 683.808594 1227.578125 686.878906 1219.792969 C 688.65625 1215.421875 690.773438 1211.324219 692.617188 1209.070312 C 695.417969 1205.519531 697.601562 1205.042969 697.875 1210.027344 C 698.078125 1213.441406 696.714844 1221.023438 692.753906 1234.882812 C 692.34375 1236.386719 691.660156 1237.683594 690.636719 1238.503906 C 689.542969 1239.390625 688.109375 1239.59375 686.128906 1238.914062 L 685.925781 1238.914062 Z M 615.65625 594.351562 C 616.886719 597.355469 628.152344 639.96875 636.417969 673.699219 C 641.605469 695.074219 645.636719 712.964844 645.089844 715.289062 L 644.953125 716.039062 L 644.199219 716.175781 C 643.722656 716.242188 643.246094 716.175781 642.765625 716.039062 C 638.398438 714.535156 632.386719 699.855469 626.855469 681.074219 C 621.394531 662.570312 616.203125 640.035156 613.265625 622.210938 C 610.945312 608.28125 610.058594 597.21875 611.492188 593.121094 L 611.96875 591.757812 L 615.246094 593.804688 L 615.726562 594.351562 Z M 669.945312 1239.1875 C 666.1875 1237 667.625 1228.941406 670.492188 1221.773438 C 672.128906 1217.605469 674.246094 1213.644531 676.023438 1211.460938 C 678.753906 1208.046875 680.9375 1207.570312 681.28125 1212.347656 C 681.484375 1215.492188 680.324219 1222.59375 676.636719 1235.429688 C 676.226562 1237 675.476562 1238.160156 674.453125 1238.914062 C 673.359375 1239.664062 671.925781 1239.867188 670.148438 1239.253906 L 669.945312 1239.253906 Z M 653.898438 1239.527344 C 650.140625 1237.34375 652.257812 1230.511719 653.351562 1227.371094 L 653.691406 1226.347656 L 654.238281 1224.503906 C 654.238281 1224.503906 654.375 1224.09375 654.375 1224.09375 C 655.058594 1221.910156 658.472656 1211.53125 661.820312 1210.777344 C 663.457031 1210.4375 664.824219 1211.597656 665.644531 1215.355469 C 665.644531 1215.355469 664.414062 1224.980469 662.023438 1231.8125 C 661.339844 1233.722656 660.523438 1235.5 659.632812 1236.863281 C 658.609375 1238.367188 657.449219 1239.390625 656.152344 1239.730469 C 655.46875 1239.867188 654.785156 1239.867188 654.101562 1239.59375 L 653.898438 1239.59375 Z M 637.851562 1239.800781 C 634.164062 1237.613281 635.460938 1230.035156 638.125 1223.207031 C 639.761719 1219.179688 641.8125 1215.285156 643.585938 1213.167969 C 646.316406 1209.890625 648.503906 1209.34375 648.914062 1213.988281 C 649.1875 1217.0625 648.09375 1223.820312 644.542969 1236.179688 L 644.335938 1236.796875 C 643.859375 1238.09375 643.175781 1239.117188 642.222656 1239.664062 C 641.195312 1240.277344 639.96875 1240.484375 638.535156 1240.003906 L 638.054688 1239.867188 L 637.851562 1239.867188 Z M 663.9375 505.375 C 663.457031 482.976562 664.6875 461.738281 665.984375 440.707031 C 666.804688 427.457031 667.554688 414.210938 667.898438 400.960938 C 667.898438 400.757812 672.609375 367.433594 677.796875 348.109375 C 679.027344 343.601562 680.257812 339.777344 681.484375 337.320312 C 683.054688 334.109375 684.761719 332.878906 686.605469 334.382812 C 687.425781 335.066406 688.109375 336.363281 688.722656 338.546875 C 688.859375 339.027344 685.71875 361.492188 682.441406 385.667969 C 678.753906 412.503906 674.792969 441.320312 674.65625 443.300781 C 670.832031 510.90625 676.570312 568.949219 688.519531 625.695312 C 700.46875 682.511719 718.703125 738.09375 739.871094 800.917969 C 740.757812 803.515625 741.988281 806.382812 743.421875 809.730469 C 745.539062 814.644531 748.066406 820.449219 750.386719 827.6875 C 751.003906 829.601562 751.957031 832.742188 753.1875 836.566406 C 762.953125 867.636719 787.332031 945.003906 775.859375 957.09375 L 775.449219 957.570312 L 774.835938 957.433594 C 766.980469 956.066406 757.96875 911.273438 753.597656 889.28125 C 752.640625 884.570312 751.890625 880.882812 751.480469 879.039062 C 750.457031 874.667969 749.363281 870.164062 748.203125 865.449219 C 747.109375 861.011719 745.949219 856.503906 744.789062 852 C 735.089844 819.628906 725.53125 788.96875 715.628906 758.308594 C 705.726562 727.578125 695.417969 696.78125 684.21875 664.074219 C 678.960938 648.707031 674.792969 625.558594 671.722656 600.90625 C 667.351562 566.558594 664.960938 529.136719 664.074219 505.375 Z M 723.480469 1203.8125 C 725.1875 1196.917969 726.964844 1192.820312 728.398438 1191.113281 C 729.421875 1189.949219 730.378906 1189.679688 731.335938 1190.15625 C 732.085938 1190.566406 732.632812 1191.453125 732.972656 1192.886719 C 733.589844 1196.097656 733.179688 1202.652344 730.855469 1211.871094 C 730.789062 1212.210938 730.652344 1212.894531 730.449219 1213.988281 C 729.285156 1220.339844 726.214844 1237.207031 721.296875 1240.003906 C 719.179688 1241.167969 716.996094 1240.414062 714.808594 1236.453125 C 712.554688 1232.425781 716.925781 1221.292969 720.273438 1212.621094 C 721.707031 1208.933594 722.9375 1205.726562 723.414062 1203.8125 Z M 711.464844 829.257812 C 704.019531 829.738281 669.058594 717.609375 648.980469 634.574219 C 643.3125 611.21875 638.804688 590.1875 636.417969 574.617188 C 633.957031 558.570312 633.753906 548.121094 636.960938 546.414062 C 638.054688 545.867188 639.285156 546.074219 640.648438 547.027344 C 641.195312 547.371094 644.472656 564.101562 648.570312 584.929688 C 654.785156 616.476562 662.84375 657.652344 664.6875 664.6875 C 665.507812 667.761719 670.695312 684.148438 677.523438 705.386719 C 692.820312 753.390625 715.96875 825.980469 714.058594 827.894531 C 713.648438 828.304688 713.238281 828.574219 712.828125 828.78125 C 712.417969 828.984375 712.078125 829.054688 711.601562 829.191406 L 711.394531 829.191406 Z M 704.226562 1216.445312 C 706.207031 1208.796875 708.1875 1204.359375 709.757812 1202.515625 C 710.78125 1201.285156 711.804688 1201.011719 712.761719 1201.492188 C 713.511719 1201.902344 714.058594 1202.855469 714.332031 1204.359375 C 714.878906 1207.707031 714.261719 1214.535156 711.738281 1223.820312 C 711.667969 1224.164062 711.53125 1224.914062 711.394531 1225.9375 C 710.847656 1230.105469 709.824219 1237.886719 706.820312 1240.277344 C 704.839844 1241.78125 702.382812 1241.441406 699.308594 1237.480469 C 696.851562 1234.335938 699.308594 1228.738281 701.628906 1223.273438 C 702.65625 1220.816406 703.679688 1218.425781 704.226562 1216.445312 Z M 679.914062 782.210938 C 672.335938 782.824219 647.34375 699.992188 632.730469 636.554688 C 628.425781 617.84375 625.011719 600.839844 623.167969 588.207031 C 621.257812 575.164062 621.121094 566.492188 623.648438 564.917969 C 624.535156 564.375 625.492188 564.441406 626.652344 565.191406 C 627.199219 565.535156 631.363281 583.902344 636.417969 606.371094 C 643.585938 638.328125 652.667969 678.753906 654.71875 685.652344 C 655.671875 688.929688 658.0625 695.824219 661 704.5 C 670.695312 732.632812 686.675781 779 680.460938 782.074219 L 680.050781 782.210938 Z M 726.417969 516.300781 C 726.144531 506.261719 727.304688 499.089844 728.945312 495.746094 C 729.765625 494.175781 730.722656 493.285156 731.882812 493.148438 C 733.042969 493.082031 734.136719 493.765625 735.089844 495.402344 C 736.933594 498.542969 738.574219 505.78125 739.257812 518.007812 C 745.675781 610.398438 770.804688 690.566406 795.660156 769.710938 C 800.167969 788.96875 869.957031 1063.414062 844.761719 1080.898438 C 843.191406 1081.578125 841.550781 1080.625 839.980469 1077.140625 C 839.84375 1076.867188 839.773438 1075.160156 839.707031 1072.839844 C 839.503906 1066.078125 838.203125 1064.644531 838.75 1055.699219 L 838.75 1053.921875 C 838.136719 1042.3125 835.199219 977.238281 829.738281 945.347656 C 818.8125 881.363281 800.238281 824.886719 781.867188 768.894531 C 756.125 690.5 730.585938 612.925781 726.417969 516.300781 Z M 713.308594 488.847656 C 713.71875 485.296875 712.964844 488.507812 713.511719 487.277344 C 714.878906 484.339844 718.566406 485.160156 719.726562 489.597656 C 720.75 493.421875 720.683594 495.949219 721.773438 512.613281 C 728.671875 614.835938 752.777344 687.085938 777.703125 761.722656 C 793.613281 809.457031 809.867188 858.144531 822.15625 916.257812 C 822.703125 918.851562 833.492188 977.851562 835.472656 1014.726562 C 835.949219 1023.605469 835.949219 1031.25 835.132812 1036.511719 C 834.242188 1042.449219 832.261719 1045.730469 828.847656 1044.976562 C 827.621094 1044.703125 826.253906 1043.886719 824.75 1042.382812 C 824.34375 1041.972656 823.179688 1030.707031 821.542969 1015.683594 C 818.605469 988.503906 814.371094 948.828125 813.007812 941.386719 C 806.382812 904.785156 796.890625 869.753906 786.238281 835.40625 C 793.269531 859.167969 800.03125 884.296875 806.109375 911.542969 C 806.929688 915.164062 816.285156 965.695312 818.128906 997.585938 C 818.605469 1005.304688 818.605469 1011.996094 817.992188 1016.707031 C 817.238281 1022.03125 815.601562 1025.039062 812.664062 1024.628906 C 811.777344 1024.492188 810.753906 1024.011719 809.660156 1023.125 C 809.113281 1022.648438 806.65625 1006.054688 803.582031 985.636719 C 799.28125 956.683594 793.816406 920.011719 792.042969 912.226562 C 780.296875 859.648438 765.136719 813.894531 750.25 769.234375 C 724.78125 692.683594 700.46875 619.414062 696.578125 520.601562 L 696.578125 518.894531 C 696.167969 502.164062 695.757812 485.570312 695.894531 468.769531 C 696.304688 456.070312 697.738281 417.761719 701.21875 387.375 C 703.269531 369.414062 706.070312 354.1875 709.824219 348.382812 C 709.894531 348.246094 709.824219 348.382812 709.824219 348.109375 C 710.574219 345.308594 713.445312 334.3125 716.722656 333.425781 C 718.292969 332.949219 719.726562 334.042969 720.75 337.59375 C 721.09375 338.753906 718.292969 358.964844 715.015625 382.59375 C 710.917969 412.09375 706.070312 446.988281 705.589844 455.863281 C 702.722656 575.230469 726.488281 654.171875 754.074219 736.796875 C 729.902344 662.023438 703.746094 569.769531 713.171875 488.984375 Z M 680.1875 467.335938 C 680.460938 459.074219 682.03125 419.261719 685.582031 388.261719 C 687.5625 370.984375 690.15625 356.304688 693.503906 351.25 C 693.503906 351.25 693.640625 350.839844 693.84375 350.089844 C 694.871094 347.085938 696.988281 340.527344 699.582031 339.777344 C 701.152344 339.300781 702.585938 340.324219 703.609375 343.875 C 704.566406 347.085938 700.128906 375.492188 696.304688 400.074219 C 693.84375 415.847656 691.59375 430.054688 691.25 435.039062 C 687.90625 482.632812 688.65625 519.851562 693.09375 556.519531 C 697.53125 593.257812 705.726562 629.519531 717.269531 675.203125 C 722.046875 694.1875 725.804688 707.707031 730.039062 721.230469 C 734.273438 734.75 739.050781 748.132812 745.949219 766.980469 C 758.855469 802.898438 771.417969 840.253906 781.390625 878.21875 C 791.359375 916.1875 798.804688 954.769531 801.464844 993.011719 L 801.464844 993.96875 C 801.464844 993.96875 800.648438 994.238281 800.648438 994.238281 C 799.347656 994.582031 798.1875 995.46875 797.164062 996.21875 C 796.140625 996.972656 795.253906 997.65625 794.226562 997.789062 C 791.496094 998.132812 789.722656 994.511719 787.535156 978.125 C 778.726562 912.160156 761.859375 857.664062 743.832031 799.554688 C 737.207031 778.179688 730.449219 756.257812 723.890625 733.316406 C 720.066406 719.65625 716.242188 709.277344 712.488281 699.101562 C 707.503906 685.515625 702.585938 672.335938 698.011719 652.054688 C 690.703125 619.617188 686.265625 589.980469 683.601562 560.277344 C 681.007812 530.570312 680.1875 500.660156 680.1875 467.609375 Z M 881.5 875.078125 C 856.230469 782.617188 820.3125 705.933594 799.828125 606.300781 C 796.753906 591.414062 794.707031 578.644531 794.160156 569.496094 C 793.542969 559.730469 794.773438 553.855469 798.460938 553.515625 C 799.484375 553.449219 800.578125 553.71875 801.808594 554.472656 C 803.035156 555.222656 810.136719 588.820312 816.898438 620.574219 C 822.15625 645.429688 827.140625 669.125 828.710938 674.589844 C 838.410156 708.800781 848.71875 741.304688 858.828125 772.992188 C 899.867188 904.511719 934.898438 1021.351562 900.753906 1174.039062 C 899.390625 1174.65625 898.230469 1174.929688 896.863281 1175.542969 C 895.566406 1176.15625 894.199219 1176.839844 892.902344 1176.636719 C 890.238281 1176.15625 888.804688 1171.992188 891.671875 1155.945312 C 900.6875 1106.574219 904.785156 1063.894531 903.761719 1021.417969 C 902.53125 970.75 894.335938 921.992188 881.566406 875.148438 Z M 817.375 733.453125 C 814.917969 725.941406 789.652344 638.667969 779.546875 582.8125 C 779.066406 580.285156 778.65625 577.824219 778.25 575.4375 C 778.726562 579.875 779.136719 584.109375 779.546875 587.933594 C 780.160156 593.875 780.570312 598.585938 780.980469 601.316406 C 792.316406 671.585938 811.503906 729.765625 830.078125 786.03125 C 860.808594 879.175781 889.898438 967.128906 878.835938 1096.398438 C 878.355469 1101.792969 878.015625 1106.4375 877.675781 1110.804688 C 876.105469 1130.472656 875.078125 1143.855469 869.617188 1170.898438 L 869.617188 1171.035156 C 868.933594 1174.65625 857.941406 1234.609375 848.585938 1237.957031 C 846.332031 1238.777344 844.351562 1237.34375 842.710938 1232.835938 C 842.574219 1232.355469 844.007812 1226.144531 846.332031 1216.242188 C 853.910156 1183.941406 870.710938 1112.308594 872.074219 1094.964844 C 877.195312 1030.363281 871.800781 973.207031 859.851562 917.210938 C 847.902344 861.21875 829.257812 806.316406 807.886719 746.359375 C 805.359375 739.257812 803.308594 733.792969 801.464844 728.808594 C 796.6875 716.105469 793.203125 706.75 787.535156 685.925781 L 787.261719 684.832031 C 782.824219 660.113281 753.324219 539.996094 763.15625 519.097656 L 763.773438 518.347656 L 764.660156 518.824219 C 769.710938 521.488281 773.195312 536.71875 775.652344 553.585938 C 775.585938 552.148438 775.515625 550.714844 775.449219 549.417969 C 775.242188 540.472656 776.816406 535.078125 780.707031 534.941406 C 781.527344 534.941406 782.484375 535.148438 783.507812 535.625 C 786.375 537.058594 793.410156 578.714844 798.734375 609.851562 C 801.328125 625.21875 803.515625 637.988281 804.472656 641.949219 C 806.179688 649.324219 810.890625 665.097656 815.941406 682.101562 C 826.9375 718.976562 835.679688 754.960938 847.082031 791.835938 C 859.238281 831.101562 875.078125 882.179688 877.128906 890.648438 C 884.707031 921.925781 890.171875 949.375 893.515625 977.101562 C 896.863281 1004.757812 898.023438 1032.6875 896.929688 1064.984375 L 896.792969 1068.945312 C 896.25 1088.613281 894.472656 1155.875 884.296875 1168.78125 C 882.042969 1171.648438 879.449219 1172.265625 876.445312 1169.875 C 873.167969 1167.28125 878.222656 1137.164062 882.863281 1109.441406 C 885.9375 1090.796875 888.875 1073.25 889.078125 1066.214844 C 892.492188 950.742188 865.859375 871.9375 830.761719 767.9375 C 826.734375 755.988281 820.996094 744.378906 817.445312 733.316406 Z M 830.691406 867.363281 C 828.4375 859.375 824.136719 847.421875 820.109375 836.15625 C 817.445312 828.78125 814.917969 821.746094 813.144531 816.148438 C 812.050781 812.9375 810.617188 808.910156 808.910156 804.539062 C 804.128906 791.769531 798.121094 775.722656 798.460938 767.050781 C 798.460938 767.050781 794.636719 754.894531 789.3125 738.164062 C 778.25 703.269531 762.679688 648.230469 760.425781 638.261719 C 757.625 626.035156 746.222656 578.578125 743.082031 544.023438 C 741.238281 523.675781 741.714844 507.625 747.3125 505.375 C 749.089844 504.621094 750.59375 506.125 751.890625 509.265625 C 759.402344 527.90625 760.289062 566.898438 763.089844 588.957031 C 772.171875 660.523438 791.222656 718.019531 811.4375 779.273438 C 818.46875 800.511719 825.570312 822.15625 832.605469 845.238281 C 833.355469 847.765625 834.378906 851.042969 835.472656 854.660156 C 840.253906 870.230469 846.535156 890.648438 849.539062 904.03125 C 857.53125 939.953125 861.558594 976.757812 865.519531 1012.882812 C 866.066406 1017.730469 866.613281 1022.578125 867.15625 1027.699219 C 868.730469 1041.90625 866.269531 1062.324219 863.878906 1081.988281 C 861.625 1100.359375 859.511719 1117.976562 860.875 1128.96875 C 861.21875 1131.566406 852.75 1184.691406 843.667969 1215.761719 C 841.550781 1222.933594 839.433594 1228.941406 837.386719 1232.902344 C 834.996094 1237.480469 832.535156 1239.59375 830.011719 1238.296875 C 828.78125 1237.613281 827.621094 1236.042969 826.664062 1233.382812 C 826.527344 1232.972656 827.140625 1230.171875 828.304688 1225.390625 C 846.398438 1148.84375 853.160156 1114.902344 857.324219 1039.445312 C 857.734375 1031.867188 855.824219 1014.929688 855.617188 1010.902344 C 854.117188 984.953125 851.316406 961.597656 847.148438 938.449219 C 842.984375 915.300781 837.523438 892.425781 830.691406 867.429688 Z M 808.636719 338.480469 C 808.636719 336.429688 808.839844 309.117188 815.125 303.722656 C 817.308594 301.878906 819.972656 302.152344 823.179688 305.90625 C 827.414062 310.824219 823.863281 319.359375 820.3125 327.894531 C 817.445312 334.792969 814.578125 341.621094 816.148438 345.71875 C 816.488281 346.675781 814.507812 369.277344 810.617188 383.140625 C 809.660156 386.554688 808.566406 389.492188 807.339844 391.539062 C 805.90625 393.929688 804.265625 395.15625 802.355469 394.679688 C 800.917969 394.339844 799.484375 392.972656 798.121094 390.308594 L 798.121094 390.105469 C 797.640625 389.011719 798.394531 377.882812 800.167969 366.75 C 801.875 355.6875 804.539062 344.488281 807.953125 342.234375 L 808.703125 338.410156 Z M 792.382812 340.253906 C 792.382812 340.253906 792.382812 339.574219 792.382812 338.683594 C 792.179688 335.542969 791.835938 328.917969 794.160156 318.472656 C 796.140625 309.730469 798.804688 304.199219 801.125 301.945312 C 802.285156 300.855469 803.445312 300.445312 804.539062 300.648438 C 805.632812 300.921875 806.519531 301.808594 807.066406 303.3125 C 808.226562 306.453125 808.226562 312.871094 806.042969 322.707031 C 805.769531 323.796875 805.5625 325.09375 805.359375 326.53125 C 804.539062 331.789062 803.515625 338.070312 799.484375 339.980469 C 799.144531 341.960938 799.210938 343.738281 799.28125 345.855469 C 799.417969 349.472656 799.554688 354.253906 798.050781 363.0625 L 797.914062 364.292969 C 797.164062 371.324219 793.75 404.105469 787.058594 407.792969 C 784.941406 408.953125 782.6875 407.996094 780.5 403.898438 L 780.5 403.695312 C 779.957031 402.464844 781.046875 388.125 783.164062 373.785156 C 785.214844 359.648438 788.355469 345.242188 791.972656 342.78125 L 792.519531 340.1875 Z M 775.242188 344.285156 C 773.261719 340.527344 775.652344 323.320312 779.683594 311.710938 C 780.84375 308.296875 782.210938 305.292969 783.574219 303.242188 C 785.144531 300.855469 786.921875 299.625 788.832031 299.964844 C 790.335938 300.308594 791.769531 301.742188 793 304.746094 C 793.613281 306.25 791.769531 318.746094 788.902344 329.601562 C 786.988281 336.910156 784.597656 343.53125 782.140625 345.992188 C 781.800781 346.332031 782.890625 348.519531 783.234375 350.703125 C 783.507812 352.410156 783.710938 353.84375 783.644531 354.117188 C 783.300781 356.097656 782.6875 360.742188 781.867188 366.683594 C 779.136719 387.304688 774.355469 423.632812 769.167969 424.726562 C 767.1875 425.136719 765.683594 424.523438 764.523438 422.949219 C 763.019531 420.96875 762.335938 417.351562 762.132812 412.640625 C 761.996094 408.132812 762.335938 402.667969 763.019531 396.796875 C 765.480469 375.558594 772.582031 348.722656 775.175781 344.285156 Z M 871.734375 341.894531 C 871.664062 340.050781 870.914062 321.136719 875.761719 316.902344 C 877.8125 315.125 880.40625 315.46875 883.886719 319.359375 C 887.4375 323.386719 884.980469 328.648438 882.179688 334.449219 C 879.722656 339.640625 876.992188 345.375 878.972656 350.363281 C 880.953125 355.414062 880.199219 358.898438 878.289062 361.082031 C 876.582031 362.996094 873.917969 363.8125 871.460938 363.472656 C 869 363.199219 866.679688 361.835938 865.585938 359.445312 C 864.425781 356.917969 864.769531 353.296875 868.046875 348.859375 C 869.480469 346.949219 870.230469 346.742188 870.777344 346.605469 C 870.777344 346.605469 870.777344 346.605469 871.664062 341.757812 Z M 856.367188 339.230469 C 856.367188 339.230469 856.367188 338.34375 856.367188 337.183594 C 856.4375 331.242188 856.710938 316.148438 861.011719 312.460938 C 863.0625 310.6875 865.65625 311.027344 868.933594 314.921875 C 872.621094 319.222656 870.230469 324.277344 867.5 330.082031 C 864.90625 335.542969 861.96875 341.757812 863.742188 348.449219 C 865.722656 355.824219 863.128906 362.722656 859.644531 366.476562 C 858.007812 368.253906 856.164062 369.414062 854.523438 369.617188 C 852.613281 369.890625 850.90625 369.074219 849.882812 366.886719 C 848.515625 363.949219 848.585938 358.011719 851.65625 348.175781 C 852.476562 345.648438 853.226562 345.308594 854.113281 345.035156 C 854.660156 344.832031 855.207031 344.625 856.300781 339.164062 Z M 840.730469 337.933594 C 840.730469 335.886719 840.390625 313.554688 845.851562 308.84375 C 847.96875 307 850.5625 307.339844 853.910156 311.164062 C 857.871094 315.738281 855.207031 321.476562 852.203125 327.964844 C 849.472656 333.835938 846.398438 340.390625 848.175781 347.015625 C 848.855469 349.472656 847.011719 361.902344 843.871094 369.617188 C 842.984375 371.734375 842.027344 373.511719 841.003906 374.738281 C 839.707031 376.175781 838.339844 376.855469 836.703125 376.378906 C 835.335938 375.96875 834.039062 374.671875 832.742188 372.144531 C 829.804688 366.273438 835.0625 352.75 838.410156 344.214844 C 839.5 341.347656 840.390625 339.09375 840.664062 338 Z M 824.820312 337.660156 C 824.820312 335.816406 824.753906 310.960938 830.554688 305.976562 C 832.671875 304.132812 835.335938 304.40625 838.613281 308.230469 C 842.644531 312.941406 839.367188 320.65625 836.019531 328.511719 C 833.289062 334.996094 830.488281 341.554688 832.125 345.785156 C 832.878906 347.699219 830.964844 364.839844 827.414062 375.421875 C 826.527344 378.085938 825.503906 380.40625 824.410156 381.980469 C 823.113281 383.824219 821.542969 384.777344 819.835938 384.4375 C 818.402344 384.09375 816.96875 382.730469 815.601562 380.066406 L 815.601562 379.863281 C 815.125 378.769531 815.601562 370.164062 817.035156 361.5625 C 818.402344 353.023438 820.722656 344.285156 823.933594 342.304688 L 824.886719 337.660156 Z M 540.0625 861.21875 C 539.378906 858.621094 540.0625 855.277344 541.632812 853.296875 C 542.316406 852.476562 543.136719 851.863281 544.023438 851.589844 C 544.980469 851.316406 546.074219 851.382812 547.164062 851.929688 C 549.417969 853.089844 551.875 856.640625 553.925781 864.085938 C 561.984375 893.515625 568.539062 921.925781 573.113281 950.671875 C 577.6875 979.421875 580.214844 1008.445312 580.148438 1039.171875 L 578.714844 1039.652344 L 578.851562 1039.855469 C 578.851562 1039.855469 579.191406 1040.0625 579.125 1040.199219 C 578.917969 1040.402344 578.578125 1040.742188 578.167969 1041.152344 C 576.9375 1042.519531 575.300781 1044.363281 573.320312 1044.429688 C 570.519531 1044.5 567.789062 1040.539062 567.242188 1024.421875 C 566.148438 993.832031 563.28125 967.675781 558.707031 941.863281 C 554.128906 916.050781 547.847656 890.511719 539.925781 861.082031 Z M 578.78125 1039.789062 L 578.578125 1039.789062 C 578.578125 1039.789062 578.851562 1039.925781 578.917969 1039.992188 Z M 563.894531 1018.480469 C 563.757812 1020.324219 563.210938 1021.828125 562.257812 1022.921875 C 561.230469 1024.011719 559.867188 1024.628906 557.953125 1024.902344 L 557.816406 1024.902344 C 556.109375 1024.96875 554.472656 1024.355469 553.3125 1023.261719 C 552.148438 1022.167969 551.398438 1020.597656 551.332031 1018.890625 C 550.304688 995.675781 548.257812 975.800781 545.253906 956 C 542.25 936.265625 538.152344 916.667969 533.03125 894.199219 C 532.757812 892.96875 533.4375 889.078125 535.011719 886.824219 C 535.691406 885.800781 536.511719 885.050781 537.535156 884.84375 C 538.628906 884.570312 539.789062 884.84375 541.019531 886.074219 C 543.410156 888.394531 546.277344 894.675781 549.351562 908.472656 C 553.515625 927.113281 556.726562 945.074219 559.117188 963.167969 C 561.503906 981.265625 563.074219 999.429688 563.894531 1018.480469 L 563.894531 1018.617188 Z M 813.824219 1237.070312 C 813.007812 1236.589844 812.460938 1235.703125 812.117188 1234.472656 C 810.753906 1229.351562 813.144531 1216.515625 816.488281 1203.949219 C 819.765625 1191.519531 823.933594 1179.296875 826.117188 1175.472656 C 826.664062 1174.519531 827.277344 1173.902344 827.824219 1173.765625 C 830.285156 1173.082031 832.058594 1173.902344 833.21875 1175.746094 C 834.378906 1177.589844 834.789062 1180.457031 834.722656 1184.078125 C 834.652344 1187.5625 834.105469 1191.65625 833.21875 1196.097656 C 829.738281 1214.125 820.722656 1237 817.855469 1237.613281 C 817.105469 1237.75 816.421875 1237.75 815.804688 1237.683594 C 815.191406 1237.613281 814.644531 1237.410156 814.03125 1237.207031 L 813.824219 1237.207031 Z M 797.777344 1237.34375 C 793.613281 1234.882812 795.386719 1221.363281 799.210938 1209.960938 C 800.78125 1205.179688 802.761719 1200.742188 804.675781 1197.667969 C 806.859375 1194.183594 809.25 1192.339844 811.503906 1193.363281 C 812.871094 1193.980469 814.03125 1195.824219 814.851562 1199.03125 C 814.851562 1199.167969 813.074219 1215.011719 809.113281 1226.144531 C 808.089844 1229.011719 806.929688 1231.605469 805.699219 1233.519531 C 804.335938 1235.636719 802.695312 1237.070312 800.917969 1237.546875 C 799.964844 1237.75 799.007812 1237.75 798.050781 1237.410156 L 797.847656 1237.410156 Z M 781.730469 1237.683594 C 777.496094 1235.226562 778.65625 1224.84375 781.730469 1215.695312 C 783.164062 1211.460938 785.007812 1207.433594 786.921875 1204.632812 C 789.105469 1201.492188 791.429688 1199.785156 793.613281 1200.742188 C 795.046875 1201.355469 796.207031 1203.128906 796.960938 1206.339844 C 796.960938 1206.40625 795.730469 1218.632812 792.589844 1227.714844 C 791.699219 1230.242188 790.675781 1232.492188 789.449219 1234.269531 C 788.148438 1236.179688 786.648438 1237.546875 784.871094 1237.957031 C 783.917969 1238.160156 782.890625 1238.160156 781.867188 1237.75 L 781.664062 1237.75 Z M 946.710938 1217.878906 C 940.566406 1214.464844 948.964844 1180.117188 954.019531 1159.222656 C 955.589844 1152.804688 956.820312 1147.679688 957.296875 1145.15625 C 957.84375 1141.742188 958.390625 1135.867188 959.003906 1128.972656 C 960.847656 1108.28125 963.511719 1078.847656 971.433594 1079.394531 C 972.386719 1079.460938 973.277344 1079.941406 973.960938 1080.691406 C 976.554688 1083.558594 977.03125 1091.890625 976.28125 1103.023438 C 975.53125 1113.949219 973.480469 1127.742188 971.023438 1141.878906 C 964.671875 1177.726562 954.703125 1216.242188 952.585938 1217.472656 C 951.628906 1218.015625 950.671875 1218.289062 949.71875 1218.289062 C 948.828125 1218.289062 947.941406 1218.152344 946.984375 1217.8125 L 946.78125 1217.8125 Z M 949.375 879.792969 C 941.863281 879.859375 932.234375 844.554688 925.953125 821.882812 C 924.109375 815.125 922.539062 809.457031 921.515625 806.3125 C 920.898438 804.402344 919.398438 800.375 917.417969 794.84375 C 906.96875 765.886719 882.386719 697.738281 889.011719 693.164062 C 892.492188 690.773438 895.496094 692.273438 898.160156 696.097656 C 902.667969 702.585938 906.011719 716.242188 908.472656 726.078125 C 909.429688 729.832031 910.179688 733.109375 910.863281 735.089844 C 911.953125 738.300781 914.003906 744.308594 916.734375 752.164062 C 929.980469 790.335938 958.183594 871.9375 953.8125 877.46875 C 953.199219 878.21875 952.585938 878.765625 951.902344 879.109375 C 951.21875 879.449219 950.535156 879.65625 949.648438 879.792969 Z M 875.214844 712.351562 C 875.558594 708.460938 853.296875 642.355469 858.347656 636.484375 C 859.851562 634.777344 862.171875 634.980469 865.449219 637.851562 C 866.679688 638.941406 880.746094 685.582031 891.742188 721.980469 C 897.957031 742.601562 903.214844 759.878906 904.375 763.5 C 932.644531 847.695312 952.859375 915.847656 960.300781 985.15625 C 967.746094 1054.46875 962.417969 1124.804688 939.542969 1213.441406 L 938.109375 1213.441406 C 938.109375 1213.441406 938.109375 1213.644531 938.109375 1213.644531 C 938.246094 1213.78125 938.382812 1213.988281 938.175781 1213.988281 C 938.039062 1213.988281 937.492188 1214.398438 936.878906 1214.875 C 935.308594 1215.96875 933.328125 1217.332031 931.554688 1216.925781 C 928.753906 1216.308594 927.320312 1211.257812 931.347656 1193.296875 C 972.457031 1011.585938 943.367188 923.632812 893.722656 773.125 C 887.4375 754.210938 882.113281 734.066406 875.148438 712.351562 Z M 938.175781 1213.304688 L 937.902344 1213.304688 C 937.902344 1213.304688 938.175781 1213.441406 938.246094 1213.578125 L 938.246094 1213.304688 Z M 848.515625 680.394531 C 848.3125 679.640625 847.832031 678.207031 847.21875 676.296875 L 846.125 672.949219 C 853.5 701.492188 860.464844 727.578125 863.402344 736.59375 L 867.363281 748.613281 C 921.105469 911.203125 953.542969 1009.195312 913.933594 1186.878906 C 913.117188 1187.015625 912.023438 1187.902344 911.339844 1188.449219 C 909.835938 1189.609375 907.925781 1191.042969 906.148438 1190.703125 C 903.351562 1190.15625 901.710938 1185.171875 905.195312 1166.871094 C 936.742188 999.566406 905.945312 905.398438 865.722656 782.34375 C 852.40625 741.578125 838.066406 697.667969 824.546875 646.796875 C 824.207031 645.429688 808.703125 585.882812 815.054688 577.007812 C 816.421875 575.09375 818.332031 574.890625 821.0625 576.800781 C 821.609375 577.144531 825.503906 592.644531 830.964844 614.085938 L 834.585938 628.152344 C 833.902344 624.054688 833.492188 620.164062 833.355469 616.75 C 833.082031 608.351562 834.925781 602.683594 840.320312 602.546875 L 841.003906 602.546875 C 841.003906 602.546875 841.347656 603.09375 841.347656 603.09375 C 842.847656 605.6875 851.65625 636.621094 861.761719 672.0625 C 872.824219 710.984375 885.527344 755.304688 891.535156 773.195312 C 918.648438 853.980469 937.628906 920.488281 944.460938 988.027344 C 951.289062 1055.628906 946.03125 1124.121094 924.585938 1208.867188 L 923.152344 1208.867188 C 923.152344 1208.867188 923.152344 1209.140625 923.152344 1209.140625 C 923.359375 1209.277344 923.425781 1209.480469 923.222656 1209.480469 C 923.015625 1209.480469 922.472656 1209.960938 921.855469 1210.367188 C 920.285156 1211.460938 918.375 1212.894531 916.53125 1212.484375 C 913.730469 1211.871094 912.296875 1206.75 916.324219 1188.378906 C 955.453125 1010.082031 926.160156 921.035156 881.839844 786.375 C 871.253906 754.28125 859.851562 719.589844 848.3125 680.394531 Z M 923.289062 1208.867188 L 923.015625 1208.867188 C 923.015625 1208.867188 923.222656 1209.003906 923.359375 1209.140625 L 923.359375 1208.867188 Z M 979.625 1214.125 C 974.367188 1211.257812 974.097656 1207.296875 976.007812 1203.882812 C 977.167969 1201.832031 979.148438 1199.988281 981.199219 1198.828125 C 983.382812 1197.597656 985.773438 1197.1875 987.546875 1197.941406 C 990.28125 1199.101562 991.441406 1202.925781 988.027344 1210.914062 C 987.34375 1212.554688 986.183594 1213.644531 984.75 1214.191406 C 983.3125 1214.808594 981.539062 1214.738281 979.898438 1214.191406 L 979.695312 1214.191406 Z M 886.414062 361.082031 C 881.839844 358.964844 882.25 348.722656 884.707031 339.230469 C 885.9375 334.519531 887.644531 329.945312 889.488281 326.734375 C 891.605469 323.117188 893.996094 321.066406 896.316406 322.023438 C 897.75 322.636719 898.980469 324.34375 899.867188 327.554688 C 899.867188 327.691406 899.320312 338.890625 897 348.109375 C 896.25 351.179688 895.222656 354.117188 894.0625 356.371094 C 892.765625 358.828125 891.195312 360.535156 889.214844 361.082031 C 888.394531 361.289062 887.507812 361.355469 886.621094 361.082031 Z M 886.414062 361.082031 "/></g></svg>