<svg xmlns="http://www.w3.org/2000/svg" xmlns:xlink="http://www.w3.org/1999/xlink" width="2000" zoomAndPan="magnify" viewBox="0 0 1500 1499.999933" height="2000" preserveAspectRatio="xMidYMid meet" version="1.2"><g id="3804ac6caf"><rect x="0" width="1500" y="0" height="1499.999933" style="fill:#ffffff;fill-opacity:1;stroke:none;"/><path style=" stroke:none;fill-rule:nonzero;fill:#000000;fill-opacity:1;" d="M 1062.402344 1436.773438 C 1061.800781 1436.472656 1061.296875 1435.96875 1060.898438 1435.367188 C 1056.6875 1429.253906 1061.097656 1404.6875 1066.710938 1381.429688 C 1072.226562 1358.46875 1078.945312 1336.613281 1079.246094 1336.109375 C 1079.34375 1335.910156 1079.546875 1335.710938 1079.746094 1335.507812 C 1083.253906 1333.101562 1086.0625 1332.5 1088.269531 1333.605469 C 1091.175781 1335.007812 1092.578125 1338.917969 1092.78125 1344.632812 C 1092.980469 1349.847656 1092.378906 1356.5625 1091.175781 1364.082031 C 1086.464844 1393.859375 1072.425781 1435.769531 1069.621094 1436.871094 C 1068.316406 1437.375 1067.113281 1437.574219 1066.011719 1437.574219 C 1064.90625 1437.574219 1063.90625 1437.273438 1062.703125 1436.871094 L 1062.402344 1436.871094 Z M 696.851562 121.957031 C 693.042969 136.695312 685.320312 140.304688 677.800781 138.402344 C 673.089844 137.199219 668.476562 133.585938 665.167969 129.078125 C 661.761719 124.566406 659.554688 119.152344 659.554688 114.238281 C 659.554688 106.519531 664.667969 100.101562 678.503906 100.101562 C 679.003906 100.101562 679.40625 100.101562 679.90625 100.101562 C 685.320312 100.5 689.632812 102.808594 692.539062 106.316406 C 695.445312 109.824219 696.953125 114.539062 696.953125 119.75 C 696.953125 120.253906 696.953125 120.855469 696.953125 121.554688 L 696.953125 121.855469 Z M 438.582031 801.824219 C 439.785156 800.820312 441.1875 801.320312 443.09375 803.527344 L 442.792969 803.726562 C 442.792969 803.726562 443.09375 804.128906 443.191406 804.429688 C 443.394531 804.429688 443.492188 804.429688 443.492188 804.632812 L 443.394531 804.632812 C 444.996094 807.941406 447.203125 815.160156 450.109375 824.28125 C 458.933594 852.457031 473.972656 900.582031 477.179688 901.785156 L 477.882812 902.285156 C 495.628906 923.339844 518.488281 1059.894531 523.097656 1140.304688 C 524.101562 1157.847656 524.203125 1172.886719 523.199219 1183.316406 C 522.097656 1194.746094 519.488281 1201.363281 514.878906 1200.960938 C 512.671875 1200.761719 510.164062 1198.957031 507.460938 1195.144531 C 507.058594 1194.542969 506.054688 1179.304688 504.753906 1158.953125 C 502.347656 1122.253906 498.835938 1068.417969 497.234375 1057.085938 C 493.523438 1032.121094 488.710938 1007.757812 483.097656 983.59375 C 477.480469 959.433594 471.265625 935.371094 464.847656 911.007812 C 462.140625 900.878906 438.578125 801.824219 438.78125 801.722656 Z M 442.191406 805.03125 L 442.089844 805.03125 Z M 586.363281 1006.554688 C 586.164062 1005.453125 585.261719 1001.84375 584.058594 996.730469 C 578.34375 973.269531 564.808594 917.925781 568.917969 915.117188 C 570.121094 914.316406 571.425781 914.71875 572.828125 916.820312 L 573.027344 917.324219 C 579.144531 937.777344 597.792969 1018.988281 607.617188 1083.757812 C 613.632812 1123.660156 616.242188 1157.546875 610.425781 1167.671875 L 610.023438 1168.476562 L 609.121094 1168.476562 C 605.011719 1168.777344 601.402344 1129.375 598.195312 1093.882812 C 596.289062 1072.328125 594.484375 1052.273438 593.082031 1043.953125 C 592.179688 1038.539062 591.175781 1032.621094 590.171875 1026.808594 C 588.96875 1020.089844 587.667969 1013.070312 586.464844 1006.554688 Z M 454.523438 510.265625 C 461.839844 550.769531 466.351562 567.113281 467.253906 577.441406 C 467.957031 585.058594 466.753906 587.265625 464.148438 584.660156 C 463.445312 583.957031 462.441406 580.75 461.136719 575.433594 C 457.828125 560.996094 451.214844 536.535156 446 493.222656 C 445.597656 489.511719 443.59375 410.003906 450.8125 434.066406 C 451.113281 435.070312 453.117188 500.941406 454.421875 510.265625 Z M 466.554688 582.351562 C 467.152344 582.953125 466.851562 582.554688 466.253906 581.75 C 466.351562 582.050781 466.453125 582.253906 466.554688 582.351562 Z M 556.386719 976.675781 C 548.265625 940.683594 526.910156 872.808594 503.851562 799.515625 C 466.152344 679.804688 423.941406 545.558594 426.75 509.964844 L 426.949219 507.558594 L 429.15625 508.5625 C 429.15625 508.5625 429.558594 509.164062 429.957031 510.167969 L 430.160156 510.167969 C 430.160156 510.167969 430.160156 510.566406 430.160156 510.566406 C 433.667969 520.292969 444.296875 563.90625 454.222656 604.710938 C 462.742188 639.703125 470.765625 672.488281 472.871094 679.304688 C 483.796875 714.496094 494.925781 747.984375 505.855469 780.570312 C 539.84375 882.332031 571.226562 976.378906 584.660156 1093.082031 L 581.351562 1093.480469 C 580.949219 1091.074219 578.644531 1081.449219 575.738281 1070.121094 C 571.828125 1054.480469 567.113281 1035.332031 565.511719 1026.308594 C 564.910156 1022.699219 564.207031 1018.585938 563.503906 1014.476562 C 561.398438 1001.84375 559.09375 988.308594 556.488281 976.777344 Z M 552.878906 1058.589844 C 551.671875 1058.488281 550.671875 1053.976562 549.066406 1046.558594 C 542.550781 1017.582031 524.804688 939.078125 521.296875 926.746094 C 515.882812 907.296875 503.449219 868.09375 488.710938 821.773438 C 454.421875 713.996094 408.101562 568.21875 410.707031 545.660156 L 410.910156 544.15625 L 412.414062 544.15625 C 412.414062 544.15625 413.015625 544.753906 413.515625 545.960938 L 414.117188 545.960938 C 414.117188 545.960938 414.117188 546.761719 414.117188 547.261719 C 417.925781 557.1875 427.25 589.773438 437.980469 627.070312 C 453.917969 682.511719 472.871094 748.585938 478.183594 764.425781 C 494.726562 813.355469 510.667969 860.675781 524.304688 908.5 C 537.9375 956.425781 549.367188 1005.050781 556.785156 1056.683594 L 556.285156 1056.683594 C 555.984375 1057.585938 555.183594 1058.589844 553.277344 1058.691406 L 552.976562 1058.691406 Z M 512.472656 1009.964844 C 496.03125 918.828125 485.101562 881.628906 455.023438 792.398438 C 438.179688 742.367188 421.234375 692.339844 407.097656 639.703125 C 403.289062 625.664062 401.382812 617.84375 400.78125 614.4375 C 398.578125 602.207031 400.382812 603.109375 404.792969 613.035156 C 405.695312 615.039062 407.199219 619.050781 408.902344 624.0625 C 415.621094 643.210938 426.648438 677.902344 427.050781 679.003906 C 437.175781 712.390625 448.207031 745.777344 459.132812 779.164062 C 482.894531 851.453125 506.558594 923.738281 523 998.132812 C 525.90625 1001.542969 528.613281 1007.757812 531.121094 1016.078125 C 538.742188 1041.546875 544.554688 1087.164062 546.960938 1127.667969 C 549.46875 1168.476562 548.367188 1204.367188 542.351562 1209.984375 C 541.847656 1210.484375 541.347656 1210.785156 540.746094 1210.886719 C 534.628906 1212.691406 531.019531 1209.179688 529.015625 1202.5625 C 525.90625 1192.335938 527.011719 1174.289062 527.8125 1159.652344 C 528.214844 1152.632812 528.613281 1146.316406 528.414062 1142.308594 C 527.410156 1119.246094 525.40625 1097.492188 522.699219 1075.835938 C 519.992188 1054.28125 516.480469 1032.621094 512.472656 1009.863281 Z M 694.847656 1084.054688 C 694.847656 1084.054688 695.445312 1083.554688 695.847656 1083.453125 C 697.851562 1082.953125 699.257812 1085.660156 700.058594 1090.875 C 700.761719 1094.984375 701.363281 1100.699219 701.863281 1107.515625 C 704.371094 1138.699219 705.472656 1192.039062 705.371094 1197.851562 L 705.371094 1198.152344 C 705.171875 1205.472656 703.367188 1291.292969 695.648438 1294.101562 C 693.742188 1294.804688 692.039062 1293.398438 690.632812 1289.390625 C 690.332031 1288.6875 691.4375 1274.351562 692.941406 1255.703125 C 695.445312 1224.019531 698.855469 1179.605469 698.65625 1170.480469 C 698.355469 1154.4375 697.351562 1138.496094 696.347656 1122.554688 C 695.546875 1110.324219 694.84375 1098.09375 694.34375 1085.558594 L 694.34375 1084.859375 C 694.34375 1084.859375 694.847656 1084.355469 694.847656 1084.355469 Z M 567.113281 99.699219 C 572.628906 76.742188 576.738281 61.601562 578.84375 55.085938 C 579.949219 51.777344 581.050781 50.171875 582.054688 50.171875 C 583.558594 50.171875 584.058594 52.074219 583.457031 55.988281 C 582.453125 62.605469 579.246094 77.542969 573.632812 101.40625 C 572.828125 104.8125 571.824219 108.625 570.925781 112.234375 C 567.214844 126.671875 563.90625 139.402344 565.410156 153.640625 C 565.410156 153.839844 560.695312 192.441406 554.78125 215 C 553.378906 220.3125 551.976562 224.824219 550.472656 227.730469 C 548.566406 231.640625 546.359375 233.246094 543.851562 231.640625 C 542.648438 230.839844 541.546875 229.136719 540.542969 226.328125 C 537.136719 216.300781 553.980469 151.132812 562.703125 117.144531 C 564.707031 109.324219 566.3125 103.210938 567.113281 99.699219 Z M 667.675781 1053.476562 C 667.675781 1053.476562 668.277344 1053.078125 668.578125 1053.078125 C 670.785156 1052.574219 672.386719 1055.785156 673.488281 1061.5 C 674.390625 1066.210938 675.292969 1072.925781 676.097656 1080.847656 C 679.707031 1115.636719 682.113281 1172.988281 682.113281 1177.597656 C 682.113281 1181.910156 681.914062 1226.828125 679.503906 1252.59375 C 678.902344 1258.507812 678.300781 1263.421875 677.398438 1266.628906 C 676.195312 1271.34375 674.390625 1273.246094 671.886719 1271.34375 C 671.082031 1270.742188 670.382812 1269.539062 669.578125 1267.632812 C 669.378906 1267.132812 669.878906 1260.113281 670.480469 1249.585938 C 672.1875 1222.113281 675.394531 1170.679688 675.09375 1160.453125 C 674.492188 1136.992188 672.285156 1114.335938 670.179688 1091.574219 C 668.976562 1079.445312 667.875 1067.210938 666.972656 1055.082031 L 666.972656 1054.179688 C 666.972656 1054.179688 667.675781 1053.578125 667.675781 1053.578125 Z M 521.695312 231.84375 C 515.78125 229.636719 532.125 150.933594 543.453125 103.007812 C 546.660156 89.472656 549.46875 78.34375 551.171875 72.128906 C 558.191406 46.863281 560.597656 43.253906 555.683594 71.929688 C 554.378906 79.347656 550.871094 96.992188 543.953125 128.675781 C 543.25 131.984375 541.347656 142.3125 539.140625 155.246094 C 536.332031 171.183594 532.824219 191.039062 529.816406 206.476562 C 526.910156 221.417969 524.101562 232.246094 522.097656 231.84375 Z M 657.949219 1241.867188 C 657.148438 1244.273438 656.246094 1245.777344 655.242188 1246.378906 C 654.140625 1247.179688 653.039062 1247.078125 652.035156 1246.378906 C 651.332031 1245.976562 650.730469 1245.175781 650.230469 1244.171875 C 649.027344 1241.664062 648.226562 1237.054688 648.527344 1232.84375 C 651.03125 1194.84375 651.535156 1161.65625 649.828125 1128.171875 C 648.125 1094.683594 644.214844 1060.996094 637.898438 1022.296875 L 637.394531 1019.085938 L 640.304688 1020.589844 C 640.304688 1020.589844 640.90625 1020.792969 641.207031 1020.792969 C 643.8125 1020.792969 644.515625 1020.792969 647.222656 1037.035156 C 652.335938 1067.613281 656.945312 1108.117188 659.050781 1148.222656 C 660.757812 1181.507812 660.855469 1214.496094 657.949219 1241.566406 Z M 490.316406 279.367188 C 492.421875 255.605469 506.355469 167.777344 516.082031 120.355469 C 518.085938 110.328125 519.992188 102.003906 521.496094 96.589844 C 522.898438 91.476562 524.703125 84.359375 527.109375 78.34375 C 534.128906 55.585938 528.414062 94.585938 528.214844 95.289062 C 524.304688 114.9375 498.136719 247.285156 494.425781 314.558594 C 492.519531 358.371094 496.929688 433.46875 499.539062 472.066406 C 500.039062 479.484375 500.539062 485.703125 500.839844 490.011719 C 501.042969 492.621094 501.140625 494.925781 501.242188 496.730469 L 501.34375 496.730469 C 501.34375 502.246094 500.242188 517.984375 498.335938 500.339844 C 498.335938 500.339844 497.433594 499.4375 496.929688 498.535156 C 496.429688 497.734375 495.929688 496.429688 495.425781 494.824219 C 493.121094 488.207031 490.113281 475.273438 489.511719 467.054688 C 487.605469 441.6875 486.90625 412.109375 487.007812 381.933594 C 487.105469 346.242188 488.511719 309.84375 490.316406 279.367188 Z M 607.921875 978.382812 C 607.921875 978.382812 607.320312 978.179688 607.117188 978.082031 L 607.316406 978.582031 L 607.917969 978.382812 Z M 607.117188 978.082031 C 607.117188 978.082031 606.917969 977.980469 606.816406 977.878906 L 606.316406 977.679688 C 606.617188 976.777344 607.117188 975.675781 608.320312 975.375 C 610.023438 974.972656 612.332031 978.082031 615.738281 994.421875 C 615.941406 995.625 632.28125 1099.695312 636.695312 1163.863281 C 637.695312 1178.402344 638.097656 1190.933594 637.496094 1199.855469 C 636.894531 1209.78125 634.890625 1215.398438 630.878906 1214.894531 C 629.976562 1214.796875 629.175781 1214.394531 628.171875 1213.691406 C 626.769531 1212.589844 624.5625 1161.355469 623.257812 1130.976562 C 622.757812 1119.347656 622.355469 1110.824219 622.257812 1109.523438 C 620.351562 1086.664062 618.546875 1065.207031 615.941406 1043.953125 C 613.332031 1022.597656 610.027344 1001.441406 605.414062 979.183594 L 607.117188 978.683594 L 606.917969 978.179688 Z M 606.816406 977.878906 C 606.816406 977.878906 606.617188 977.578125 606.816406 977.578125 C 607.320312 977.378906 606.417969 977.78125 606.316406 977.78125 L 606.816406 977.980469 Z M 464.75 306.9375 C 466.152344 285.183594 477.28125 201.363281 485.300781 155.945312 C 488.210938 139.300781 491.117188 124.765625 496.832031 109.324219 C 498.535156 103.308594 500.84375 102.207031 500.542969 105.015625 C 500.640625 104.914062 471.265625 288.492188 469.761719 343.535156 C 468.859375 399.078125 480.089844 507.558594 481.390625 519.691406 L 481.390625 520.792969 C 481.390625 520.792969 481.492188 521.09375 481.492188 521.09375 C 481.390625 522.398438 481.089844 523.300781 480.789062 523.902344 C 479.386719 526.007812 477.984375 525.40625 476.679688 522.699219 C 476.179688 521.59375 475.578125 519.890625 474.976562 517.785156 C 472.367188 508.863281 469.058594 492.117188 468.558594 486.804688 C 466.253906 461.441406 464.847656 432.867188 464.246094 403.890625 C 463.546875 370.503906 463.847656 336.714844 464.75 307.039062 Z M 789.492188 1223.519531 C 790.59375 1201.5625 791.496094 1189.328125 792.097656 1184.316406 C 794.101562 1166.570312 795.507812 1168.273438 796.308594 1183.914062 C 796.511719 1187.023438 796.511719 1193.140625 796.410156 1200.960938 C 796.109375 1230.738281 794.304688 1286.082031 791.996094 1303.425781 C 788.085938 1332 783.375 1358.167969 778.664062 1384.636719 C 775.855469 1400.078125 773.046875 1415.515625 770.441406 1431.960938 C 767.632812 1448.902344 762.121094 1461.136719 757.308594 1466.449219 C 755.300781 1468.65625 753.398438 1469.757812 751.59375 1469.757812 C 749.488281 1469.757812 747.984375 1468.355469 747.082031 1465.546875 C 745.675781 1460.835938 746.277344 1451.109375 750.488281 1435.371094 C 752.496094 1427.75 754.699219 1421.03125 756.804688 1414.3125 C 760.214844 1403.6875 763.722656 1392.859375 767.03125 1377.316406 C 772.246094 1352.957031 777.558594 1323.878906 781.769531 1294.90625 C 785.378906 1269.9375 788.289062 1245.175781 789.492188 1223.621094 Z M 666.875 85.863281 C 663.363281 83.960938 669.378906 61.5 674.59375 46.363281 C 676.296875 41.347656 677.902344 37.136719 679.003906 34.832031 C 682.714844 26.910156 684.71875 25.910156 683.617188 35.433594 C 683.316406 38.242188 681.8125 44.65625 678.804688 56.085938 C 678.605469 56.988281 678.203125 58.695312 677.699219 60.898438 C 676.597656 65.8125 675.09375 72.832031 673.390625 78.042969 C 671.785156 83.15625 669.679688 86.765625 667.171875 85.964844 L 666.871094 85.964844 Z M 768.636719 1207.777344 C 768.238281 1184.117188 768.738281 1169.578125 769.539062 1163.363281 C 770.042969 1159.453125 771.144531 1157.847656 772.75 1158.351562 C 773.75 1158.652344 774.550781 1160.554688 774.953125 1163.964844 C 775.757812 1171.082031 776.15625 1186.921875 775.355469 1210.285156 C 774.753906 1228.429688 773.953125 1245.277344 772.75 1262.019531 C 771.546875 1278.863281 769.742188 1295.707031 767.03125 1313.753906 C 763.421875 1338.117188 759.214844 1361.578125 755.003906 1385.039062 C 752.09375 1401.082031 749.285156 1417.121094 746.679688 1432.863281 C 743.875 1449.605469 738.457031 1461.839844 733.644531 1467.050781 C 731.640625 1469.257812 729.734375 1470.359375 727.929688 1470.359375 C 725.925781 1470.359375 724.320312 1468.957031 723.519531 1466.050781 C 722.117188 1461.238281 722.816406 1451.109375 727.128906 1434.769531 C 728.832031 1428.351562 730.636719 1423.039062 732.542969 1417.421875 C 735.351562 1409.203125 738.359375 1400.578125 741.164062 1387.945312 C 747.28125 1360.375 755.503906 1320.171875 761.316406 1281.769531 C 765.429688 1254.398438 768.4375 1227.929688 768.4375 1207.980469 Z M 602.105469 304.632812 C 604.710938 262.824219 607.316406 233.046875 611.832031 203.269531 C 616.34375 173.492188 622.859375 143.613281 633.1875 101.90625 C 633.285156 101.40625 633.6875 100.503906 634.390625 99.199219 C 636.292969 95.289062 640.203125 87.167969 642.609375 77.542969 C 648.527344 54.28125 652.234375 41.046875 654.140625 35.433594 C 655.945312 29.917969 657.550781 29.117188 658.753906 32.425781 C 658.953125 33.027344 658.753906 35.03125 658.351562 38.140625 C 656.949219 46.160156 653.136719 63.304688 647.824219 84.863281 C 646.519531 90.074219 645.417969 97.894531 644.316406 106.519531 C 643.109375 115.339844 641.808594 124.765625 640.105469 132.785156 C 581.453125 422.039062 626.871094 562.402344 706.875 809.945312 C 711.890625 825.484375 717.101562 841.527344 722.417969 858.070312 L 722.417969 858.269531 C 723.71875 861.679688 741.367188 909.503906 735.550781 916.523438 C 733.847656 918.527344 731.140625 918.425781 727.230469 915.117188 C 723.820312 912.3125 701.160156 842.628906 677.097656 765.027344 C 648.023438 671.585938 616.84375 566.414062 614.738281 553.480469 C 609.125 518.789062 605.214844 476.78125 603.105469 434.371094 C 600.800781 388.953125 600.5 342.933594 602.203125 304.933594 Z M 745.578125 1188.929688 C 744.472656 1163.664062 744.773438 1148.121094 745.375 1141.304688 C 745.777344 1137.296875 746.878906 1135.488281 748.484375 1135.890625 C 749.585938 1136.191406 750.390625 1138.097656 750.890625 1141.707031 C 751.894531 1149.226562 752.695312 1165.96875 752.394531 1190.933594 C 752.394531 1195.746094 749.285156 1264.226562 744.472656 1303.125 C 743.371094 1311.75 742.269531 1318.96875 740.964844 1323.78125 C 739.359375 1330.097656 737.15625 1332.804688 734.347656 1330.398438 C 733.546875 1329.695312 732.742188 1328.191406 732.042969 1325.886719 C 731.839844 1325.285156 733.042969 1314.554688 734.847656 1299.214844 C 738.960938 1263.824219 745.878906 1203.265625 745.675781 1191.136719 L 745.675781 1188.730469 Z M 621.15625 70.625 C 625.867188 52.378906 628.875 42.050781 630.480469 37.738281 C 632.183594 32.925781 633.6875 32.425781 634.890625 35.433594 C 635.089844 36.035156 634.992188 37.738281 634.589844 40.347656 C 633.488281 47.164062 630.378906 61.5 625.867188 79.046875 C 621.957031 94.488281 616.441406 130.980469 611.230469 165.269531 C 605.914062 200.664062 600.902344 233.75 598.296875 238.960938 C 598.195312 239.160156 597.792969 243.976562 597.292969 250.992188 C 595.6875 273.351562 592.480469 316.964844 585.363281 319.972656 C 583.054688 320.972656 580.851562 319.371094 578.746094 314.457031 C 578.542969 314.054688 578.34375 313.453125 578.242188 312.953125 C 575.335938 300.820312 581.351562 249.789062 589.472656 201.363281 C 597.292969 154.542969 607.117188 110.027344 612.734375 104.410156 C 614.035156 99.097656 615.339844 93.582031 616.742188 87.769531 C 618.148438 82.152344 619.550781 76.4375 621.054688 70.625 Z M 727.832031 1121.253906 C 727.832031 1121.253906 729.636719 1216.699219 726.027344 1272.445312 C 725.226562 1284.777344 724.121094 1295.207031 722.71875 1302.324219 C 721.015625 1310.746094 718.507812 1314.855469 714.898438 1312.949219 C 713.796875 1312.347656 712.792969 1311.144531 711.691406 1309.140625 C 711.390625 1308.539062 712.191406 1300.71875 713.394531 1289.1875 C 716.199219 1262.519531 721.214844 1215.796875 721.214844 1205.070312 L 721.214844 1204.570312 C 721.015625 1197.050781 719.308594 1112.230469 723.820312 1111.628906 C 725.425781 1111.425781 726.730469 1114.234375 727.730469 1121.050781 Z M 595.085938 80.953125 C 600.199219 60.898438 603.609375 48.96875 605.3125 43.957031 C 606.71875 39.945312 608.121094 38.941406 609.523438 40.648438 C 610.027344 41.25 610.027344 43.054688 609.523438 45.859375 C 608.523438 52.378906 605.414062 66.613281 600.5 86.464844 C 599.597656 90.074219 598.695312 93.285156 597.894531 96.292969 C 594.984375 106.519531 592.980469 113.835938 594.585938 125.066406 C 594.585938 125.367188 586.664062 172.289062 580.046875 204.171875 C 576.539062 221.117188 573.03125 234.148438 570.722656 234.550781 C 566.914062 235.253906 564.808594 232.746094 563.90625 227.832031 C 560.097656 206.679688 580.949219 131.582031 590.675781 96.59375 C 592.679688 89.472656 594.183594 84.058594 594.886719 80.953125 Z M 607.019531 42.753906 C 607.019531 42.753906 606.71875 42.453125 607.019531 42.753906 Z M 881.429688 1269.636719 C 882.535156 1259.3125 884.136719 1255.101562 885.84375 1255.300781 C 888.25 1255.601562 889.851562 1277.960938 888.648438 1301.320312 C 887.445312 1324.28125 884.035156 1348.441406 877.21875 1353.15625 C 874.011719 1355.359375 870.503906 1354.359375 866.691406 1348.742188 C 862.984375 1343.429688 870.402344 1314.65625 876.015625 1292.796875 C 878.722656 1282.171875 881.027344 1273.246094 881.429688 1269.636719 Z M 756.503906 90.976562 C 759.8125 77.441406 761.71875 70.222656 762.722656 67.214844 C 765.828125 57.691406 767.03125 58.492188 766.832031 66.816406 C 766.832031 67.917969 766.53125 70.222656 766.03125 73.332031 C 764.324219 83.859375 760.414062 103.609375 758.511719 112.03125 L 758.511719 112.234375 C 758.511719 114.738281 758.511719 127.574219 756.90625 134.792969 C 753.496094 150.730469 748.382812 195.449219 743.472656 238.160156 C 738.058594 285.582031 732.84375 330.699219 729.9375 332.703125 C 727.730469 334.207031 725.726562 334.710938 723.921875 334.410156 C 719.710938 333.605469 717.304688 328.292969 716.300781 319.769531 C 715.398438 311.949219 715.5 301.222656 716.300781 288.890625 C 719.808594 237.65625 735.953125 159.054688 739.261719 154.042969 C 740.363281 152.4375 741.164062 146.722656 742.167969 140.105469 C 743.871094 128.472656 745.976562 114.4375 751.691406 111.53125 L 754 101.605469 C 754.699219 98.597656 755.503906 95.1875 756.605469 90.878906 Z M 854.558594 1317.0625 C 851.351562 1315.757812 855.863281 1279.0625 860.175781 1255.703125 C 861.476562 1248.582031 862.679688 1242.667969 863.582031 1239.460938 C 866.390625 1229.636719 868.195312 1228.230469 868.496094 1239.460938 C 868.496094 1243.46875 867.996094 1252.796875 866.191406 1269.738281 C 865.890625 1272.546875 864.6875 1284.378906 862.980469 1295.304688 C 861.175781 1307.136719 858.46875 1317.964844 854.859375 1317.164062 L 854.558594 1317.164062 Z M 735.953125 79.546875 C 739.5625 65.511719 741.667969 57.792969 742.769531 54.683594 C 745.476562 46.863281 746.78125 47.363281 746.980469 53.882812 C 746.980469 54.785156 746.78125 56.789062 746.277344 59.496094 C 744.773438 68.417969 741.265625 85.664062 738.558594 96.691406 C 738.058594 98.796875 737.457031 103.8125 736.753906 109.925781 C 735.75 118.347656 734.546875 128.777344 732.945312 136.496094 C 728.933594 155.144531 722.816406 212.292969 717.402344 262.722656 C 712.492188 308.644531 708.078125 349.046875 705.875 350.550781 C 703.667969 352.054688 701.664062 352.65625 699.859375 352.355469 C 695.546875 351.65625 693.039062 346.039062 691.9375 337.015625 C 690.933594 328.695312 690.933594 317.367188 691.738281 304.332031 C 694.945312 249.390625 711.1875 164.46875 714.898438 158.753906 C 716.199219 156.75 717.402344 149.027344 718.808594 140.003906 C 721.214844 124.664062 724.121094 105.917969 730.335938 102.707031 L 733.042969 91.578125 C 734.046875 87.46875 735.050781 83.457031 736.050781 79.648438 Z M 832.90625 1304.527344 C 829.898438 1303.324219 834.109375 1263.621094 838.117188 1238.757812 C 839.320312 1231.4375 840.425781 1225.324219 841.226562 1221.914062 C 843.832031 1211.488281 845.636719 1209.882812 846.039062 1221.515625 C 846.136719 1225.324219 845.738281 1234.246094 844.433594 1250.289062 C 844.132812 1253.398438 842.929688 1267.234375 841.226562 1280.066406 C 840.421875 1286.28125 839.421875 1292.199219 838.417969 1296.507812 C 837.214844 1301.722656 835.511719 1304.929688 833.40625 1304.730469 L 832.902344 1304.730469 Z M 714.597656 71.527344 C 718.507812 56.488281 720.914062 48.265625 722.015625 44.957031 C 725.023438 36.335938 726.328125 36.9375 726.226562 44.15625 C 726.226562 45.15625 725.925781 47.265625 725.425781 50.171875 C 723.71875 59.796875 719.609375 78.542969 716.800781 89.875 L 716.800781 90.273438 C 716.5 93.484375 714.898438 110.425781 710.484375 112.332031 C 708.382812 113.234375 706.074219 111.929688 703.769531 106.816406 C 703.265625 105.714844 706.875 94.886719 710.085938 85.261719 C 712.191406 78.945312 714.097656 73.128906 714.496094 71.527344 Z M 811.75 1240.363281 C 813.152344 1219.808594 814.257812 1208.378906 814.957031 1203.566406 C 817.265625 1187.023438 818.667969 1188.828125 819.269531 1203.769531 C 819.367188 1207.277344 819.269531 1213.792969 819.269531 1222.015625 C 818.566406 1254.199219 815.757812 1313.554688 813.253906 1328.691406 L 813.253906 1329.09375 C 811.847656 1337.714844 791.898438 1466.75 777.5625 1467.453125 C 771.945312 1467.753906 769.539062 1463.941406 769.238281 1457.929688 C 768.738281 1446.597656 776.054688 1426.546875 780.96875 1413.210938 C 782.875 1407.996094 784.378906 1403.886719 784.878906 1401.78125 C 789.691406 1381.328125 796.308594 1347.640625 801.921875 1314.355469 C 806.535156 1286.882812 810.34375 1259.714844 811.847656 1240.464844 Z M 689.730469 88.171875 C 686.222656 86.265625 691.9375 64.507812 697.050781 49.769531 C 698.757812 44.855469 700.359375 40.648438 701.464844 38.441406 C 705.171875 30.71875 707.078125 29.617188 706.074219 38.941406 C 705.773438 41.648438 704.371094 47.863281 701.363281 59.09375 C 701.164062 59.996094 700.761719 61.699219 700.261719 63.804688 C 699.257812 68.519531 697.753906 75.234375 696.148438 80.347656 C 694.542969 85.5625 692.4375 89.171875 689.933594 88.371094 L 689.632812 88.371094 Z M 776.859375 104.011719 C 779.363281 93.484375 780.867188 87.769531 781.671875 85.363281 C 784.175781 78.34375 785.378906 78.847656 785.679688 85.0625 C 785.679688 85.964844 785.582031 87.769531 785.28125 90.074219 C 784.277344 97.996094 781.570312 112.933594 779.867188 120.753906 C 783.574219 133.789062 767.835938 230.640625 762.824219 261.519531 C 761.921875 266.933594 761.417969 270.34375 761.320312 270.742188 L 761.320312 271.546875 C 761.019531 276.359375 759.914062 298.515625 753.597656 303.929688 C 750.792969 306.335938 747.28125 306.035156 743.070312 301.023438 C 740.765625 298.316406 745.277344 243.472656 752.292969 195.851562 C 757.007812 163.667969 762.921875 134.589844 768.335938 126.972656 C 768.335938 126.972656 768.4375 126.46875 768.539062 125.867188 C 768.839844 123.460938 769.339844 120.152344 773.449219 118.75 L 773.953125 116.746094 C 774.953125 112.332031 775.957031 107.921875 776.859375 104.011719 Z M 561.800781 1469.65625 C 555.683594 1466.046875 559.59375 1454.617188 562.5 1445.894531 C 563.203125 1443.890625 563.804688 1442.085938 564.207031 1440.480469 C 564.207031 1440.480469 565.8125 1440.78125 565.8125 1440.78125 L 566.011719 1439.878906 C 566.011719 1439.878906 566.011719 1439.578125 566.011719 1439.480469 L 565.710938 1438.980469 C 566.710938 1438.476562 568.71875 1437.476562 570.722656 1437.074219 C 573.632812 1436.472656 576.4375 1436.871094 577.339844 1440.582031 C 577.339844 1440.582031 576.339844 1451.914062 573.429688 1460.234375 C 572.628906 1462.640625 571.527344 1464.746094 570.324219 1466.449219 C 569.019531 1468.355469 567.414062 1469.660156 565.511719 1470.058594 C 564.40625 1470.261719 563.304688 1470.261719 562.101562 1469.859375 L 561.800781 1469.859375 Z M 565.910156 1440.78125 C 565.910156 1440.78125 566.210938 1440.683594 566.414062 1440.582031 C 566.3125 1440.382812 566.210938 1440.179688 566.113281 1439.980469 L 565.8125 1440.78125 Z M 566.011719 1439.578125 C 566.011719 1439.578125 566.011719 1439.179688 566.3125 1439.277344 C 566.914062 1439.480469 565.8125 1439.078125 565.710938 1439.078125 Z M 656.046875 1467.753906 C 650.230469 1464.34375 652.835938 1451.210938 657.347656 1439.78125 C 659.953125 1433.363281 663.0625 1427.347656 665.769531 1424.039062 C 669.878906 1418.824219 673.089844 1418.125 673.488281 1425.441406 C 673.789062 1430.457031 671.785156 1441.585938 665.96875 1461.9375 C 665.367188 1464.144531 664.367188 1466.046875 662.863281 1467.25 C 661.257812 1468.554688 659.152344 1468.855469 656.246094 1467.851562 L 655.945312 1467.851562 Z M 552.777344 521.496094 C 554.582031 525.90625 571.125 588.46875 583.257812 637.996094 C 590.875 669.378906 596.792969 695.648438 595.988281 699.054688 L 595.789062 700.160156 L 594.6875 700.359375 C 593.984375 700.460938 593.28125 700.359375 592.582031 700.160156 C 586.164062 697.953125 577.339844 676.398438 569.21875 648.824219 C 561.199219 621.65625 553.578125 588.570312 549.269531 562.402344 C 545.859375 541.949219 544.554688 525.707031 546.660156 519.691406 L 547.363281 517.683594 L 552.175781 520.691406 L 552.878906 521.496094 Z M 632.484375 1468.253906 C 626.96875 1465.046875 629.074219 1453.214844 633.285156 1442.6875 C 635.691406 1436.570312 638.800781 1430.757812 641.40625 1427.546875 C 645.417969 1422.535156 648.625 1421.832031 649.125 1428.851562 C 649.425781 1433.464844 647.722656 1443.890625 642.308594 1462.738281 C 641.707031 1465.046875 640.605469 1466.75 639.101562 1467.851562 C 637.496094 1468.957031 635.390625 1469.257812 632.785156 1468.355469 L 632.484375 1468.355469 Z M 608.921875 1468.753906 C 603.410156 1465.546875 606.515625 1455.519531 608.121094 1450.910156 L 608.621094 1449.40625 L 609.425781 1446.699219 C 609.425781 1446.699219 609.625 1446.097656 609.625 1446.097656 C 610.628906 1442.886719 615.640625 1427.648438 620.550781 1426.546875 C 622.957031 1426.042969 624.964844 1427.75 626.167969 1433.261719 C 626.167969 1433.261719 624.363281 1447.398438 620.851562 1457.425781 C 619.851562 1460.234375 618.648438 1462.839844 617.34375 1464.847656 C 615.839844 1467.050781 614.136719 1468.554688 612.230469 1469.058594 C 611.226562 1469.257812 610.226562 1469.257812 609.222656 1468.855469 L 608.921875 1468.855469 Z M 585.363281 1469.15625 C 579.949219 1465.949219 581.851562 1454.820312 585.761719 1444.792969 C 588.167969 1438.878906 591.175781 1433.164062 593.785156 1430.054688 C 597.792969 1425.242188 601.003906 1424.441406 601.605469 1431.257812 C 602.003906 1435.769531 600.402344 1445.695312 595.1875 1463.84375 L 594.886719 1464.746094 C 594.183594 1466.648438 593.183594 1468.152344 591.777344 1468.957031 C 590.273438 1469.859375 588.46875 1470.160156 586.363281 1469.457031 L 585.664062 1469.257812 L 585.363281 1469.257812 Z M 623.660156 390.855469 C 622.960938 357.972656 624.765625 326.789062 626.667969 295.910156 C 627.871094 276.457031 628.976562 257.007812 629.476562 237.558594 C 629.476562 237.257812 636.394531 188.328125 644.015625 159.957031 C 645.820312 153.339844 647.625 147.726562 649.429688 144.117188 C 651.734375 139.402344 654.242188 137.597656 656.949219 139.804688 C 658.152344 140.808594 659.152344 142.710938 660.054688 145.921875 C 660.253906 146.621094 655.644531 179.609375 650.832031 215.101562 C 645.417969 254.503906 639.601562 296.8125 639.402344 299.71875 C 633.789062 398.976562 642.210938 484.199219 659.753906 567.515625 C 677.300781 650.933594 704.070312 732.542969 735.152344 824.785156 C 736.453125 828.59375 738.257812 832.804688 740.363281 837.714844 C 743.472656 844.933594 747.183594 853.457031 750.589844 864.085938 C 751.492188 866.890625 752.898438 871.503906 754.703125 877.121094 C 769.039062 922.738281 804.832031 1036.332031 787.988281 1054.078125 L 787.386719 1054.78125 L 786.484375 1054.578125 C 774.953125 1052.574219 761.71875 986.804688 755.304688 954.519531 C 753.898438 947.601562 752.796875 942.1875 752.195312 939.480469 C 750.691406 933.066406 749.085938 926.449219 747.382812 919.527344 C 745.777344 913.011719 744.074219 906.394531 742.371094 899.777344 C 728.132812 852.253906 714.097656 807.238281 699.558594 762.21875 C 685.019531 717.101562 669.882812 671.886719 653.4375 623.859375 C 645.71875 601.300781 639.601562 567.3125 635.089844 531.121094 C 628.675781 480.6875 625.164062 425.746094 623.863281 390.855469 Z M 711.089844 1416.320312 C 713.59375 1406.191406 716.203125 1400.175781 718.308594 1397.671875 C 719.8125 1395.964844 721.214844 1395.566406 722.617188 1396.265625 C 723.722656 1396.867188 724.523438 1398.171875 725.023438 1400.277344 C 725.925781 1404.988281 725.324219 1414.613281 721.917969 1428.148438 C 721.816406 1428.652344 721.617188 1429.652344 721.316406 1431.257812 C 719.609375 1440.582031 715.097656 1465.347656 707.878906 1469.457031 C 704.773438 1471.160156 701.5625 1470.058594 698.355469 1464.242188 C 695.046875 1458.328125 701.464844 1441.984375 706.375 1429.253906 C 708.480469 1423.839844 710.285156 1419.125 710.988281 1416.320312 Z M 693.441406 866.390625 C 682.515625 867.09375 631.179688 702.464844 601.703125 580.546875 C 593.382812 546.257812 586.765625 515.378906 583.257812 492.519531 C 579.648438 468.960938 579.347656 453.621094 584.058594 451.113281 C 585.664062 450.3125 587.46875 450.609375 589.472656 452.015625 C 590.273438 452.515625 595.085938 477.078125 601.101562 507.660156 C 610.226562 553.980469 622.058594 614.4375 624.765625 624.765625 C 625.96875 629.273438 633.585938 653.335938 643.613281 684.519531 C 666.070312 755 700.058594 861.578125 697.253906 864.386719 C 696.652344 864.988281 696.050781 865.390625 695.449219 865.691406 C 694.847656 865.992188 694.34375 866.089844 693.644531 866.292969 L 693.34375 866.292969 Z M 682.816406 1434.867188 C 685.722656 1423.636719 688.628906 1417.121094 690.9375 1414.414062 C 692.441406 1412.609375 693.945312 1412.207031 695.347656 1412.910156 C 696.449219 1413.511719 697.253906 1414.914062 697.652344 1417.121094 C 698.457031 1422.035156 697.554688 1432.058594 693.84375 1445.695312 C 693.742188 1446.199219 693.542969 1447.300781 693.34375 1448.804688 C 692.539062 1454.917969 691.035156 1466.347656 686.625 1469.859375 C 683.71875 1472.066406 680.109375 1471.5625 675.597656 1465.75 C 671.988281 1461.136719 675.597656 1452.914062 679.003906 1444.894531 C 680.507812 1441.285156 682.011719 1437.773438 682.816406 1434.867188 Z M 647.121094 797.3125 C 635.992188 798.214844 599.296875 676.597656 577.84375 583.457031 C 571.527344 555.984375 566.511719 531.019531 563.804688 512.472656 C 561 493.320312 560.796875 480.589844 564.507812 478.28125 C 565.8125 477.480469 567.214844 477.582031 568.917969 478.683594 C 569.722656 479.183594 575.835938 506.15625 583.257812 539.140625 C 593.785156 586.0625 607.117188 645.417969 610.125 655.542969 C 611.53125 660.355469 615.039062 670.480469 619.351562 683.214844 C 633.585938 724.523438 657.046875 792.597656 647.925781 797.109375 L 647.324219 797.3125 Z M 715.398438 406.898438 C 715 392.160156 716.703125 381.632812 719.109375 376.71875 C 720.3125 374.414062 721.714844 373.109375 723.421875 372.910156 C 725.125 372.808594 726.730469 373.8125 728.132812 376.21875 C 730.839844 380.832031 733.246094 391.457031 734.25 409.402344 C 743.671875 545.054688 780.570312 662.761719 817.0625 778.964844 C 823.679688 807.238281 926.148438 1210.183594 889.152344 1235.851562 C 886.84375 1236.855469 884.4375 1235.449219 882.132812 1230.335938 C 881.933594 1229.9375 881.832031 1227.429688 881.730469 1224.019531 C 881.429688 1214.09375 879.527344 1211.988281 880.328125 1198.855469 L 880.328125 1196.25 C 879.425781 1179.203125 875.113281 1083.65625 867.09375 1036.835938 C 851.050781 942.890625 823.78125 859.976562 796.8125 777.761719 C 759.011719 662.664062 721.515625 548.765625 715.398438 406.898438 Z M 696.148438 366.59375 C 696.75 361.378906 695.648438 366.089844 696.449219 364.285156 C 698.453125 359.976562 703.867188 361.179688 705.574219 367.695312 C 707.078125 373.308594 706.976562 377.019531 708.582031 401.484375 C 718.707031 551.574219 754.101562 657.648438 790.695312 767.234375 C 814.054688 837.316406 837.917969 908.800781 855.964844 994.125 C 856.765625 997.933594 872.605469 1084.558594 875.515625 1138.699219 C 876.214844 1151.734375 876.214844 1162.960938 875.011719 1170.683594 C 873.710938 1179.402344 870.800781 1184.21875 865.789062 1183.113281 C 863.984375 1182.714844 861.980469 1181.511719 859.773438 1179.304688 C 859.171875 1178.703125 857.46875 1162.160156 855.0625 1140.101562 C 850.75 1100.199219 844.535156 1041.949219 842.527344 1031.019531 C 832.804688 977.277344 818.867188 925.84375 803.226562 875.414062 C 813.554688 910.304688 823.480469 947.199219 832.402344 987.203125 C 833.605469 992.519531 847.339844 1066.710938 850.046875 1113.53125 C 850.75 1124.863281 850.75 1134.6875 849.847656 1141.605469 C 848.746094 1149.425781 846.339844 1153.835938 842.027344 1153.234375 C 840.722656 1153.035156 839.21875 1152.335938 837.617188 1151.03125 C 836.8125 1150.328125 833.203125 1125.964844 828.691406 1095.988281 C 822.375 1053.476562 814.355469 999.636719 811.75 988.207031 C 794.503906 911.007812 772.246094 843.832031 750.390625 778.261719 C 712.992188 665.871094 677.300781 558.289062 671.585938 413.214844 L 671.585938 410.707031 C 670.984375 386.144531 670.382812 361.78125 670.582031 337.117188 C 671.183594 318.46875 673.289062 262.222656 678.402344 217.605469 C 681.410156 191.238281 685.519531 168.878906 691.035156 160.355469 C 691.136719 160.15625 691.035156 160.355469 691.035156 159.957031 C 692.136719 155.84375 696.347656 139.703125 701.160156 138.398438 C 703.46875 137.699219 705.574219 139.300781 707.078125 144.515625 C 707.578125 146.21875 703.46875 175.898438 698.65625 210.585938 C 692.640625 253.898438 685.519531 305.132812 684.820312 318.167969 C 680.609375 493.421875 715.5 609.324219 756.003906 730.636719 C 720.511719 620.851562 682.113281 485.402344 695.949219 366.792969 Z M 647.523438 335.011719 C 647.925781 322.878906 650.230469 264.429688 655.445312 218.910156 C 658.351562 193.542969 662.160156 171.988281 667.074219 164.570312 C 667.074219 164.570312 667.273438 163.96875 667.574219 162.863281 C 669.078125 158.453125 672.1875 148.828125 675.996094 147.726562 C 678.304688 147.023438 680.410156 148.527344 681.914062 153.742188 C 683.316406 158.453125 676.800781 200.160156 671.183594 236.253906 C 667.574219 259.414062 664.265625 280.269531 663.765625 287.585938 C 658.851562 357.46875 659.957031 412.109375 666.472656 465.949219 C 672.988281 519.890625 685.019531 573.128906 701.964844 640.203125 C 708.980469 668.074219 714.496094 687.925781 720.714844 707.777344 C 726.929688 727.628906 733.949219 747.28125 744.074219 774.953125 C 763.023438 827.691406 781.472656 882.53125 796.109375 938.277344 C 810.746094 994.023438 821.675781 1050.667969 825.585938 1106.816406 L 825.585938 1108.21875 C 825.585938 1108.21875 824.382812 1108.621094 824.382812 1108.621094 C 822.476562 1109.121094 820.773438 1110.425781 819.269531 1111.527344 C 817.765625 1112.628906 816.460938 1113.632812 814.957031 1113.832031 C 810.949219 1114.335938 808.339844 1109.019531 805.132812 1084.957031 C 792.199219 988.105469 767.433594 908.097656 740.964844 822.777344 C 731.242188 791.394531 721.316406 759.210938 711.691406 725.523438 C 706.074219 705.472656 700.460938 690.234375 694.945312 675.292969 C 687.628906 655.34375 680.410156 635.992188 673.691406 606.214844 C 662.964844 558.589844 656.445312 515.078125 652.535156 471.464844 C 648.726562 427.851562 647.523438 383.9375 647.523438 335.410156 Z M 943.089844 933.664062 C 905.992188 797.914062 853.257812 685.320312 823.179688 539.039062 C 818.667969 517.183594 815.660156 498.433594 814.855469 485 C 813.953125 470.664062 815.757812 462.039062 821.171875 461.539062 C 822.675781 461.4375 824.28125 461.839844 826.085938 462.941406 C 827.890625 464.046875 838.316406 513.375 848.246094 559.996094 C 855.964844 596.488281 863.285156 631.28125 865.589844 639.300781 C 879.824219 689.53125 894.964844 737.253906 909.804688 783.777344 C 970.058594 976.878906 1021.496094 1148.421875 971.363281 1372.605469 C 969.359375 1373.507812 967.65625 1373.910156 965.648438 1374.8125 C 963.742188 1375.714844 961.738281 1376.714844 959.832031 1376.414062 C 955.921875 1375.714844 953.816406 1369.597656 958.03125 1346.035156 C 971.265625 1273.546875 977.277344 1210.886719 975.777344 1148.523438 C 973.972656 1074.128906 961.9375 1002.542969 943.191406 933.765625 Z M 848.945312 725.726562 C 845.335938 714.699219 808.238281 586.566406 793.402344 504.550781 C 792.699219 500.84375 792.097656 497.234375 791.496094 493.722656 C 792.199219 500.242188 792.800781 506.457031 793.402344 512.070312 C 794.304688 520.792969 794.90625 527.710938 795.507812 531.722656 C 812.152344 634.890625 840.324219 720.3125 867.59375 802.925781 C 912.710938 939.679688 955.421875 1068.816406 939.179688 1258.609375 C 938.480469 1266.53125 937.976562 1273.347656 937.476562 1279.765625 C 935.171875 1308.640625 933.667969 1328.289062 925.644531 1367.992188 L 925.644531 1368.195312 C 924.644531 1373.507812 908.5 1461.535156 894.765625 1466.449219 C 891.457031 1467.652344 888.550781 1465.546875 886.144531 1458.929688 C 885.941406 1458.226562 888.046875 1449.105469 891.457031 1434.566406 C 902.585938 1387.144531 927.25 1281.972656 929.253906 1256.503906 C 936.773438 1161.660156 928.855469 1077.742188 911.308594 995.527344 C 893.761719 913.3125 866.390625 832.703125 835.011719 744.675781 C 831.300781 734.25 828.292969 726.226562 825.585938 718.910156 C 818.566406 700.261719 813.453125 686.523438 805.132812 655.945312 L 804.730469 654.339844 C 798.214844 618.046875 754.902344 441.6875 769.339844 411.007812 L 770.242188 409.90625 L 771.546875 410.609375 C 778.964844 414.519531 784.078125 436.875 787.6875 461.640625 C 787.585938 459.535156 787.488281 457.429688 787.386719 455.523438 C 787.085938 442.390625 789.390625 434.46875 795.105469 434.269531 C 796.308594 434.269531 797.714844 434.570312 799.21875 435.273438 C 803.429688 437.378906 813.753906 498.535156 821.574219 544.253906 C 825.386719 566.8125 828.59375 585.5625 829.996094 591.378906 C 832.503906 602.207031 839.421875 625.367188 846.839844 650.332031 C 862.984375 704.472656 875.816406 757.308594 892.558594 811.449219 C 910.40625 869.097656 933.667969 944.09375 936.675781 956.527344 C 947.804688 1002.445312 955.824219 1042.75 960.738281 1083.457031 C 965.648438 1124.0625 967.355469 1165.066406 965.75 1212.492188 L 965.550781 1218.304688 C 964.746094 1247.179688 962.140625 1345.9375 947.203125 1364.886719 C 943.894531 1369.097656 940.082031 1370 935.671875 1366.492188 C 930.859375 1362.679688 938.277344 1318.464844 945.097656 1277.761719 C 949.609375 1250.390625 953.917969 1224.621094 954.21875 1214.296875 C 959.234375 1044.753906 920.132812 929.054688 868.597656 776.359375 C 862.683594 758.8125 854.261719 741.769531 849.046875 725.527344 Z M 868.496094 922.335938 C 865.1875 910.605469 858.871094 893.058594 852.957031 876.515625 C 849.046875 865.6875 845.335938 855.363281 842.730469 847.140625 C 841.125 842.429688 839.019531 836.515625 836.511719 830.097656 C 829.496094 811.347656 820.671875 787.789062 821.171875 775.054688 C 821.171875 775.054688 815.558594 757.207031 807.738281 732.644531 C 791.496094 681.410156 768.636719 600.601562 765.328125 585.960938 C 761.21875 568.015625 744.472656 498.335938 739.863281 447.601562 C 737.15625 417.726562 737.859375 394.164062 746.078125 390.855469 C 748.683594 389.753906 750.890625 391.957031 752.796875 396.570312 C 763.824219 423.941406 765.128906 481.191406 769.238281 513.574219 C 782.574219 618.648438 810.546875 703.066406 840.222656 793 C 850.550781 824.179688 860.976562 855.964844 871.304688 889.851562 C 872.40625 893.5625 873.910156 898.375 875.515625 903.6875 C 882.535156 926.546875 891.757812 956.527344 896.167969 976.175781 C 907.898438 1028.914062 913.8125 1082.953125 919.628906 1135.992188 C 920.433594 1143.109375 921.234375 1150.226562 922.035156 1157.746094 C 924.339844 1178.601562 920.730469 1208.582031 917.222656 1237.453125 C 913.914062 1264.425781 910.808594 1290.292969 912.8125 1306.433594 C 913.3125 1310.246094 900.882812 1388.246094 887.546875 1433.863281 C 884.4375 1444.390625 881.332031 1453.214844 878.324219 1459.03125 C 874.8125 1465.746094 871.203125 1468.855469 867.496094 1466.949219 C 865.691406 1465.949219 863.984375 1463.640625 862.582031 1459.730469 C 862.378906 1459.128906 863.285156 1455.019531 864.988281 1448 C 891.554688 1335.609375 901.484375 1285.78125 907.597656 1174.992188 C 908.199219 1163.863281 905.394531 1139 905.09375 1133.085938 C 902.886719 1094.984375 898.773438 1060.695312 892.660156 1026.707031 C 886.542969 992.71875 878.523438 959.132812 868.496094 922.4375 Z M 836.113281 145.820312 C 836.113281 142.8125 836.414062 102.707031 845.636719 94.785156 C 848.847656 92.078125 852.757812 92.480469 857.46875 97.996094 C 863.683594 105.214844 858.46875 117.746094 853.257812 130.277344 C 849.046875 140.40625 844.835938 150.433594 847.140625 156.445312 C 847.640625 157.851562 844.734375 191.035156 839.019531 211.390625 C 837.617188 216.402344 836.011719 220.714844 834.207031 223.722656 C 832.101562 227.230469 829.695312 229.035156 826.886719 228.335938 C 824.78125 227.832031 822.679688 225.828125 820.671875 221.917969 L 820.671875 221.617188 C 819.96875 220.011719 821.074219 203.671875 823.679688 187.328125 C 826.1875 171.085938 830.097656 154.644531 835.109375 151.335938 L 836.214844 145.71875 Z M 812.25 148.425781 C 812.25 148.425781 812.25 147.425781 812.25 146.121094 C 811.949219 141.507812 811.449219 131.78125 814.859375 116.445312 C 817.765625 103.609375 821.675781 95.488281 825.085938 92.179688 C 826.789062 90.578125 828.492188 89.976562 830.097656 90.277344 C 831.703125 90.675781 833.003906 91.980469 833.808594 94.1875 C 835.511719 98.796875 835.511719 108.222656 832.304688 122.660156 C 831.902344 124.265625 831.601562 126.167969 831.300781 128.273438 C 830.097656 135.996094 828.59375 145.21875 822.679688 148.027344 C 822.175781 150.933594 822.277344 153.539062 822.378906 156.648438 C 822.578125 161.960938 822.777344 168.980469 820.574219 181.914062 L 820.371094 183.71875 C 819.269531 194.046875 814.257812 242.171875 804.429688 247.585938 C 801.324219 249.289062 798.015625 247.886719 794.804688 241.871094 L 794.804688 241.570312 C 794.003906 239.765625 795.609375 218.710938 798.714844 197.65625 C 801.722656 176.902344 806.335938 155.746094 811.648438 152.136719 L 812.449219 148.328125 Z M 787.085938 154.339844 C 784.179688 148.828125 787.6875 123.5625 793.601562 106.519531 C 795.304688 101.503906 797.3125 97.09375 799.316406 94.085938 C 801.621094 90.578125 804.230469 88.773438 807.039062 89.273438 C 809.242188 89.773438 811.347656 91.878906 813.152344 96.292969 C 814.054688 98.496094 811.347656 116.84375 807.136719 132.785156 C 804.328125 143.515625 800.820312 153.238281 797.210938 156.847656 C 796.710938 157.351562 798.3125 160.558594 798.816406 163.765625 C 799.214844 166.273438 799.519531 168.378906 799.417969 168.78125 C 798.914062 171.6875 798.011719 178.503906 796.808594 187.226562 C 792.800781 217.507812 785.78125 270.84375 778.160156 272.449219 C 775.253906 273.050781 773.050781 272.148438 771.34375 269.84375 C 769.140625 266.933594 768.136719 261.621094 767.835938 254.703125 C 767.632812 248.085938 768.136719 240.066406 769.140625 231.441406 C 772.75 200.261719 783.175781 160.859375 786.984375 154.339844 Z M 928.753906 150.832031 C 928.652344 148.125 927.550781 120.355469 934.667969 114.136719 C 937.675781 111.53125 941.484375 112.03125 946.601562 117.746094 C 951.8125 123.660156 948.203125 131.382812 944.09375 139.902344 C 940.484375 147.523438 936.472656 155.945312 939.378906 163.265625 C 942.289062 170.683594 941.183594 175.796875 938.378906 179.003906 C 935.871094 181.8125 931.960938 183.015625 928.351562 182.515625 C 924.742188 182.113281 921.332031 180.109375 919.730469 176.597656 C 918.023438 172.890625 918.527344 167.574219 923.339844 161.058594 C 925.445312 158.25 926.546875 157.953125 927.347656 157.75 C 927.347656 157.75 927.347656 157.75 928.652344 150.632812 Z M 906.195312 146.921875 C 906.195312 146.921875 906.195312 145.621094 906.195312 143.914062 C 906.292969 135.191406 906.695312 113.035156 913.011719 107.621094 C 916.019531 105.011719 919.828125 105.515625 924.640625 111.230469 C 930.054688 117.546875 926.546875 124.964844 922.535156 133.488281 C 918.726562 141.507812 914.414062 150.632812 917.023438 160.457031 C 919.929688 171.285156 916.121094 181.410156 911.007812 186.925781 C 908.601562 189.535156 905.894531 191.238281 903.488281 191.539062 C 900.679688 191.9375 898.171875 190.734375 896.667969 187.527344 C 894.664062 183.214844 894.765625 174.492188 899.277344 160.054688 C 900.480469 156.347656 901.582031 155.847656 902.886719 155.445312 C 903.6875 155.144531 904.488281 154.84375 906.09375 146.820312 Z M 883.234375 145.015625 C 883.234375 142.007812 882.734375 109.222656 890.753906 102.304688 C 893.863281 99.601562 897.671875 100.101562 902.585938 105.714844 C 908.398438 112.433594 904.488281 120.855469 900.078125 130.378906 C 896.066406 139 891.554688 148.625 894.164062 158.351562 C 895.164062 161.960938 892.457031 180.207031 887.847656 191.539062 C 886.542969 194.644531 885.140625 197.253906 883.636719 199.058594 C 881.730469 201.164062 879.726562 202.164062 877.320312 201.464844 C 875.3125 200.863281 873.410156 198.957031 871.503906 195.246094 C 867.191406 186.625 874.914062 166.773438 879.824219 154.242188 C 881.429688 150.03125 882.734375 146.722656 883.132812 145.117188 Z M 859.875 144.617188 C 859.875 141.910156 859.773438 105.414062 868.296875 98.097656 C 871.40625 95.390625 875.316406 95.789062 880.125 101.40625 C 886.042969 108.324219 881.230469 119.652344 876.316406 131.183594 C 872.304688 140.707031 868.195312 150.332031 870.601562 156.546875 C 871.703125 159.355469 868.898438 184.519531 863.683594 200.0625 C 862.378906 203.972656 860.875 207.378906 859.273438 209.6875 C 857.367188 212.394531 855.0625 213.796875 852.554688 213.296875 C 850.449219 212.792969 848.34375 210.789062 846.339844 206.878906 L 846.339844 206.578125 C 845.636719 204.972656 846.339844 192.339844 848.445312 179.707031 C 850.449219 167.175781 853.859375 154.34375 858.570312 151.433594 L 859.972656 144.617188 Z M 441.789062 913.3125 C 440.785156 909.503906 441.789062 904.589844 444.09375 901.683594 C 445.097656 900.480469 446.300781 899.578125 447.605469 899.175781 C 449.007812 898.773438 450.613281 898.875 452.214844 899.675781 C 455.523438 901.382812 459.132812 906.59375 462.140625 917.523438 C 473.972656 960.734375 483.597656 1002.445312 490.316406 1044.652344 C 497.03125 1086.863281 500.742188 1129.472656 500.640625 1174.59375 L 498.535156 1175.292969 L 498.734375 1175.59375 C 498.734375 1175.59375 499.238281 1175.894531 499.136719 1176.097656 C 498.835938 1176.398438 498.335938 1176.898438 497.734375 1177.5 C 495.929688 1179.503906 493.523438 1182.210938 490.617188 1182.3125 C 486.503906 1182.414062 482.496094 1176.597656 481.691406 1152.9375 C 480.085938 1108.019531 475.878906 1069.621094 469.160156 1031.722656 C 462.441406 993.824219 453.21875 956.324219 441.589844 913.113281 Z M 498.636719 1175.492188 L 498.335938 1175.492188 C 498.335938 1175.492188 498.738281 1175.695312 498.835938 1175.792969 Z M 476.78125 1144.210938 C 476.578125 1146.917969 475.777344 1149.125 474.375 1150.730469 C 472.871094 1152.332031 470.863281 1153.234375 468.058594 1153.636719 L 467.855469 1153.636719 C 465.351562 1153.738281 462.945312 1152.835938 461.238281 1151.230469 C 459.535156 1149.625 458.433594 1147.320312 458.332031 1144.8125 C 456.828125 1110.726562 453.820312 1081.550781 449.410156 1052.472656 C 444.996094 1023.5 438.980469 994.722656 431.460938 961.738281 C 431.0625 959.933594 432.0625 954.21875 434.371094 950.910156 C 435.371094 949.40625 436.574219 948.304688 438.078125 948.003906 C 439.683594 947.601562 441.386719 948.003906 443.191406 949.808594 C 446.703125 953.214844 450.914062 962.441406 455.425781 982.691406 C 461.539062 1010.0625 466.253906 1036.433594 469.761719 1063 C 473.269531 1089.570312 475.578125 1116.238281 476.78125 1144.210938 L 476.78125 1144.414062 Z M 843.734375 1465.144531 C 842.53125 1464.445312 841.726562 1463.140625 841.226562 1461.335938 C 839.222656 1453.816406 842.730469 1434.96875 847.644531 1416.519531 C 852.457031 1398.273438 858.570312 1380.324219 861.78125 1374.710938 C 862.582031 1373.308594 863.484375 1372.40625 864.285156 1372.203125 C 867.894531 1371.203125 870.503906 1372.40625 872.207031 1375.113281 C 873.910156 1377.820312 874.511719 1382.03125 874.414062 1387.34375 C 874.3125 1392.457031 873.511719 1398.472656 872.207031 1404.988281 C 867.09375 1431.457031 853.859375 1465.046875 849.648438 1465.949219 C 848.546875 1466.148438 847.542969 1466.148438 846.640625 1466.046875 C 845.738281 1465.949219 844.9375 1465.648438 844.035156 1465.347656 L 843.734375 1465.347656 Z M 820.171875 1465.546875 C 814.054688 1461.9375 816.660156 1442.085938 822.277344 1425.34375 C 824.582031 1418.324219 827.492188 1411.808594 830.296875 1407.296875 C 833.507812 1402.183594 837.015625 1399.476562 840.324219 1400.980469 C 842.328125 1401.882812 844.035156 1404.589844 845.238281 1409.300781 C 845.238281 1409.5 842.628906 1432.761719 836.816406 1449.105469 C 835.3125 1453.316406 833.605469 1457.125 831.800781 1459.933594 C 829.796875 1463.039062 827.390625 1465.144531 824.785156 1465.847656 C 823.378906 1466.148438 821.976562 1466.148438 820.574219 1465.648438 L 820.273438 1465.648438 Z M 796.609375 1466.046875 C 790.394531 1462.4375 792.097656 1447.199219 796.609375 1433.765625 C 798.714844 1427.546875 801.421875 1421.632812 804.230469 1417.523438 C 807.4375 1412.910156 810.847656 1410.402344 814.054688 1411.808594 C 816.160156 1412.710938 817.863281 1415.316406 818.96875 1420.027344 C 818.96875 1420.128906 817.164062 1438.074219 812.550781 1451.410156 C 811.246094 1455.121094 809.742188 1458.429688 807.9375 1461.035156 C 806.035156 1463.84375 803.828125 1465.847656 801.222656 1466.449219 C 799.816406 1466.75 798.3125 1466.75 796.808594 1466.148438 L 796.507812 1466.148438 Z M 1038.839844 1436.972656 C 1029.816406 1431.960938 1042.148438 1381.527344 1049.566406 1350.851562 C 1051.871094 1341.425781 1053.679688 1333.90625 1054.378906 1330.195312 C 1055.183594 1325.183594 1055.984375 1316.5625 1056.886719 1306.433594 C 1059.59375 1276.054688 1063.503906 1232.84375 1075.132812 1233.644531 C 1076.539062 1233.746094 1077.839844 1234.449219 1078.84375 1235.550781 C 1082.652344 1239.761719 1083.355469 1251.992188 1082.25 1268.335938 C 1081.148438 1284.378906 1078.140625 1304.628906 1074.53125 1325.382812 C 1065.207031 1378.019531 1050.570312 1434.566406 1047.460938 1436.371094 C 1046.058594 1437.175781 1044.652344 1437.574219 1043.25 1437.574219 C 1041.945312 1437.574219 1040.644531 1437.375 1039.242188 1436.875 L 1038.941406 1436.875 Z M 1042.75 940.582031 C 1031.71875 940.683594 1017.585938 888.847656 1008.359375 855.5625 C 1005.652344 845.636719 1003.347656 837.316406 1001.84375 832.703125 C 1000.941406 829.894531 998.734375 823.980469 995.828125 815.859375 C 980.488281 773.347656 944.394531 673.289062 954.121094 666.574219 C 959.230469 663.0625 963.644531 665.269531 967.554688 670.882812 C 974.171875 680.410156 979.082031 700.460938 982.691406 714.898438 C 984.097656 720.414062 985.199219 725.226562 986.203125 728.132812 C 987.808594 732.84375 990.816406 741.667969 994.824219 753.199219 C 1014.273438 809.242188 1055.683594 929.054688 1049.265625 937.175781 C 1048.363281 938.277344 1047.460938 939.082031 1046.457031 939.582031 C 1045.457031 940.082031 1044.453125 940.382812 1043.148438 940.585938 L 1042.847656 940.585938 Z M 933.867188 694.746094 C 934.367188 689.03125 901.683594 591.976562 909.101562 583.355469 C 911.308594 580.847656 914.714844 581.148438 919.527344 585.359375 C 921.332031 586.964844 941.988281 655.441406 958.128906 708.882812 C 967.253906 739.160156 974.972656 764.527344 976.679688 769.839844 C 1018.183594 893.460938 1047.863281 993.519531 1058.792969 1095.285156 C 1069.71875 1197.050781 1061.898438 1300.316406 1028.3125 1430.457031 L 1026.207031 1430.457031 C 1026.207031 1430.457031 1026.207031 1430.757812 1026.207031 1430.757812 C 1026.40625 1430.957031 1026.605469 1431.257812 1026.304688 1431.257812 C 1026.105469 1431.257812 1025.304688 1431.859375 1024.402344 1432.5625 C 1022.09375 1434.164062 1019.1875 1436.171875 1016.582031 1435.570312 C 1012.46875 1434.667969 1010.367188 1427.246094 1016.28125 1400.878906 C 1076.636719 1134.085938 1033.925781 1004.949219 961.039062 783.976562 C 951.8125 756.203125 943.992188 726.628906 933.765625 694.746094 Z M 1026.304688 1430.253906 L 1025.90625 1430.253906 C 1025.90625 1430.253906 1026.304688 1430.457031 1026.40625 1430.65625 L 1026.40625 1430.253906 Z M 894.664062 647.824219 C 894.363281 646.71875 893.660156 644.613281 892.757812 641.808594 L 891.15625 636.894531 C 901.984375 678.804688 912.210938 717.101562 916.519531 730.335938 L 922.335938 747.984375 C 1001.242188 986.703125 1048.863281 1130.578125 990.714844 1391.453125 C 989.511719 1391.65625 987.90625 1392.957031 986.902344 1393.761719 C 984.699219 1395.464844 981.890625 1397.570312 979.285156 1397.070312 C 975.171875 1396.265625 972.769531 1388.949219 977.878906 1362.078125 C 1024.199219 1116.441406 978.984375 978.179688 919.929688 797.511719 C 900.378906 737.65625 879.324219 673.1875 859.472656 598.496094 C 858.972656 596.488281 836.210938 509.0625 845.535156 496.027344 C 847.542969 493.222656 850.347656 492.921875 854.359375 495.726562 C 855.164062 496.230469 860.875 518.988281 868.898438 550.46875 L 874.210938 571.125 C 873.207031 565.109375 872.605469 559.394531 872.40625 554.378906 C 872.007812 542.046875 874.714844 533.726562 882.632812 533.527344 L 883.636719 533.527344 C 883.636719 533.527344 884.136719 534.328125 884.136719 534.328125 C 886.34375 538.136719 899.277344 583.554688 914.117188 635.589844 C 930.359375 692.738281 949.007812 757.808594 957.828125 784.078125 C 997.632812 902.683594 1025.503906 1000.339844 1035.53125 1099.496094 C 1045.558594 1198.753906 1037.835938 1299.316406 1006.355469 1423.738281 L 1004.25 1423.738281 C 1004.25 1423.738281 1004.25 1424.140625 1004.25 1424.140625 C 1004.550781 1424.339844 1004.652344 1424.640625 1004.351562 1424.640625 C 1004.050781 1424.640625 1003.246094 1425.34375 1002.34375 1425.945312 C 1000.039062 1427.546875 997.230469 1429.652344 994.523438 1429.050781 C 990.414062 1428.148438 988.308594 1420.628906 994.222656 1393.660156 C 1051.671875 1131.878906 1008.660156 1001.140625 943.59375 803.425781 C 928.050781 756.304688 911.308594 705.375 894.363281 647.824219 Z M 1004.449219 1423.738281 L 1004.050781 1423.738281 C 1004.050781 1423.738281 1004.351562 1423.9375 1004.550781 1424.140625 L 1004.550781 1423.738281 Z M 1087.164062 1431.457031 C 1079.445312 1427.246094 1079.042969 1421.433594 1081.851562 1416.417969 C 1083.554688 1413.410156 1086.464844 1410.703125 1089.46875 1409 C 1092.679688 1407.195312 1096.1875 1406.59375 1098.792969 1407.695312 C 1102.804688 1409.402344 1104.507812 1415.015625 1099.496094 1426.746094 C 1098.492188 1429.152344 1096.789062 1430.757812 1094.683594 1431.558594 C 1092.578125 1432.460938 1089.972656 1432.359375 1087.566406 1431.558594 L 1087.265625 1431.558594 Z M 950.308594 179.007812 C 943.589844 175.898438 944.191406 160.859375 947.800781 146.921875 C 949.605469 140.003906 952.113281 133.289062 954.820312 128.574219 C 957.929688 123.261719 961.4375 120.253906 964.847656 121.65625 C 966.953125 122.558594 968.757812 125.066406 970.058594 129.777344 C 970.058594 129.976562 969.257812 146.421875 965.847656 159.957031 C 964.746094 164.46875 963.242188 168.78125 961.539062 172.089844 C 959.632812 175.699219 957.328125 178.203125 954.417969 179.007812 C 953.21875 179.308594 951.914062 179.40625 950.609375 179.007812 Z M 950.308594 179.007812 "/></g></svg>