<svg xmlns="http://www.w3.org/2000/svg" xmlns:xlink="http://www.w3.org/1999/xlink" width="2640" zoomAndPan="magnify" viewBox="0 0 1980 436.499987" height="582" preserveAspectRatio="xMidYMid meet" version="1.2"><defs><clipPath id="56c8726bd2"><path d="M 647.785156 0 L 1332.5 0 L 1332.5 436 L 647.785156 436 Z M 647.785156 0 "/></clipPath></defs><g id="147b4f92a4"><g clip-rule="nonzero" clip-path="url(#56c8726bd2)"><path style=" stroke:none;fill-rule:nonzero;fill:#ffffff;fill-opacity:1;" d="M 647.785156 560.554688 L 1332.5 560.554688 L 1332.5 -124.160156 L 647.785156 -124.160156 Z M 647.785156 560.554688 "/></g><path style=" stroke:none;fill-rule:nonzero;fill:#000000;fill-opacity:1;" d="M 1072.484375 399.175781 C 1072.324219 399.097656 1072.191406 398.964844 1072.085938 398.804688 C 1070.976562 397.195312 1072.140625 390.722656 1073.621094 384.59375 C 1075.074219 378.542969 1076.84375 372.785156 1076.921875 372.652344 C 1076.949219 372.601562 1077 372.546875 1077.054688 372.496094 C 1077.976562 371.859375 1078.71875 371.703125 1079.300781 371.992188 C 1080.066406 372.363281 1080.433594 373.394531 1080.488281 374.898438 C 1080.539062 376.273438 1080.382812 378.042969 1080.066406 380.023438 C 1078.824219 387.871094 1075.125 398.910156 1074.386719 399.203125 C 1074.042969 399.335938 1073.726562 399.386719 1073.433594 399.386719 C 1073.144531 399.386719 1072.878906 399.308594 1072.5625 399.203125 L 1072.484375 399.203125 Z M 976.167969 52.75 C 975.164062 56.632812 973.132812 57.585938 971.148438 57.082031 C 969.910156 56.765625 968.691406 55.8125 967.820312 54.625 C 966.921875 53.4375 966.34375 52.011719 966.34375 50.714844 C 966.34375 48.683594 967.6875 46.992188 971.335938 46.992188 C 971.46875 46.992188 971.574219 46.992188 971.703125 46.992188 C 973.132812 47.097656 974.265625 47.703125 975.03125 48.628906 C 975.800781 49.554688 976.195312 50.796875 976.195312 52.167969 C 976.195312 52.300781 976.195312 52.460938 976.195312 52.644531 L 976.195312 52.722656 Z M 908.121094 231.878906 C 908.4375 231.617188 908.808594 231.75 909.308594 232.328125 L 909.230469 232.382812 C 909.230469 232.382812 909.308594 232.488281 909.335938 232.566406 C 909.386719 232.566406 909.414062 232.566406 909.414062 232.621094 L 909.386719 232.621094 C 909.8125 233.492188 910.390625 235.394531 911.15625 237.796875 C 913.484375 245.21875 917.445312 257.902344 918.289062 258.21875 L 918.476562 258.351562 C 923.152344 263.898438 929.175781 299.875 930.390625 321.0625 C 930.652344 325.683594 930.679688 329.648438 930.414062 332.394531 C 930.125 335.40625 929.4375 337.148438 928.222656 337.042969 C 927.640625 336.992188 926.980469 336.515625 926.269531 335.511719 C 926.164062 335.355469 925.898438 331.339844 925.554688 325.976562 C 924.921875 316.308594 923.996094 302.121094 923.574219 299.136719 C 922.597656 292.558594 921.328125 286.140625 919.847656 279.773438 C 918.371094 273.40625 916.730469 267.066406 915.042969 260.648438 C 914.328125 257.980469 908.121094 231.878906 908.171875 231.855469 Z M 909.070312 232.726562 L 909.042969 232.726562 Z M 947.058594 285.824219 C 947.003906 285.53125 946.765625 284.582031 946.449219 283.234375 C 944.945312 277.050781 941.378906 262.46875 942.460938 261.730469 C 942.777344 261.519531 943.121094 261.625 943.492188 262.179688 L 943.542969 262.3125 C 945.15625 267.699219 950.070312 289.097656 952.660156 306.164062 C 954.242188 316.675781 954.929688 325.605469 953.398438 328.273438 L 953.292969 328.484375 L 953.054688 328.484375 C 951.972656 328.566406 951.019531 318.183594 950.175781 308.832031 C 949.671875 303.152344 949.199219 297.867188 948.828125 295.675781 C 948.589844 294.25 948.324219 292.691406 948.0625 291.160156 C 947.746094 289.390625 947.402344 287.539062 947.085938 285.824219 Z M 912.320312 155.0625 C 914.25 165.734375 915.4375 170.039062 915.675781 172.761719 C 915.859375 174.769531 915.542969 175.347656 914.855469 174.664062 C 914.671875 174.476562 914.40625 173.632812 914.0625 172.230469 C 913.191406 168.429688 911.449219 161.980469 910.074219 150.570312 C 909.96875 149.59375 909.441406 128.644531 911.34375 134.984375 C 911.421875 135.25 911.949219 152.605469 912.292969 155.0625 Z M 915.492188 174.054688 C 915.648438 174.214844 915.570312 174.105469 915.410156 173.894531 C 915.4375 173.976562 915.464844 174.027344 915.492188 174.054688 Z M 939.160156 277.949219 C 937.019531 268.46875 931.394531 250.582031 925.316406 231.273438 C 915.386719 199.730469 904.261719 164.359375 905.003906 154.980469 L 905.054688 154.347656 L 905.636719 154.613281 C 905.636719 154.613281 905.742188 154.769531 905.847656 155.035156 L 905.902344 155.035156 C 905.902344 155.035156 905.902344 155.140625 905.902344 155.140625 C 906.824219 157.703125 909.625 169.195312 912.242188 179.945312 C 914.488281 189.164062 916.601562 197.804688 917.15625 199.597656 C 920.035156 208.871094 922.964844 217.695312 925.84375 226.28125 C 934.800781 253.09375 943.070312 277.871094 946.609375 308.621094 L 945.738281 308.726562 C 945.632812 308.09375 945.023438 305.554688 944.257812 302.570312 C 943.226562 298.449219 941.984375 293.40625 941.5625 291.027344 C 941.40625 290.074219 941.21875 288.992188 941.035156 287.910156 C 940.480469 284.582031 939.871094 281.015625 939.1875 277.976562 Z M 938.234375 299.53125 C 937.917969 299.507812 937.652344 298.316406 937.230469 296.363281 C 935.515625 288.730469 930.839844 268.042969 929.914062 264.796875 C 928.488281 259.671875 925.210938 249.339844 921.328125 237.136719 C 912.292969 208.738281 900.089844 170.328125 900.777344 164.386719 L 900.828125 163.988281 L 901.226562 163.988281 C 901.226562 163.988281 901.382812 164.148438 901.515625 164.464844 L 901.675781 164.464844 C 901.675781 164.464844 901.675781 164.675781 901.675781 164.808594 C 902.679688 167.425781 905.136719 176.007812 907.960938 185.835938 C 912.160156 200.445312 917.15625 217.851562 918.554688 222.027344 C 922.914062 234.917969 927.113281 247.386719 930.707031 259.988281 C 934.300781 272.613281 937.308594 285.425781 939.265625 299.03125 L 939.132812 299.03125 C 939.054688 299.269531 938.84375 299.53125 938.339844 299.558594 L 938.261719 299.558594 Z M 927.589844 286.722656 C 923.257812 262.707031 920.378906 252.90625 912.453125 229.398438 C 908.015625 216.214844 903.550781 203.035156 899.824219 189.164062 C 898.820312 185.464844 898.320312 183.40625 898.160156 182.507812 C 897.578125 179.285156 898.054688 179.523438 899.21875 182.136719 C 899.457031 182.667969 899.851562 183.722656 900.300781 185.042969 C 902.070312 190.089844 904.976562 199.230469 905.082031 199.519531 C 907.75 208.316406 910.65625 217.113281 913.535156 225.910156 C 919.796875 244.957031 926.03125 264.003906 930.363281 283.605469 C 931.128906 284.5 931.84375 286.140625 932.503906 288.332031 C 934.511719 295.042969 936.042969 307.0625 936.675781 317.734375 C 937.335938 328.484375 937.046875 337.941406 935.460938 339.421875 C 935.328125 339.554688 935.195312 339.632812 935.039062 339.660156 C 933.425781 340.136719 932.476562 339.210938 931.949219 337.46875 C 931.128906 334.773438 931.417969 330.015625 931.632812 326.160156 C 931.738281 324.3125 931.84375 322.648438 931.789062 321.589844 C 931.523438 315.515625 930.996094 309.78125 930.285156 304.078125 C 929.570312 298.398438 928.644531 292.691406 927.589844 286.695312 Z M 975.640625 306.242188 C 975.640625 306.242188 975.800781 306.109375 975.90625 306.085938 C 976.433594 305.953125 976.804688 306.664062 977.015625 308.039062 C 977.199219 309.121094 977.359375 310.628906 977.488281 312.425781 C 978.148438 320.640625 978.441406 334.691406 978.414062 336.226562 L 978.414062 336.304688 C 978.363281 338.234375 977.886719 360.84375 975.851562 361.585938 C 975.351562 361.769531 974.902344 361.398438 974.53125 360.34375 C 974.453125 360.160156 974.742188 356.382812 975.140625 351.46875 C 975.800781 343.121094 976.699219 331.417969 976.644531 329.015625 C 976.566406 324.785156 976.300781 320.585938 976.035156 316.386719 C 975.824219 313.164062 975.640625 309.941406 975.507812 306.640625 L 975.507812 306.453125 C 975.507812 306.453125 975.640625 306.320312 975.640625 306.320312 Z M 941.984375 46.886719 C 943.4375 40.835938 944.523438 36.847656 945.078125 35.128906 C 945.367188 34.257812 945.65625 33.835938 945.921875 33.835938 C 946.320312 33.835938 946.449219 34.335938 946.292969 35.367188 C 946.027344 37.113281 945.183594 41.046875 943.703125 47.335938 C 943.492188 48.234375 943.226562 49.238281 942.988281 50.1875 C 942.011719 53.992188 941.140625 57.347656 941.535156 61.097656 C 941.535156 61.152344 940.296875 71.320312 938.738281 77.265625 C 938.367188 78.664062 937.996094 79.851562 937.601562 80.621094 C 937.097656 81.648438 936.519531 82.074219 935.859375 81.648438 C 935.539062 81.4375 935.25 80.988281 934.984375 80.25 C 934.085938 77.609375 938.527344 60.4375 940.824219 51.480469 C 941.351562 49.421875 941.773438 47.808594 941.984375 46.886719 Z M 968.480469 298.1875 C 968.480469 298.1875 968.640625 298.078125 968.71875 298.078125 C 969.300781 297.949219 969.722656 298.792969 970.015625 300.300781 C 970.25 301.539062 970.488281 303.308594 970.699219 305.398438 C 971.652344 314.5625 972.285156 329.675781 972.285156 330.890625 C 972.285156 332.023438 972.234375 343.859375 971.597656 350.648438 C 971.441406 352.207031 971.28125 353.5 971.042969 354.347656 C 970.726562 355.589844 970.25 356.089844 969.589844 355.589844 C 969.378906 355.429688 969.195312 355.113281 968.984375 354.609375 C 968.929688 354.480469 969.0625 352.628906 969.222656 349.855469 C 969.671875 342.617188 970.515625 329.066406 970.4375 326.371094 C 970.277344 320.191406 969.695312 314.21875 969.140625 308.222656 C 968.824219 305.027344 968.535156 301.804688 968.296875 298.609375 L 968.296875 298.371094 C 968.296875 298.371094 968.480469 298.210938 968.480469 298.210938 Z M 930.019531 81.703125 C 928.460938 81.121094 932.765625 60.382812 935.75 47.757812 C 936.597656 44.191406 937.335938 41.257812 937.785156 39.621094 C 939.636719 32.964844 940.269531 32.011719 938.976562 39.566406 C 938.632812 41.523438 937.707031 46.171875 935.882812 54.519531 C 935.699219 55.390625 935.195312 58.113281 934.617188 61.519531 C 933.875 65.71875 932.953125 70.949219 932.160156 75.019531 C 931.394531 78.957031 930.652344 81.808594 930.125 81.703125 Z M 965.917969 347.824219 C 965.707031 348.457031 965.46875 348.851562 965.207031 349.011719 C 964.914062 349.222656 964.625 349.195312 964.359375 349.011719 C 964.175781 348.90625 964.015625 348.695312 963.886719 348.429688 C 963.570312 347.769531 963.355469 346.554688 963.4375 345.445312 C 964.097656 335.433594 964.230469 326.6875 963.78125 317.867188 C 963.332031 309.042969 962.300781 300.167969 960.636719 289.96875 L 960.503906 289.125 L 961.269531 289.519531 C 961.269531 289.519531 961.429688 289.574219 961.507812 289.574219 C 962.195312 289.574219 962.378906 289.574219 963.09375 293.851562 C 964.441406 301.910156 965.65625 312.582031 966.210938 323.148438 C 966.660156 331.917969 966.6875 340.609375 965.917969 347.742188 Z M 921.75 94.222656 C 922.304688 87.964844 925.976562 64.824219 928.539062 52.328125 C 929.070312 49.6875 929.570312 47.492188 929.964844 46.066406 C 930.335938 44.71875 930.8125 42.84375 931.445312 41.257812 C 933.296875 35.261719 931.789062 45.539062 931.738281 45.722656 C 930.707031 50.902344 923.8125 85.769531 922.835938 103.496094 C 922.332031 115.039062 923.496094 134.824219 924.179688 144.996094 C 924.3125 146.953125 924.445312 148.589844 924.523438 149.726562 C 924.578125 150.410156 924.605469 151.019531 924.628906 151.496094 L 924.65625 151.496094 C 924.65625 152.949219 924.367188 157.09375 923.863281 152.445312 C 923.863281 152.445312 923.625 152.207031 923.496094 151.96875 C 923.363281 151.757812 923.230469 151.414062 923.097656 150.992188 C 922.492188 149.25 921.699219 145.839844 921.539062 143.675781 C 921.039062 136.992188 920.851562 129.199219 920.878906 121.246094 C 920.90625 111.84375 921.277344 102.253906 921.75 94.222656 Z M 952.738281 278.398438 C 952.738281 278.398438 952.578125 278.347656 952.527344 278.320312 L 952.578125 278.453125 Z M 952.527344 278.320312 C 952.527344 278.320312 952.472656 278.292969 952.445312 278.269531 L 952.316406 278.214844 C 952.394531 277.976562 952.527344 277.6875 952.84375 277.605469 C 953.292969 277.5 953.898438 278.320312 954.796875 282.625 C 954.851562 282.941406 959.15625 310.363281 960.320312 327.269531 C 960.582031 331.101562 960.6875 334.402344 960.53125 336.753906 C 960.371094 339.367188 959.84375 340.847656 958.785156 340.714844 C 958.550781 340.691406 958.339844 340.585938 958.074219 340.398438 C 957.703125 340.109375 957.121094 326.609375 956.78125 318.605469 C 956.648438 315.542969 956.542969 313.296875 956.515625 312.953125 C 956.011719 306.929688 955.539062 301.277344 954.851562 295.675781 C 954.164062 290.050781 953.292969 284.476562 952.078125 278.609375 L 952.527344 278.480469 L 952.472656 278.347656 Z M 952.445312 278.269531 C 952.445312 278.269531 952.394531 278.1875 952.445312 278.1875 C 952.578125 278.136719 952.339844 278.242188 952.316406 278.242188 L 952.445312 278.292969 Z M 915.015625 101.488281 C 915.386719 95.757812 918.316406 73.671875 920.429688 61.707031 C 921.195312 57.320312 921.960938 53.488281 923.46875 49.421875 C 923.917969 47.835938 924.523438 47.546875 924.445312 48.285156 C 924.472656 48.257812 916.730469 96.628906 916.335938 111.128906 C 916.097656 125.765625 919.058594 154.347656 919.398438 157.542969 L 919.398438 157.835938 C 919.398438 157.835938 919.425781 157.914062 919.425781 157.914062 C 919.398438 158.257812 919.320312 158.496094 919.242188 158.652344 C 918.871094 159.207031 918.503906 159.050781 918.160156 158.335938 C 918.027344 158.046875 917.867188 157.597656 917.710938 157.042969 C 917.023438 154.691406 916.152344 150.28125 916.019531 148.878906 C 915.410156 142.195312 915.042969 134.667969 914.882812 127.035156 C 914.699219 118.238281 914.777344 109.335938 915.015625 101.515625 Z M 1000.578125 342.988281 C 1000.867188 337.203125 1001.105469 333.980469 1001.265625 332.660156 C 1001.792969 327.984375 1002.164062 328.433594 1002.375 332.554688 C 1002.425781 333.371094 1002.425781 334.984375 1002.402344 337.042969 C 1002.320312 344.890625 1001.847656 359.472656 1001.238281 364.042969 C 1000.207031 371.570312 998.964844 378.464844 997.726562 385.4375 C 996.984375 389.507812 996.246094 393.574219 995.558594 397.90625 C 994.820312 402.371094 993.367188 405.59375 992.097656 406.996094 C 991.570312 407.578125 991.066406 407.867188 990.59375 407.867188 C 990.039062 407.867188 989.640625 407.496094 989.402344 406.757812 C 989.035156 405.515625 989.191406 402.953125 990.300781 398.804688 C 990.832031 396.796875 991.410156 395.027344 991.964844 393.257812 C 992.863281 390.457031 993.789062 387.605469 994.660156 383.511719 C 996.035156 377.09375 997.433594 369.429688 998.542969 361.796875 C 999.496094 355.21875 1000.261719 348.695312 1000.578125 343.015625 Z M 968.269531 43.238281 C 967.347656 42.738281 968.929688 36.820312 970.304688 32.832031 C 970.753906 31.511719 971.175781 30.402344 971.46875 29.792969 C 972.445312 27.707031 972.972656 27.441406 972.683594 29.953125 C 972.601562 30.691406 972.207031 32.382812 971.414062 35.394531 C 971.359375 35.632812 971.253906 36.082031 971.125 36.664062 C 970.832031 37.957031 970.4375 39.804688 969.988281 41.179688 C 969.566406 42.527344 969.011719 43.476562 968.351562 43.265625 L 968.269531 43.265625 Z M 995.082031 338.839844 C 994.976562 332.605469 995.109375 328.777344 995.320312 327.136719 C 995.453125 326.109375 995.742188 325.683594 996.167969 325.816406 C 996.429688 325.898438 996.640625 326.398438 996.746094 327.296875 C 996.957031 329.171875 997.066406 333.347656 996.851562 339.5 C 996.695312 344.28125 996.484375 348.71875 996.167969 353.132812 C 995.847656 357.570312 995.375 362.007812 994.660156 366.761719 C 993.710938 373.183594 992.601562 379.363281 991.492188 385.546875 C 990.726562 389.773438 989.984375 394 989.296875 398.144531 C 988.558594 402.558594 987.132812 405.78125 985.863281 407.152344 C 985.335938 407.734375 984.832031 408.027344 984.359375 408.027344 C 983.828125 408.027344 983.40625 407.65625 983.195312 406.890625 C 982.824219 405.621094 983.011719 402.953125 984.148438 398.648438 C 984.597656 396.957031 985.070312 395.558594 985.574219 394.078125 C 986.3125 391.910156 987.105469 389.640625 987.84375 386.3125 C 989.457031 379.046875 991.621094 368.453125 993.15625 358.335938 C 994.238281 351.125 995.03125 344.152344 995.03125 338.894531 Z M 951.207031 100.882812 C 951.890625 89.863281 952.578125 82.019531 953.769531 74.171875 C 954.957031 66.328125 956.671875 58.457031 959.394531 47.464844 C 959.421875 47.335938 959.527344 47.097656 959.710938 46.753906 C 960.214844 45.722656 961.242188 43.582031 961.878906 41.046875 C 963.4375 34.917969 964.414062 31.433594 964.914062 29.953125 C 965.390625 28.5 965.8125 28.289062 966.128906 29.160156 C 966.183594 29.320312 966.128906 29.847656 966.023438 30.664062 C 965.65625 32.777344 964.652344 37.296875 963.25 42.976562 C 962.90625 44.347656 962.617188 46.410156 962.328125 48.683594 C 962.011719 51.007812 961.667969 53.488281 961.21875 55.601562 C 945.765625 131.816406 957.730469 168.796875 978.8125 234.019531 C 980.132812 238.113281 981.503906 242.339844 982.90625 246.699219 L 982.90625 246.753906 C 983.25 247.652344 987.898438 260.25 986.367188 262.101562 C 985.917969 262.628906 985.203125 262.601562 984.171875 261.730469 C 983.273438 260.992188 977.304688 242.632812 970.964844 222.183594 C 963.304688 197.566406 955.089844 169.855469 954.535156 166.445312 C 953.054688 157.304688 952.023438 146.238281 951.46875 135.0625 C 950.863281 123.097656 950.78125 110.972656 951.230469 100.960938 Z M 989.007812 333.875 C 988.71875 327.21875 988.796875 323.121094 988.953125 321.328125 C 989.058594 320.269531 989.351562 319.792969 989.773438 319.898438 C 990.0625 319.980469 990.277344 320.480469 990.40625 321.433594 C 990.671875 323.414062 990.882812 327.824219 990.804688 334.402344 C 990.804688 335.671875 989.984375 353.714844 988.71875 363.960938 C 988.425781 366.234375 988.136719 368.136719 987.792969 369.40625 C 987.371094 371.070312 986.789062 371.78125 986.050781 371.148438 C 985.835938 370.964844 985.625 370.566406 985.441406 369.960938 C 985.386719 369.800781 985.707031 366.972656 986.179688 362.933594 C 987.265625 353.609375 989.085938 337.652344 989.035156 334.457031 L 989.035156 333.820312 Z M 956.226562 39.226562 C 957.464844 34.417969 958.257812 31.695312 958.679688 30.558594 C 959.128906 29.292969 959.527344 29.160156 959.84375 29.953125 C 959.898438 30.109375 959.871094 30.558594 959.765625 31.246094 C 959.472656 33.042969 958.65625 36.820312 957.464844 41.445312 C 956.4375 45.511719 954.984375 55.128906 953.609375 64.160156 C 952.210938 73.488281 950.886719 82.203125 950.203125 83.578125 C 950.175781 83.632812 950.070312 84.898438 949.9375 86.75 C 949.515625 92.640625 948.667969 104.128906 946.792969 104.921875 C 946.1875 105.1875 945.605469 104.765625 945.050781 103.46875 C 944.996094 103.363281 944.945312 103.207031 944.917969 103.074219 C 944.152344 99.878906 945.738281 86.429688 947.878906 73.671875 C 949.9375 61.335938 952.527344 49.605469 954.003906 48.128906 C 954.347656 46.726562 954.691406 45.273438 955.0625 43.742188 C 955.433594 42.261719 955.800781 40.757812 956.199219 39.226562 Z M 984.332031 316.042969 C 984.332031 316.042969 984.808594 341.191406 983.855469 355.878906 C 983.644531 359.128906 983.355469 361.875 982.984375 363.75 C 982.535156 365.96875 981.875 367.054688 980.925781 366.550781 C 980.632812 366.394531 980.371094 366.074219 980.078125 365.546875 C 980 365.390625 980.210938 363.328125 980.527344 360.289062 C 981.265625 353.265625 982.589844 340.953125 982.589844 338.128906 L 982.589844 337.996094 C 982.535156 336.015625 982.085938 313.664062 983.273438 313.507812 C 983.699219 313.453125 984.042969 314.195312 984.304688 315.992188 Z M 949.355469 41.945312 C 950.703125 36.664062 951.601562 33.519531 952.050781 32.199219 C 952.421875 31.140625 952.789062 30.878906 953.160156 31.328125 C 953.292969 31.484375 953.292969 31.960938 953.160156 32.699219 C 952.894531 34.417969 952.078125 38.167969 950.78125 43.398438 C 950.546875 44.347656 950.308594 45.195312 950.097656 45.988281 C 949.328125 48.683594 948.800781 50.609375 949.222656 53.570312 C 949.222656 53.648438 947.136719 66.011719 945.394531 74.410156 C 944.46875 78.875 943.542969 82.308594 942.9375 82.414062 C 941.933594 82.601562 941.378906 81.941406 941.140625 80.644531 C 940.136719 75.070312 945.632812 55.285156 948.195312 46.066406 C 948.722656 44.191406 949.117188 42.765625 949.304688 41.945312 Z M 952.5 31.882812 C 952.5 31.882812 952.421875 31.800781 952.5 31.882812 Z M 1024.800781 355.140625 C 1025.09375 352.417969 1025.515625 351.308594 1025.964844 351.363281 C 1026.597656 351.441406 1027.019531 357.332031 1026.703125 363.488281 C 1026.386719 369.535156 1025.488281 375.902344 1023.691406 377.144531 C 1022.847656 377.726562 1021.921875 377.460938 1020.917969 375.980469 C 1019.941406 374.582031 1021.894531 367 1023.375 361.242188 C 1024.089844 358.441406 1024.695312 356.089844 1024.800781 355.140625 Z M 991.886719 44.585938 C 992.757812 41.019531 993.261719 39.117188 993.523438 38.328125 C 994.34375 35.816406 994.660156 36.027344 994.609375 38.222656 C 994.609375 38.511719 994.527344 39.117188 994.394531 39.9375 C 993.949219 42.710938 992.917969 47.914062 992.414062 50.136719 L 992.414062 50.1875 C 992.414062 50.847656 992.414062 54.230469 991.992188 56.132812 C 991.09375 60.332031 989.746094 72.113281 988.453125 83.367188 C 987.027344 95.863281 985.652344 107.75 984.886719 108.277344 C 984.304688 108.671875 983.777344 108.804688 983.300781 108.726562 C 982.191406 108.515625 981.558594 107.113281 981.292969 104.871094 C 981.054688 102.808594 981.082031 99.984375 981.292969 96.734375 C 982.21875 83.234375 986.472656 62.523438 987.34375 61.203125 C 987.632812 60.78125 987.84375 59.273438 988.109375 57.53125 C 988.558594 54.46875 989.113281 50.769531 990.617188 50.003906 L 991.226562 47.386719 C 991.410156 46.59375 991.621094 45.695312 991.914062 44.5625 Z M 1017.722656 367.632812 C 1016.875 367.292969 1018.066406 357.621094 1019.203125 351.46875 C 1019.546875 349.59375 1019.863281 348.035156 1020.101562 347.1875 C 1020.839844 344.597656 1021.316406 344.230469 1021.394531 347.1875 C 1021.394531 348.246094 1021.261719 350.703125 1020.785156 355.167969 C 1020.707031 355.90625 1020.390625 359.023438 1019.941406 361.902344 C 1019.464844 365.019531 1018.753906 367.871094 1017.800781 367.660156 L 1017.722656 367.660156 Z M 986.472656 41.574219 C 987.421875 37.878906 987.976562 35.84375 988.269531 35.023438 C 988.980469 32.964844 989.324219 33.097656 989.378906 34.8125 C 989.378906 35.050781 989.324219 35.578125 989.191406 36.292969 C 988.796875 38.644531 987.871094 43.1875 987.160156 46.09375 C 987.027344 46.648438 986.867188 47.96875 986.683594 49.578125 C 986.417969 51.800781 986.101562 54.546875 985.679688 56.582031 C 984.621094 61.492188 983.011719 76.550781 981.585938 89.839844 C 980.289062 101.9375 979.128906 112.582031 978.546875 112.980469 C 977.964844 113.375 977.4375 113.535156 976.960938 113.457031 C 975.824219 113.269531 975.164062 111.789062 974.875 109.414062 C 974.609375 107.222656 974.609375 104.234375 974.820312 100.800781 C 975.667969 86.324219 979.945312 63.949219 980.925781 62.445312 C 981.265625 61.917969 981.585938 59.882812 981.953125 57.503906 C 982.589844 53.464844 983.355469 48.523438 984.992188 47.679688 L 985.707031 44.746094 C 985.96875 43.664062 986.234375 42.605469 986.496094 41.601562 Z M 1012.015625 364.332031 C 1011.222656 364.015625 1012.332031 353.554688 1013.390625 347.003906 C 1013.707031 345.074219 1013.996094 343.464844 1014.207031 342.566406 C 1014.894531 339.816406 1015.371094 339.394531 1015.476562 342.460938 C 1015.503906 343.464844 1015.398438 345.816406 1015.054688 350.042969 C 1014.976562 350.859375 1014.65625 354.503906 1014.207031 357.886719 C 1013.996094 359.523438 1013.734375 361.082031 1013.46875 362.21875 C 1013.152344 363.59375 1012.703125 364.4375 1012.148438 364.386719 L 1012.015625 364.386719 Z M 980.84375 39.460938 C 981.875 35.5 982.507812 33.332031 982.800781 32.460938 C 983.59375 30.191406 983.9375 30.347656 983.910156 32.25 C 983.910156 32.515625 983.828125 33.070312 983.699219 33.835938 C 983.25 36.371094 982.164062 41.3125 981.425781 44.296875 L 981.425781 44.402344 C 981.347656 45.246094 980.925781 49.710938 979.761719 50.214844 C 979.207031 50.453125 978.597656 50.109375 977.992188 48.761719 C 977.859375 48.46875 978.8125 45.617188 979.65625 43.082031 C 980.210938 41.417969 980.710938 39.886719 980.820312 39.460938 Z M 1006.441406 347.425781 C 1006.8125 342.011719 1007.101562 339 1007.289062 337.730469 C 1007.894531 333.371094 1008.265625 333.847656 1008.421875 337.785156 C 1008.449219 338.707031 1008.421875 340.425781 1008.421875 342.59375 C 1008.238281 351.070312 1007.5 366.710938 1006.839844 370.699219 L 1006.839844 370.804688 C 1006.46875 373.078125 1001.210938 407.074219 997.433594 407.257812 C 995.957031 407.339844 995.320312 406.335938 995.242188 404.75 C 995.109375 401.765625 997.039062 396.480469 998.332031 392.96875 C 998.835938 391.59375 999.230469 390.511719 999.363281 389.957031 C 1000.628906 384.566406 1002.375 375.691406 1003.855469 366.921875 C 1005.070312 359.683594 1006.074219 352.523438 1006.46875 347.453125 Z M 974.292969 43.847656 C 973.367188 43.347656 974.875 37.613281 976.222656 33.730469 C 976.671875 32.4375 977.09375 31.328125 977.382812 30.746094 C 978.363281 28.710938 978.863281 28.421875 978.597656 30.878906 C 978.519531 31.589844 978.148438 33.226562 977.359375 36.1875 C 977.304688 36.425781 977.199219 36.875 977.066406 37.429688 C 976.804688 38.671875 976.40625 40.441406 975.984375 41.789062 C 975.5625 43.160156 975.007812 44.113281 974.347656 43.902344 L 974.265625 43.902344 Z M 997.25 48.019531 C 997.910156 45.246094 998.304688 43.742188 998.515625 43.109375 C 999.179688 41.257812 999.496094 41.390625 999.574219 43.027344 C 999.574219 43.265625 999.546875 43.742188 999.46875 44.347656 C 999.203125 46.4375 998.492188 50.371094 998.042969 52.433594 C 999.019531 55.867188 994.871094 81.386719 993.550781 89.523438 C 993.3125 90.949219 993.179688 91.847656 993.15625 91.953125 L 993.15625 92.164062 C 993.074219 93.429688 992.785156 99.269531 991.121094 100.695312 C 990.382812 101.328125 989.457031 101.25 988.347656 99.929688 C 987.738281 99.214844 988.929688 84.765625 990.777344 72.21875 C 992.019531 63.738281 993.578125 56.078125 995.003906 54.070312 C 995.003906 54.070312 995.03125 53.9375 995.058594 53.78125 C 995.136719 53.144531 995.269531 52.273438 996.351562 51.90625 L 996.484375 51.375 C 996.746094 50.214844 997.011719 49.050781 997.25 48.023438 Z M 940.585938 407.839844 C 938.976562 406.890625 940.003906 403.878906 940.769531 401.578125 C 940.957031 401.050781 941.113281 400.574219 941.21875 400.152344 C 941.21875 400.152344 941.644531 400.234375 941.644531 400.234375 L 941.695312 399.996094 C 941.695312 399.996094 941.695312 399.914062 941.695312 399.890625 L 941.617188 399.757812 C 941.878906 399.625 942.410156 399.359375 942.9375 399.253906 C 943.703125 399.097656 944.441406 399.203125 944.679688 400.179688 C 944.679688 400.179688 944.417969 403.164062 943.652344 405.359375 C 943.4375 405.992188 943.148438 406.546875 942.832031 406.996094 C 942.488281 407.496094 942.066406 407.839844 941.5625 407.945312 C 941.273438 408 940.980469 408 940.664062 407.894531 L 940.585938 407.894531 Z M 941.667969 400.234375 C 941.667969 400.234375 941.75 400.207031 941.800781 400.179688 C 941.773438 400.125 941.75 400.074219 941.722656 400.019531 L 941.644531 400.234375 Z M 941.695312 399.914062 C 941.695312 399.914062 941.695312 399.808594 941.773438 399.835938 C 941.933594 399.890625 941.644531 399.785156 941.617188 399.785156 Z M 965.417969 407.339844 C 963.886719 406.441406 964.574219 402.980469 965.761719 399.96875 C 966.449219 398.277344 967.265625 396.691406 967.980469 395.820312 C 969.0625 394.449219 969.910156 394.261719 970.015625 396.191406 C 970.09375 397.511719 969.566406 400.445312 968.03125 405.804688 C 967.875 406.386719 967.609375 406.890625 967.214844 407.207031 C 966.792969 407.550781 966.238281 407.628906 965.46875 407.363281 L 965.390625 407.363281 Z M 938.207031 158.019531 C 938.683594 159.183594 943.042969 175.664062 946.238281 188.714844 C 948.246094 196.984375 949.804688 203.90625 949.59375 204.804688 L 949.542969 205.09375 L 949.25 205.148438 C 949.066406 205.171875 948.882812 205.148438 948.695312 205.09375 C 947.003906 204.511719 944.679688 198.832031 942.539062 191.570312 C 940.425781 184.410156 938.421875 175.691406 937.285156 168.796875 C 936.386719 163.410156 936.042969 159.128906 936.597656 157.542969 L 936.78125 157.015625 L 938.050781 157.808594 L 938.234375 158.019531 Z M 959.210938 407.472656 C 957.757812 406.625 958.3125 403.507812 959.421875 400.734375 C 960.054688 399.125 960.875 397.589844 961.5625 396.746094 C 962.617188 395.425781 963.460938 395.238281 963.59375 397.089844 C 963.675781 398.304688 963.226562 401.050781 961.796875 406.019531 C 961.640625 406.625 961.347656 407.074219 960.953125 407.363281 C 960.53125 407.65625 959.976562 407.734375 959.289062 407.496094 L 959.210938 407.496094 Z M 953 407.601562 C 951.550781 406.757812 952.367188 404.117188 952.789062 402.902344 L 952.921875 402.503906 L 953.132812 401.792969 C 953.132812 401.792969 953.1875 401.632812 953.1875 401.632812 C 953.449219 400.789062 954.773438 396.773438 956.066406 396.480469 C 956.699219 396.347656 957.226562 396.796875 957.546875 398.25 C 957.546875 398.25 957.070312 401.976562 956.144531 404.617188 C 955.882812 405.359375 955.5625 406.042969 955.222656 406.574219 C 954.824219 407.152344 954.375 407.550781 953.875 407.683594 C 953.609375 407.734375 953.34375 407.734375 953.082031 407.628906 L 953 407.628906 Z M 946.792969 407.707031 C 945.367188 406.863281 945.871094 403.929688 946.898438 401.289062 C 947.535156 399.730469 948.324219 398.226562 949.011719 397.40625 C 950.070312 396.136719 950.914062 395.925781 951.074219 397.722656 C 951.179688 398.910156 950.757812 401.527344 949.382812 406.308594 L 949.304688 406.546875 C 949.117188 407.046875 948.855469 407.445312 948.484375 407.65625 C 948.089844 407.894531 947.613281 407.972656 947.058594 407.789062 L 946.875 407.734375 L 946.792969 407.734375 Z M 956.886719 123.597656 C 956.699219 114.933594 957.175781 106.71875 957.675781 98.582031 C 957.996094 93.457031 958.285156 88.332031 958.417969 83.207031 C 958.417969 83.128906 960.238281 70.238281 962.246094 62.761719 C 962.722656 61.019531 963.199219 59.539062 963.675781 58.589844 C 964.28125 57.347656 964.941406 56.871094 965.65625 57.453125 C 965.972656 57.714844 966.238281 58.21875 966.472656 59.0625 C 966.527344 59.25 965.3125 67.941406 964.042969 77.289062 C 962.617188 87.671875 961.085938 98.820312 961.03125 99.585938 C 959.554688 125.738281 961.773438 148.191406 966.394531 170.144531 C 971.019531 192.125 978.070312 213.625 986.261719 237.929688 C 986.605469 238.933594 987.078125 240.042969 987.632812 241.335938 C 988.453125 243.238281 989.429688 245.484375 990.328125 248.285156 C 990.566406 249.023438 990.9375 250.238281 991.410156 251.71875 C 995.1875 263.738281 1004.621094 293.667969 1000.183594 298.34375 L 1000.023438 298.527344 L 999.785156 298.476562 C 996.746094 297.949219 993.261719 280.617188 991.570312 272.113281 C 991.199219 270.289062 990.910156 268.863281 990.75 268.148438 C 990.355469 266.460938 989.933594 264.714844 989.484375 262.894531 C 989.058594 261.175781 988.613281 259.433594 988.164062 257.6875 C 984.410156 245.167969 980.710938 233.308594 976.882812 221.445312 C 973.050781 209.558594 969.0625 197.644531 964.730469 184.992188 C 962.695312 179.046875 961.085938 170.09375 959.898438 160.554688 C 958.207031 147.269531 957.28125 132.792969 956.9375 123.597656 Z M 979.921875 393.785156 C 980.582031 391.117188 981.265625 389.535156 981.820312 388.875 C 982.21875 388.425781 982.589844 388.320312 982.957031 388.503906 C 983.25 388.664062 983.460938 389.003906 983.59375 389.558594 C 983.828125 390.800781 983.671875 393.335938 982.773438 396.902344 C 982.746094 397.035156 982.695312 397.300781 982.613281 397.722656 C 982.164062 400.179688 980.976562 406.703125 979.074219 407.789062 C 978.257812 408.238281 977.410156 407.945312 976.566406 406.414062 C 975.695312 404.855469 977.382812 400.550781 978.679688 397.195312 C 979.234375 395.769531 979.707031 394.527344 979.894531 393.785156 Z M 975.269531 248.890625 C 972.390625 249.078125 958.867188 205.703125 951.101562 173.578125 C 948.90625 164.542969 947.164062 156.410156 946.238281 150.386719 C 945.289062 144.175781 945.210938 140.136719 946.449219 139.476562 C 946.875 139.265625 947.347656 139.34375 947.878906 139.714844 C 948.089844 139.84375 949.355469 146.316406 950.941406 154.375 C 953.34375 166.578125 956.460938 182.507812 957.175781 185.230469 C 957.492188 186.417969 959.5 192.757812 962.140625 200.972656 C 968.058594 219.542969 977.015625 247.625 976.273438 248.363281 C 976.117188 248.523438 975.957031 248.628906 975.800781 248.707031 C 975.640625 248.785156 975.507812 248.8125 975.324219 248.867188 L 975.246094 248.867188 Z M 972.472656 398.675781 C 973.238281 395.714844 974.003906 394 974.609375 393.285156 C 975.007812 392.808594 975.402344 392.703125 975.773438 392.890625 C 976.0625 393.046875 976.273438 393.417969 976.378906 394 C 976.59375 395.292969 976.355469 397.933594 975.375 401.527344 C 975.351562 401.660156 975.296875 401.949219 975.246094 402.347656 C 975.035156 403.957031 974.636719 406.96875 973.476562 407.894531 C 972.707031 408.472656 971.757812 408.34375 970.570312 406.808594 C 969.617188 405.59375 970.570312 403.429688 971.46875 401.316406 C 971.863281 400.363281 972.257812 399.441406 972.472656 398.675781 Z M 963.066406 230.691406 C 960.132812 230.929688 950.464844 198.886719 944.8125 174.34375 C 943.148438 167.105469 941.828125 160.53125 941.113281 155.640625 C 940.375 150.597656 940.320312 147.242188 941.300781 146.632812 C 941.644531 146.421875 942.011719 146.449219 942.460938 146.738281 C 942.671875 146.871094 944.285156 153.976562 946.238281 162.667969 C 949.011719 175.03125 952.527344 190.671875 953.320312 193.339844 C 953.6875 194.605469 954.613281 197.273438 955.75 200.628906 C 959.5 211.511719 965.683594 229.449219 963.277344 230.640625 L 963.121094 230.691406 Z M 981.054688 127.824219 C 980.949219 123.941406 981.398438 121.167969 982.035156 119.875 C 982.351562 119.265625 982.71875 118.921875 983.167969 118.871094 C 983.617188 118.84375 984.042969 119.109375 984.410156 119.742188 C 985.125 120.957031 985.757812 123.757812 986.023438 128.484375 C 988.503906 164.226562 998.226562 195.242188 1007.84375 225.855469 C 1009.585938 233.308594 1036.582031 339.476562 1026.835938 346.238281 C 1026.226562 346.5 1025.59375 346.132812 1024.988281 344.785156 C 1024.933594 344.679688 1024.90625 344.019531 1024.882812 343.121094 C 1024.800781 340.503906 1024.300781 339.949219 1024.511719 336.488281 L 1024.511719 335.804688 C 1024.273438 331.3125 1023.136719 306.136719 1021.023438 293.800781 C 1016.796875 269.046875 1009.613281 247.203125 1002.507812 225.539062 C 992.546875 195.214844 982.667969 165.207031 981.054688 127.824219 Z M 975.984375 117.207031 C 976.144531 115.832031 975.851562 117.074219 976.0625 116.597656 C 976.589844 115.460938 978.019531 115.78125 978.46875 117.496094 C 978.863281 118.976562 978.835938 119.953125 979.261719 126.398438 C 981.929688 165.945312 991.253906 193.894531 1000.894531 222.765625 C 1007.050781 241.230469 1013.335938 260.066406 1018.09375 282.546875 C 1018.304688 283.550781 1022.476562 306.375 1023.242188 320.640625 C 1023.429688 324.074219 1023.429688 327.03125 1023.109375 329.066406 C 1022.769531 331.363281 1022 332.632812 1020.679688 332.34375 C 1020.207031 332.238281 1019.675781 331.917969 1019.097656 331.339844 C 1018.9375 331.179688 1018.488281 326.820312 1017.855469 321.007812 C 1016.71875 310.496094 1015.082031 295.148438 1014.550781 292.269531 C 1011.988281 278.109375 1008.316406 264.558594 1004.195312 251.269531 C 1006.917969 260.464844 1009.53125 270.183594 1011.882812 280.722656 C 1012.203125 282.125 1015.820312 301.671875 1016.535156 314.007812 C 1016.71875 316.996094 1016.71875 319.582031 1016.480469 321.40625 C 1016.191406 323.464844 1015.554688 324.628906 1014.421875 324.46875 C 1014.078125 324.417969 1013.679688 324.230469 1013.257812 323.890625 C 1013.046875 323.703125 1012.09375 317.285156 1010.90625 309.386719 C 1009.242188 298.1875 1007.128906 284 1006.441406 280.988281 C 1001.898438 260.648438 996.035156 242.949219 990.277344 225.671875 C 980.421875 196.058594 971.019531 167.714844 969.511719 129.488281 L 969.511719 128.828125 C 969.355469 122.359375 969.195312 115.9375 969.246094 109.441406 C 969.40625 104.527344 969.960938 89.707031 971.308594 77.953125 C 972.101562 71.003906 973.183594 65.113281 974.636719 62.867188 C 974.664062 62.816406 974.636719 62.867188 974.636719 62.761719 C 974.925781 61.679688 976.035156 57.425781 977.304688 57.082031 C 977.914062 56.898438 978.46875 57.320312 978.863281 58.695312 C 978.996094 59.144531 977.914062 66.960938 976.644531 76.101562 C 975.058594 87.515625 973.183594 101.011719 973 104.445312 C 971.890625 150.625 981.082031 181.160156 991.753906 213.125 C 982.402344 184.199219 972.285156 148.511719 975.929688 117.257812 Z M 963.171875 108.886719 C 963.277344 105.6875 963.886719 90.289062 965.257812 78.292969 C 966.023438 71.613281 967.027344 65.933594 968.324219 63.976562 C 968.324219 63.976562 968.375 63.820312 968.457031 63.527344 C 968.851562 62.367188 969.671875 59.828125 970.675781 59.539062 C 971.28125 59.355469 971.835938 59.75 972.234375 61.125 C 972.601562 62.367188 970.886719 73.355469 969.40625 82.863281 C 968.457031 88.96875 967.582031 94.460938 967.453125 96.390625 C 966.15625 114.800781 966.449219 129.199219 968.164062 143.386719 C 969.882812 157.597656 973.050781 171.625 977.515625 189.296875 C 979.367188 196.640625 980.820312 201.871094 982.457031 207.101562 C 984.09375 212.332031 985.941406 217.507812 988.609375 224.800781 C 993.605469 238.695312 998.464844 253.144531 1002.320312 267.832031 C 1006.179688 282.519531 1009.058594 297.445312 1010.089844 312.238281 L 1010.089844 312.609375 C 1010.089844 312.609375 1009.769531 312.714844 1009.769531 312.714844 C 1009.269531 312.847656 1008.820312 313.191406 1008.421875 313.480469 C 1008.027344 313.769531 1007.683594 314.035156 1007.289062 314.089844 C 1006.230469 314.21875 1005.542969 312.820312 1004.699219 306.480469 C 1001.292969 280.960938 994.765625 259.882812 987.792969 237.402344 C 985.230469 229.132812 982.613281 220.652344 980.078125 211.777344 C 978.597656 206.492188 977.121094 202.480469 975.667969 198.542969 C 973.738281 193.285156 971.835938 188.1875 970.066406 180.339844 C 967.242188 167.792969 965.523438 156.328125 964.492188 144.835938 C 963.488281 133.347656 963.171875 121.777344 963.171875 108.992188 Z M 1041.046875 266.617188 C 1031.273438 230.851562 1017.378906 201.183594 1009.453125 162.644531 C 1008.265625 156.882812 1007.472656 151.945312 1007.261719 148.402344 C 1007.023438 144.625 1007.5 142.355469 1008.925781 142.222656 C 1009.320312 142.195312 1009.746094 142.300781 1010.21875 142.59375 C 1010.695312 142.882812 1013.441406 155.878906 1016.058594 168.164062 C 1018.09375 177.777344 1020.019531 186.945312 1020.628906 189.058594 C 1024.378906 202.292969 1028.367188 214.867188 1032.277344 227.125 C 1048.152344 278.003906 1061.707031 323.203125 1048.496094 382.269531 C 1047.96875 382.507812 1047.519531 382.613281 1046.992188 382.851562 C 1046.488281 383.089844 1045.960938 383.351562 1045.460938 383.273438 C 1044.429688 383.089844 1043.875 381.476562 1044.984375 375.269531 C 1048.472656 356.167969 1050.054688 339.660156 1049.660156 323.230469 C 1049.183594 303.628906 1046.015625 284.765625 1041.074219 266.644531 Z M 1016.242188 211.832031 C 1015.292969 208.925781 1005.519531 175.164062 1001.609375 153.554688 C 1001.421875 152.578125 1001.265625 151.628906 1001.105469 150.703125 C 1001.292969 152.417969 1001.449219 154.058594 1001.609375 155.535156 C 1001.847656 157.835938 1002.003906 159.65625 1002.164062 160.714844 C 1006.546875 187.898438 1013.972656 210.402344 1021.15625 232.171875 C 1033.042969 268.203125 1044.296875 302.226562 1040.019531 352.234375 C 1039.832031 354.320312 1039.699219 356.117188 1039.570312 357.808594 C 1038.960938 365.414062 1038.566406 370.59375 1036.453125 381.054688 L 1036.453125 381.105469 C 1036.1875 382.507812 1031.933594 405.699219 1028.316406 406.996094 C 1027.445312 407.3125 1026.675781 406.757812 1026.042969 405.015625 C 1025.992188 404.828125 1026.546875 402.425781 1027.445312 398.59375 C 1030.375 386.101562 1036.875 358.390625 1037.402344 351.679688 C 1039.382812 326.6875 1037.296875 304.578125 1032.675781 282.917969 C 1028.050781 261.253906 1020.839844 240.015625 1012.570312 216.824219 C 1011.59375 214.074219 1010.800781 211.960938 1010.089844 210.035156 C 1008.238281 205.121094 1006.890625 201.5 1004.699219 193.445312 L 1004.59375 193.023438 C 1002.875 183.457031 991.464844 136.992188 995.269531 128.910156 L 995.507812 128.617188 L 995.847656 128.804688 C 997.804688 129.832031 999.152344 135.722656 1000.101562 142.25 C 1000.074219 141.695312 1000.050781 141.140625 1000.023438 140.636719 C 999.945312 137.175781 1000.550781 135.089844 1002.058594 135.039062 C 1002.375 135.039062 1002.746094 135.117188 1003.140625 135.300781 C 1004.25 135.855469 1006.972656 151.96875 1009.03125 164.015625 C 1010.035156 169.960938 1010.878906 174.898438 1011.25 176.433594 C 1011.910156 179.285156 1013.734375 185.386719 1015.6875 191.964844 C 1019.941406 206.230469 1023.324219 220.152344 1027.734375 234.417969 C 1032.4375 249.605469 1038.566406 269.367188 1039.359375 272.640625 C 1042.289062 284.738281 1044.402344 295.359375 1045.699219 306.085938 C 1046.992188 316.78125 1047.441406 327.585938 1047.019531 340.082031 L 1046.964844 341.613281 C 1046.753906 349.222656 1046.066406 375.242188 1042.132812 380.234375 C 1041.257812 381.34375 1040.253906 381.582031 1039.09375 380.65625 C 1037.824219 379.652344 1039.78125 368.003906 1041.578125 357.28125 C 1042.765625 350.066406 1043.902344 343.277344 1043.980469 340.558594 C 1045.300781 295.886719 1035 265.402344 1021.421875 225.171875 C 1019.863281 220.546875 1017.644531 216.058594 1016.269531 211.777344 Z M 1021.394531 263.632812 C 1020.523438 260.542969 1018.859375 255.917969 1017.300781 251.5625 C 1016.269531 248.707031 1015.292969 245.988281 1014.605469 243.820312 C 1014.183594 242.578125 1013.628906 241.019531 1012.96875 239.328125 C 1011.117188 234.390625 1008.792969 228.183594 1008.925781 224.828125 C 1008.925781 224.828125 1007.445312 220.125 1005.386719 213.652344 C 1001.105469 200.152344 995.082031 178.863281 994.210938 175.003906 C 993.128906 170.277344 988.71875 151.917969 987.5 138.550781 C 986.789062 130.679688 986.972656 124.472656 989.140625 123.597656 C 989.828125 123.308594 990.40625 123.890625 990.910156 125.105469 C 993.816406 132.316406 994.160156 147.398438 995.242188 155.933594 C 998.753906 183.617188 1006.125 205.859375 1013.945312 229.554688 C 1016.664062 237.769531 1019.414062 246.144531 1022.132812 255.074219 C 1022.425781 256.050781 1022.820312 257.320312 1023.242188 258.71875 C 1025.09375 264.742188 1027.523438 272.640625 1028.683594 277.820312 C 1031.777344 291.714844 1033.335938 305.953125 1034.867188 319.925781 C 1035.078125 321.800781 1035.289062 323.675781 1035.5 325.660156 C 1036.109375 331.152344 1035.15625 339.050781 1034.234375 346.660156 C 1033.359375 353.765625 1032.542969 360.582031 1033.070312 364.835938 C 1033.203125 365.839844 1029.925781 386.390625 1026.414062 398.410156 C 1025.59375 401.183594 1024.777344 403.507812 1023.984375 405.039062 C 1023.058594 406.808594 1022.105469 407.628906 1021.128906 407.128906 C 1020.65625 406.863281 1020.207031 406.253906 1019.835938 405.226562 C 1019.78125 405.066406 1020.019531 403.984375 1020.46875 402.132812 C 1027.46875 372.523438 1030.085938 359.394531 1031.695312 330.203125 C 1031.855469 327.269531 1031.117188 320.71875 1031.035156 319.160156 C 1030.453125 309.121094 1029.371094 300.085938 1027.761719 291.132812 C 1026.148438 282.175781 1024.035156 273.328125 1021.394531 263.660156 Z M 1012.863281 59.039062 C 1012.863281 58.246094 1012.941406 47.679688 1015.371094 45.589844 C 1016.214844 44.878906 1017.246094 44.984375 1018.488281 46.4375 C 1020.125 48.339844 1018.753906 51.640625 1017.378906 54.941406 C 1016.269531 57.609375 1015.160156 60.253906 1015.765625 61.835938 C 1015.898438 62.207031 1015.132812 70.949219 1013.628906 76.3125 C 1013.257812 77.632812 1012.835938 78.769531 1012.359375 79.5625 C 1011.804688 80.488281 1011.171875 80.960938 1010.429688 80.777344 C 1009.875 80.644531 1009.320312 80.117188 1008.792969 79.085938 L 1008.792969 79.007812 C 1008.609375 78.585938 1008.898438 74.28125 1009.585938 69.972656 C 1010.246094 65.695312 1011.277344 61.363281 1012.597656 60.488281 L 1012.886719 59.011719 Z M 1006.574219 59.722656 C 1006.574219 59.722656 1006.574219 59.460938 1006.574219 59.117188 C 1006.496094 57.902344 1006.363281 55.339844 1007.261719 51.296875 C 1008.027344 47.914062 1009.058594 45.777344 1009.957031 44.90625 C 1010.40625 44.480469 1010.855469 44.324219 1011.277344 44.402344 C 1011.699219 44.507812 1012.042969 44.851562 1012.253906 45.433594 C 1012.703125 46.648438 1012.703125 49.132812 1011.859375 52.933594 C 1011.753906 53.359375 1011.671875 53.859375 1011.59375 54.414062 C 1011.277344 56.449219 1010.878906 58.878906 1009.320312 59.617188 C 1009.191406 60.382812 1009.214844 61.070312 1009.242188 61.890625 C 1009.296875 63.289062 1009.347656 65.140625 1008.765625 68.546875 L 1008.714844 69.023438 C 1008.421875 71.742188 1007.101562 84.421875 1004.515625 85.851562 C 1003.695312 86.300781 1002.824219 85.929688 1001.976562 84.34375 L 1001.976562 84.265625 C 1001.765625 83.789062 1002.1875 78.242188 1003.007812 72.695312 C 1003.800781 67.226562 1005.015625 61.652344 1006.414062 60.703125 L 1006.628906 59.699219 Z M 999.945312 61.28125 C 999.179688 59.828125 1000.101562 53.171875 1001.660156 48.683594 C 1002.109375 47.359375 1002.636719 46.199219 1003.167969 45.40625 C 1003.773438 44.480469 1004.460938 44.007812 1005.199219 44.136719 C 1005.78125 44.269531 1006.335938 44.824219 1006.8125 45.988281 C 1007.050781 46.570312 1006.335938 51.402344 1005.226562 55.601562 C 1004.488281 58.429688 1003.5625 60.992188 1002.613281 61.941406 C 1002.480469 62.074219 1002.902344 62.921875 1003.035156 63.765625 C 1003.140625 64.425781 1003.21875 64.980469 1003.191406 65.085938 C 1003.0625 65.851562 1002.824219 67.648438 1002.507812 69.945312 C 1001.449219 77.925781 999.601562 91.980469 997.59375 92.402344 C 996.828125 92.558594 996.246094 92.320312 995.796875 91.714844 C 995.214844 90.949219 994.953125 89.546875 994.871094 87.726562 C 994.820312 85.980469 994.953125 83.867188 995.214844 81.597656 C 996.167969 73.382812 998.914062 63 999.917969 61.28125 Z M 1037.269531 60.359375 C 1037.242188 59.644531 1036.953125 52.328125 1038.828125 50.691406 C 1039.621094 50.003906 1040.625 50.136719 1041.972656 51.640625 C 1043.347656 53.199219 1042.394531 55.234375 1041.3125 57.480469 C 1040.359375 59.484375 1039.304688 61.707031 1040.070312 63.632812 C 1040.835938 65.589844 1040.546875 66.9375 1039.804688 67.78125 C 1039.144531 68.519531 1038.117188 68.835938 1037.164062 68.707031 C 1036.214844 68.601562 1035.316406 68.070312 1034.894531 67.148438 C 1034.445312 66.167969 1034.574219 64.769531 1035.84375 63.050781 C 1036.398438 62.3125 1036.6875 62.234375 1036.902344 62.179688 C 1036.902344 62.179688 1036.902344 62.179688 1037.242188 60.304688 Z M 1031.328125 59.328125 C 1031.328125 59.328125 1031.328125 58.984375 1031.328125 58.535156 C 1031.351562 56.238281 1031.457031 50.398438 1033.125 48.972656 C 1033.914062 48.285156 1034.917969 48.417969 1036.1875 49.921875 C 1037.613281 51.585938 1036.6875 53.542969 1035.632812 55.789062 C 1034.628906 57.902344 1033.492188 60.304688 1034.179688 62.894531 C 1034.945312 65.746094 1033.941406 68.414062 1032.59375 69.867188 C 1031.960938 70.554688 1031.246094 71.003906 1030.613281 71.082031 C 1029.875 71.1875 1029.214844 70.871094 1028.816406 70.027344 C 1028.289062 68.890625 1028.316406 66.59375 1029.503906 62.789062 C 1029.820312 61.8125 1030.113281 61.679688 1030.453125 61.574219 C 1030.667969 61.492188 1030.878906 61.414062 1031.300781 59.300781 Z M 1025.277344 58.824219 C 1025.277344 58.035156 1025.144531 49.394531 1027.257812 47.574219 C 1028.078125 46.859375 1029.082031 46.992188 1030.375 48.46875 C 1031.90625 50.242188 1030.878906 52.460938 1029.714844 54.96875 C 1028.660156 57.242188 1027.46875 59.777344 1028.15625 62.339844 C 1028.421875 63.289062 1027.707031 68.097656 1026.492188 71.082031 C 1026.148438 71.902344 1025.777344 72.589844 1025.382812 73.0625 C 1024.882812 73.617188 1024.351562 73.882812 1023.71875 73.699219 C 1023.191406 73.539062 1022.6875 73.039062 1022.1875 72.058594 C 1021.050781 69.789062 1023.085938 64.558594 1024.378906 61.257812 C 1024.800781 60.148438 1025.144531 59.273438 1025.25 58.851562 Z M 1019.121094 58.71875 C 1019.121094 58.007812 1019.097656 48.390625 1021.339844 46.464844 C 1022.160156 45.75 1023.191406 45.855469 1024.457031 47.335938 C 1026.015625 49.15625 1024.75 52.140625 1023.453125 55.179688 C 1022.398438 57.691406 1021.316406 60.226562 1021.949219 61.863281 C 1022.238281 62.601562 1021.5 69.234375 1020.125 73.328125 C 1019.78125 74.359375 1019.386719 75.257812 1018.964844 75.863281 C 1018.460938 76.578125 1017.855469 76.949219 1017.195312 76.816406 C 1016.640625 76.683594 1016.085938 76.15625 1015.554688 75.125 L 1015.554688 75.046875 C 1015.371094 74.621094 1015.554688 71.292969 1016.109375 67.964844 C 1016.640625 64.664062 1017.539062 61.28125 1018.777344 60.515625 L 1019.148438 58.71875 Z M 908.964844 261.253906 C 908.703125 260.25 908.964844 258.957031 909.574219 258.191406 C 909.835938 257.875 910.15625 257.636719 910.496094 257.53125 C 910.867188 257.425781 911.289062 257.453125 911.710938 257.664062 C 912.585938 258.113281 913.535156 259.484375 914.328125 262.363281 C 917.445312 273.75 919.980469 284.738281 921.75 295.859375 C 923.519531 306.980469 924.5 318.210938 924.472656 330.097656 L 923.917969 330.28125 L 923.96875 330.359375 C 923.96875 330.359375 924.101562 330.441406 924.074219 330.492188 C 923.996094 330.574219 923.863281 330.703125 923.707031 330.863281 C 923.230469 331.390625 922.597656 332.105469 921.832031 332.132812 C 920.746094 332.15625 919.691406 330.625 919.480469 324.390625 C 919.054688 312.554688 917.945312 302.4375 916.175781 292.453125 C 914.40625 282.46875 911.976562 272.589844 908.914062 261.203125 Z M 923.945312 330.335938 L 923.863281 330.335938 C 923.863281 330.335938 923.96875 330.386719 923.996094 330.414062 Z M 918.183594 322.09375 C 918.132812 322.804688 917.921875 323.386719 917.550781 323.808594 C 917.15625 324.230469 916.625 324.46875 915.886719 324.574219 L 915.832031 324.574219 C 915.171875 324.601562 914.539062 324.363281 914.089844 323.941406 C 913.640625 323.519531 913.351562 322.910156 913.324219 322.25 C 912.929688 313.269531 912.136719 305.582031 910.972656 297.921875 C 909.8125 290.285156 908.226562 282.707031 906.246094 274.015625 C 906.140625 273.539062 906.402344 272.035156 907.011719 271.160156 C 907.273438 270.765625 907.59375 270.476562 907.988281 270.394531 C 908.410156 270.289062 908.859375 270.394531 909.335938 270.871094 C 910.261719 271.769531 911.371094 274.199219 912.558594 279.535156 C 914.167969 286.746094 915.410156 293.695312 916.335938 300.695312 C 917.261719 307.695312 917.867188 314.722656 918.183594 322.09375 L 918.183594 322.144531 Z M 1014.871094 406.652344 C 1014.550781 406.46875 1014.339844 406.125 1014.207031 405.648438 C 1013.679688 403.667969 1014.605469 398.699219 1015.898438 393.839844 C 1017.167969 389.03125 1018.777344 384.304688 1019.625 382.824219 C 1019.835938 382.453125 1020.074219 382.214844 1020.285156 382.164062 C 1021.234375 381.898438 1021.921875 382.214844 1022.371094 382.929688 C 1022.820312 383.644531 1022.980469 384.753906 1022.953125 386.152344 C 1022.925781 387.5 1022.714844 389.085938 1022.371094 390.800781 C 1021.023438 397.777344 1017.539062 406.625 1016.429688 406.863281 C 1016.136719 406.914062 1015.875 406.914062 1015.636719 406.890625 C 1015.398438 406.863281 1015.1875 406.785156 1014.949219 406.703125 L 1014.871094 406.703125 Z M 1008.660156 406.757812 C 1007.050781 405.804688 1007.738281 400.574219 1009.214844 396.164062 C 1009.824219 394.316406 1010.589844 392.597656 1011.328125 391.410156 C 1012.175781 390.0625 1013.097656 389.347656 1013.972656 389.746094 C 1014.5 389.984375 1014.949219 390.695312 1015.265625 391.9375 C 1015.265625 391.992188 1014.578125 398.121094 1013.046875 402.425781 C 1012.648438 403.535156 1012.203125 404.539062 1011.726562 405.277344 C 1011.199219 406.097656 1010.5625 406.652344 1009.875 406.835938 C 1009.507812 406.914062 1009.136719 406.914062 1008.765625 406.785156 L 1008.6875 406.785156 Z M 1002.453125 406.890625 C 1000.816406 405.9375 1001.265625 401.921875 1002.453125 398.382812 C 1003.007812 396.746094 1003.722656 395.1875 1004.460938 394.105469 C 1005.304688 392.890625 1006.203125 392.226562 1007.050781 392.597656 C 1007.605469 392.835938 1008.054688 393.523438 1008.34375 394.765625 C 1008.34375 394.789062 1007.867188 399.519531 1006.652344 403.03125 C 1006.308594 404.011719 1005.914062 404.882812 1005.4375 405.570312 C 1004.9375 406.308594 1004.355469 406.835938 1003.667969 406.996094 C 1003.296875 407.074219 1002.902344 407.074219 1002.507812 406.914062 L 1002.425781 406.914062 Z M 1066.277344 399.230469 C 1063.898438 397.90625 1067.148438 384.621094 1069.101562 376.535156 C 1069.710938 374.054688 1070.183594 372.074219 1070.371094 371.09375 C 1070.582031 369.773438 1070.792969 367.503906 1071.03125 364.835938 C 1071.742188 356.832031 1072.773438 345.445312 1075.839844 345.65625 C 1076.207031 345.683594 1076.550781 345.867188 1076.816406 346.15625 C 1077.820312 347.269531 1078.003906 350.492188 1077.714844 354.796875 C 1077.421875 359.023438 1076.632812 364.359375 1075.679688 369.828125 C 1073.222656 383.695312 1069.367188 398.59375 1068.546875 399.070312 C 1068.179688 399.28125 1067.808594 399.386719 1067.4375 399.386719 C 1067.09375 399.386719 1066.75 399.335938 1066.382812 399.203125 L 1066.300781 399.203125 Z M 1067.304688 268.441406 C 1064.398438 268.46875 1060.675781 254.808594 1058.246094 246.039062 C 1057.53125 243.425781 1056.925781 241.230469 1056.527344 240.015625 C 1056.289062 239.277344 1055.710938 237.71875 1054.941406 235.578125 C 1050.902344 224.378906 1041.390625 198.015625 1043.953125 196.246094 C 1045.300781 195.320312 1046.464844 195.902344 1047.492188 197.378906 C 1049.238281 199.890625 1050.53125 205.171875 1051.484375 208.976562 C 1051.851562 210.429688 1052.144531 211.699219 1052.40625 212.464844 C 1052.828125 213.707031 1053.621094 216.03125 1054.679688 219.066406 C 1059.804688 233.835938 1070.714844 265.402344 1069.023438 267.542969 C 1068.785156 267.832031 1068.546875 268.042969 1068.285156 268.175781 C 1068.019531 268.308594 1067.753906 268.386719 1067.410156 268.441406 Z M 1038.617188 203.667969 C 1038.75 202.160156 1030.136719 176.589844 1032.09375 174.320312 C 1032.675781 173.660156 1033.570312 173.738281 1034.839844 174.847656 C 1035.316406 175.269531 1040.757812 193.3125 1045.011719 207.390625 C 1047.414062 215.371094 1049.449219 222.054688 1049.898438 223.453125 C 1060.835938 256.023438 1068.652344 282.386719 1071.53125 309.203125 C 1074.410156 336.015625 1072.351562 363.222656 1063.503906 397.511719 L 1062.949219 397.511719 C 1062.949219 397.511719 1062.949219 397.589844 1062.949219 397.589844 C 1063 397.644531 1063.054688 397.722656 1062.972656 397.722656 C 1062.921875 397.722656 1062.710938 397.882812 1062.472656 398.066406 C 1061.863281 398.488281 1061.097656 399.015625 1060.410156 398.859375 C 1059.328125 398.621094 1058.773438 396.667969 1060.332031 389.71875 C 1076.234375 319.425781 1064.980469 285.398438 1045.777344 227.179688 C 1043.347656 219.859375 1041.285156 212.066406 1038.589844 203.667969 Z M 1062.972656 397.457031 L 1062.867188 397.457031 C 1062.867188 397.457031 1062.972656 397.511719 1063 397.566406 L 1063 397.457031 Z M 1028.289062 191.304688 C 1028.210938 191.015625 1028.023438 190.460938 1027.785156 189.71875 L 1027.363281 188.425781 C 1030.21875 199.46875 1032.910156 209.558594 1034.046875 213.046875 L 1035.578125 217.695312 C 1056.371094 280.59375 1068.917969 318.5 1053.597656 387.234375 C 1053.277344 387.289062 1052.855469 387.632812 1052.59375 387.84375 C 1052.011719 388.292969 1051.269531 388.847656 1050.585938 388.714844 C 1049.5 388.503906 1048.867188 386.574219 1050.214844 379.496094 C 1062.417969 314.773438 1050.503906 278.347656 1034.945312 230.746094 C 1029.792969 214.972656 1024.246094 197.988281 1019.015625 178.308594 C 1018.882812 177.777344 1012.886719 154.742188 1015.34375 151.308594 C 1015.875 150.570312 1016.613281 150.492188 1017.667969 151.230469 C 1017.878906 151.363281 1019.386719 157.359375 1021.5 165.652344 L 1022.898438 171.097656 C 1022.636719 169.511719 1022.476562 168.003906 1022.425781 166.683594 C 1022.320312 163.433594 1023.03125 161.242188 1025.117188 161.191406 L 1025.382812 161.191406 C 1025.382812 161.191406 1025.515625 161.402344 1025.515625 161.402344 C 1026.097656 162.40625 1029.503906 174.371094 1033.414062 188.082031 C 1037.691406 203.140625 1042.605469 220.285156 1044.929688 227.203125 C 1055.417969 258.457031 1062.761719 284.183594 1065.402344 310.3125 C 1068.046875 336.464844 1066.011719 362.957031 1057.71875 395.742188 L 1057.164062 395.742188 C 1057.164062 395.742188 1057.164062 395.847656 1057.164062 395.847656 C 1057.242188 395.898438 1057.269531 395.980469 1057.1875 395.980469 C 1057.109375 395.980469 1056.898438 396.164062 1056.660156 396.324219 C 1056.050781 396.746094 1055.3125 397.300781 1054.601562 397.140625 C 1053.515625 396.902344 1052.960938 394.921875 1054.519531 387.816406 C 1069.65625 318.84375 1058.324219 284.394531 1041.179688 232.304688 C 1037.085938 219.886719 1032.675781 206.46875 1028.210938 191.304688 Z M 1057.214844 395.742188 L 1057.109375 395.742188 C 1057.109375 395.742188 1057.1875 395.792969 1057.242188 395.847656 L 1057.242188 395.742188 Z M 1079.007812 397.777344 C 1076.972656 396.667969 1076.867188 395.132812 1077.609375 393.8125 C 1078.058594 393.019531 1078.824219 392.308594 1079.617188 391.859375 C 1080.460938 391.382812 1081.386719 391.222656 1082.074219 391.515625 C 1083.128906 391.964844 1083.578125 393.445312 1082.257812 396.535156 C 1081.992188 397.167969 1081.542969 397.589844 1080.988281 397.800781 C 1080.433594 398.039062 1079.75 398.011719 1079.113281 397.800781 L 1079.035156 397.800781 Z M 1042.949219 67.78125 C 1041.179688 66.960938 1041.339844 63 1042.289062 59.328125 C 1042.765625 57.503906 1043.425781 55.734375 1044.140625 54.492188 C 1044.957031 53.09375 1045.882812 52.300781 1046.78125 52.671875 C 1047.335938 52.910156 1047.8125 53.570312 1048.152344 54.808594 C 1048.152344 54.863281 1047.941406 59.195312 1047.042969 62.761719 C 1046.753906 63.949219 1046.359375 65.085938 1045.910156 65.957031 C 1045.40625 66.910156 1044.800781 67.570312 1044.03125 67.78125 C 1043.714844 67.859375 1043.371094 67.886719 1043.027344 67.78125 Z M 1042.949219 67.78125 "/></g></svg>